<mxfile host="Electron" modified="2024-02-14T19:51:04.981Z" agent="Mozilla/5.0 (Windows NT 10.0; Win64; x64) AppleWebKit/537.36 (KHTML, like Gecko) draw.io/22.1.18 Chrome/120.0.6099.199 Electron/28.1.2 Safari/537.36" etag="a4CjIyz6iY6C7A2Awhze" version="22.1.18" type="device">
  <diagram id="43Gi90NLFRpTIYZ2rnrF" name="Electic Schema v1">
    <mxGraphModel dx="1434" dy="814" grid="0" gridSize="10" guides="1" tooltips="1" connect="1" arrows="1" fold="1" page="1" pageScale="1" pageWidth="827" pageHeight="1169" math="0" shadow="0">
      <root>
        <mxCell id="0" />
        <mxCell id="1" parent="0" />
        <mxCell id="ot_2HG85SZWJpa_cD8Q3-33" value="" style="rounded=0;whiteSpace=wrap;html=1;fontColor=#D6D6D6;strokeColor=#FFFFFF;" parent="1" vertex="1">
          <mxGeometry x="47" y="258" width="724" height="277" as="geometry" />
        </mxCell>
        <mxCell id="ot_2HG85SZWJpa_cD8Q3-29" value="" style="rounded=0;whiteSpace=wrap;html=1;fillColor=none;strokeColor=#CCCCCC;strokeWidth=1;dashed=1;dashPattern=1 1;" parent="1" vertex="1">
          <mxGeometry x="578" y="266" width="181" height="172" as="geometry" />
        </mxCell>
        <mxCell id="ot_2HG85SZWJpa_cD8Q3-20" value="" style="group;shadow=1;" parent="1" vertex="1" connectable="0">
          <mxGeometry x="51" y="312" width="690" height="178" as="geometry" />
        </mxCell>
        <mxCell id="ot_2HG85SZWJpa_cD8Q3-25" value="&lt;span style=&quot;font-size: 15px;&quot;&gt;&lt;b&gt;&lt;font color=&quot;#cccc00&quot;&gt;TOR 2&lt;/font&gt;&lt;br&gt;&lt;/b&gt;&lt;/span&gt;" style="text;html=1;strokeColor=none;fillColor=default;align=center;verticalAlign=middle;whiteSpace=wrap;rounded=0;fontSize=14;fontColor=default;" parent="ot_2HG85SZWJpa_cD8Q3-20" vertex="1">
          <mxGeometry x="540" y="73" width="55" height="3.5" as="geometry" />
        </mxCell>
        <mxCell id="ot_2HG85SZWJpa_cD8Q3-9" value="" style="group;rotation=0;" parent="ot_2HG85SZWJpa_cD8Q3-20" vertex="1" connectable="0">
          <mxGeometry y="21" width="560" height="157" as="geometry" />
        </mxCell>
        <mxCell id="ot_2HG85SZWJpa_cD8Q3-7" value="" style="shape=image;verticalLabelPosition=bottom;labelBackgroundColor=default;verticalAlign=top;aspect=fixed;imageAspect=0;image=data:image/png,iVBORw0KGgoAAAANSUhEUgAAAfEAAADPCAYAAADlNegUAAAgAElEQVR4Aey9B3xV150nfu+7/b2n3rsEQiAQHQEqVHUkEL2D6EhCoArYYIMbNtimgxvGNlW4gJ1kZzJJbE8m2dSZTeLEiZ2d2c9nslM22WRmNsXZ/0wM3//+fuecpwexkSa2iSFPfA73vXfPPe2ec76/fjRE/iIjEBmByAhERiAyApERuC1HQLstWx1pdGQEIiMQGYHICERGIDICiIB4ZBJERiAyApERiIxAZARu0xGIgPht+uIizY6MQGQEIiMQGYHICERAPDIHIiMQGYHICERGIDICt+kIRED8Nn1xkWZHRiAyApERiIxAZAQiIB6ZA30jcA0AJfl37do1qES/hz6rDJFrZAQ+jSPAc1VMZTVn6Up/dBGfwyb6Le5DeJvU51vcBDkWYn3/MeqO1PnxjUAExD++sbz9SwoDcbW5qCvtfteuvS83wNu/q5Ee3LkjoOYsT+eweUsAfpW/XwVA6db/hdomCeSrV6/+0daUaguNQvjnWz8qkRo/yghEQPyjjN6d9uwHgjhtMleBa+JKiz3yFxmBT/MICEC6ykIlBU7iqkA8bKLf4o5c355riID4LX4Bd2B1ERC/A1/qx9El2myuXnufE4G4SBEA/zjGNlLGJzsC16D+KQ5TSJCUKJ3mdrja6JNtzfWlKxCnX9Vnbs/12T6xb+F1hterfv/EKo4U/ImNQATEP7Ghvf0Kvp4/ERsh8TP8TwH5H2v3u/2GM9LiP+IIqLkswEmKrEM/CsnSrWpeOEB+0Gf67Vb9qfrVVdWrvqur+j1y/fSPQATEP/3v6Ja1UHAqxCGEJWnrRkB+FQLSb1mDIhVFRuAPGQEGa7LhUBKk60Fc/f6HFP2HPKOAMfxK5YR/p8+38u/Gum/8fivbEqnro41ABMQ/2vjdUU/TPkKGP8L4R4gcf/Ob3+D4yROcTpw8CUonIykyBp/yOcBz9cQJnJDpFz//RUgldKtBXG0SNwIl6cN/+ctf/lHS++8rFUOYB0oYYaHaHLl++kcgAuKf/nd0y1ooeG3SgwvO5Zf/55e4/OplDC7NR35tPobMKsCQWUMiKTIGn+o5kD8rH/l1g5FfNwSDa/MxuGwwTj1/Cj/72c/+KJbgBN7/8A//gHfffRf/+q//ip///Oe4fPkyXnnlFZw5c+aWprNnz+KNN97Ae++9x2PxzW9+E5T+5V/+5TrJwC3bdCIVfeQRiID4Rx7CO6eAq9d+h2ucCMSBn/z9T7Bm4xoYkw3YK214az0469xIiozBp3oO2GstWGt94GuTBXO6ibpFs/DWW29J53GpI7pFS5cA/Omnn8bOnTvxmc98Bm+//Tbq6+sxY8YM1NTUoLa29paluro6bNy4Ed/4xjeYqLnrrrvQ1NSE1157Db/61a9u0YhEqvk4RyAC4h/naN7mZRGIk0W60on//U9+gjXNa+GrMOBu88PrCcDroeufYOr2w+Pkwe2RqcODu8WDS1f5m6fu3fi924NLqV0+s008Q/k5dXvw6P4Nz7tdLtxtLtxWD24n5fHD7XE5X7/vQbW324Xb7XI9VIa72YXbopInyqby75DktDhwWky4W2y4XTbcRhtV86vwne99l80yf/2rX+Nn/+unDGI//enP8L//989ZhfS7//gPyY1Km5CPaT1/9atfxerVq1EwtACtra34yle+gsrKSowYUYSysjJMmTLlE0lTp079vXKpvoyMDHR3d+PP/uzPsGnTJgwfPpy//+M//qNwyxtIv5XdjDJ8lVexeVABoQwhwkkYyErxvaqJ/eXFePf9FCbiV5tRf21SRouSPlOP0VU0RZTZXzG34/0IiN+Ob+2TavNV4P1rwPtyIRCIr21eFwJxp8dmAOkXPO5EkA8DRKfHAaeVFuw6B/YSF06bI8eGgNiGs92Du50AmgDXYRB1Wh04i204tTbsBTacVpuB2+t24SeQ7fa4XHe7BFyqZ4sNZ64Jt8KGu8plIsDutjhfv++BAL/bhUP5uy24nS6cJg/mJA/mNBvmNAfmdBfWjDsr2TNcONM92FVEmLhwlzsYM30Mc5+//e1v8cYbb+LQwSM4fPAYHn/8CE6ceBrv/u0/4Lvf/Q5+895vJBH7MW7614BTz5zCosWL0LNjO3bdsxujR49GZmY2hhQMwZChQxjgCwoK8EFpyJAhUOmD7of/NnTo0FAZ4Z8pD5WRn5+P5MQkNNTXY99D+9Dd1Y0dO3bg9ddfZwwl09X3+VM/m0wIo5XJ69WQGk48ThmERK8PUOm7UNexiSzdp2A37CxAG49IV6/22eVcu3oNlPr9Y7AWiC0+iueEHQIRCcSc/HEC/PTb9o+YIQLiH3EA76jH5WKiiU9/P/mfP8HalnWwKxzBDRIYMef4p8iJEydNHK0D5o67XHhZLmJiYuD5PTilDrxOGhcPHt0jzrqHroILdrpsGMUG3KCH6OhY+BP8MMaacLu865LTTQSCC3+PH366t9hDwPMjLi4OtmXBWWWJ+gfyHiSIU5upXGu5DV96EJpWCE1LgKYlQdOS78ik62nQnEwYEy3YbRb0JB2Xr7yCL3/5K2hsXBHWdxqHNGhaMTQtgK99/Rv43e9IrfTxgTiV9bWv/Vf0dHdjSvkUFAwdirFjx6KwsBCFwwsxbNgw8Zm+yxT+G31WSd2/2ZU4a8pPIE7pumeHFaJwWCHyBw/GpOJJGFowFPfddx/+109/KnlpgteBgV0fOBOz28c989iRJ4u0rQmNpRxTcZ/yh4E43WNAp99uKEvuR/3ttdwG1XYuTxADKkof3b8T/yIgfie+1T+0TwziYvFREdeDOAH4ny6IkyicgJCvHS60OB/e/PJf4he/+DkuX7mMmXMqYE4xQ8DNovcQiHuwGi0kjIjDffftZSOiK1euwEpwYC1ymENmUTuBthSpE5dtz7dRWlOCf/nFz/Gzn/0U586eQ/qIDFjLrYFJRCSIe9TudTaMCenQ9VnQtFESxEqhadOgadPvsDQNmj4Jmp4LzYyFNsiAnuVDcnYqEhLGw7aHQdMKoGkzZP8nQtP8TNwkJWXjC1/4wscM4lfxta99Fe3t21BcXIyS0lI8vP8RPPfsaTx3+jSOHTuGw4cP48knn8Tp06fx3HPPcaLP4Un93t9VlfHEE0/gyJEjOHr0KFvpP//881Bp/fqNqKyoQnZWNnbt2oWfXgfiAwM7wtb3r5JHC4H49aAtOG0FxnJPkcAaDvIEsMSA82+S6+4D8b4yB7KlCRCXbZcEQ7i3TQTEBzKKkTy39QgIylmInWiBKnG6WWn9yXPiQldNgOvBWe1A8/vwne98hzmQ//63f4t1m9bDHG9Jbl1y4sSNMzA7MKpNZI/LwfHjx5gDefPNNxGVGg2rzpS6bsG1E+fOHPxWD9ZMB1OnTWPlBr2bf/7nf2axq7WI1BrE6fcnESGigAgPB16HB7shD5q2EJo2BpqWAl2rhKbV3qGJCJN8aFo8NHMoNGsMfEY5dH0KNI1AfAQ0rQaaVg1NK4em2dC0kdD1ANavX48vfvGL+PG7P8aPf/zR07vv/hgXL/Zi7dq1mFBcjLLychw6fAS9l3rRe+lFFBeXICsrG7m5udi8eTMuXbrEqbe3F5TU94Fe1XMrVqxATk4OsrKy+Dpp0iS88MILXGZLSyuqq6qRlZmF5s3N+PrXvoYfv/sO3n3nHbaiH0i/3/3xj/HOj9/BOz9+F++++99lehc//zl5ARAAS1iVgCrl5pJA6gNogl3B1SvQl6L4qySiZ/JgQPuqKEeUQQ8oUOd2cFsGVMxtlynCid92r+yTa7CY7ATiAsh/8pOfYF3zOtiVDuxtrtDXDgg8+gOX2/c+c+KtDrRMHZW1ldi9ezfWrlmLgoYCOGtcIRpnIzVhCOd0++EQF7/aRnBkgK2Q7777bjSsmQ3/8gDcTcroTFyFyN5lYLfm2UgsSMLS5cvw2GOPY1ZtHaLGRMFeM0BOnCUBjhDpL3Fh5ORA05ZI0XGqBLAGaNqdmIhAGQJNS4SmTZAcdx00rQKaNpwBW9PqoWkkmZgqQXwcNC0aqTmpGDtlDMpqS1FWV/axpJGTijBq3CgUF09EOYH4oUO42HsRe+/di5TkFPh0HxzHYUO3Bx54gIFWgfFAwfvGfIsXL0YwSOoTDT6fjw3aiIu/ePEiWptbUVNdJYiHgjxMnFmM0v9MX2vLUEaprlyk2nKU1pSjtLYUNXNqcNddu/D6l97A//i7v2O3ut6Ll7B9x04sX7ECCxYswOqm1bj/gfvx5pt/id/85v/ivf/7W7z3W5HIbuG9936N9977DX773m9F+u1vQb/fLP3mvffwa3rmtyKRGx0l8om/QyXpDAYREP/kMPG2LFlx43TK09///d9j5dqVcKtcOFvJQGqAVtH9coi3KYhvp3aTlbgLa5EFd5yH7AlZSCpOhLfAz1w3cd5sQa6s0Sn/dhduhwt7qYOEaYnIHJGB6LHRfXpzAlvKF/4MAX+zC6fOQbAoiMGTh8AZ7sBabMHZNlADQ3pfIjkLbBipBOLLoWkkPk6XHHgjdO3OSprWKAkUEpmT3n8yNJY6zJHc90gpjaDvc6Br06FrLnQG+xiYo8hg0YI9x4LdaH/kRKoUs9xEVnE2JkwkEJ+CQwcPoffCRbRv3YaE+HgkJiYiOjoaRUVF6OnpuQ7EFZj/Z7hyytvY2AjXdeH3C5sKsko/f/48g3hLcwuqqyuRlZ0FZ7gLi/pLfZ070P5acBrpGRf2XJOTNceC1WjDm+1HzpwcTJs/HXMaG7Fy5Sqs29CKTc09aGm7Gy1bd2HzlruwobkTa9ZtxoqVq7GyaSWnVU0rsWr1SqxcvYITfabf1P2bXtVzTSuuy//c6efwT//0TywBuC035X4aHQHxfgboT+k2BXnhQC8yvOrf/d3fobaxlhe3s82Fv0u6Wd2pIH2TfpH4mizSCRS9Hgdejw1rhQ17jg1nic0uW8Rx2yEuXLmMCVsCFpGTnnutA7PWgD2XuOlwOwOyapdcM1uUC4t2t82Fs9iCOcuEvcyB0x7+zM2JIWEVT0ZtLqwlNoycXGhaEzRtEjQtU3Kh86Bpd1qaK8GaxOYE4mXQNOLC58s+j4amjQ3r90wJ4jQusTDJE2ALqTeUW+FHu/L4L7OQNYNAnMTpU3D44GFcOHcRc2bPYe57/vz57DNOBm8rV678g0FcAT7pxauqqthSncCc/NInTJiAPXv24PyF8xDi9CoGcbfMg9MiVEBkUCkMMm/eZ0Fw0nyled7ngcFqpy4Xzhob7mQX6bm5WLxsPfbcfwzbdx1AW8cetLbvQcf2fdi99wi6du5DVf0CJOalwZxiweJkwpxicLKmmLCmWjD7TZTfx3Yp5lQTnKZYMAYb2NC6AT/60Y8iIP6nBGZ/qn0VfuK/E1HSr13j4BiDRgxm4HE6CMQDYmO7Cdj1r6e9OfB8Wp8ni3Grh1y7FIhLkGXuWeizSRRuk/6ZNzYJ4sqinYFf+Hg7XRZbsCsQZ4t25pjJ5YzE6jbsHtKvizrYMI1/l6J3RSj08x4cam+3zXp6e4kDXw7pxNdC00okiBMnuuAOTATWBNpkhU8gTuLy2dC0xXzV2SaAROeUj/pfCV1zoDPYx8Mkb4wtN0hUlJTkD7iyZ8AyE1nTszBhgtCJE4ifP9eL6dOno7KiEnv37kVXVxdmzpyJVatWhUD8RhF5f99JVE5A/uyzz7LYetasWXjooYfYeK20tBQU3OXMhRfQ3NLMIJ+ZnQ2v1A+3WYI4ES7hUqEP6S8RJuS2yDYcao5TXprHNG9XuMipzMfGrTvwQu8X0d55Hyoa52DY2NEYVDQco0tL0Lh4Je65/wiOPPUSFq/fiPiFyfAofgHFMpBl+Xs89tTob18Qbp/hhDGtHQ/2DAsb2zfiRz96h/Xud+LePiBOnAwEhOOBsu/rM0BQRgOsc2DLAulkLCwVWBdxYx71na4yg9RZKEOIG8qQhd9oqEBvJfyfekGqfPX9uqtqI/2oPoea0dcvLputLlWb2IRSPnTDs/RVGm+Eui2zX1+FKIsq5t/VzesaKL6ocigjfw6rknOoZ+VV5b/hZ36Kaw0vJ9QV9aPot4rYRqL0X//6V7j82mXo6ab0NRYLS1hdi4UuwEcGKAktdlrEAzG6ur3AnDYnAlYB4tL4jOwD2AKcxoZ8sulqSxezPk6ONzXaGHsojwNyNyORvHJB84e4GfpNcPw2+eRL33HB+avxEptt33tQv//+lQCcQbzHhbPUgS93MDRtPTSNrNKzoDMHvgiadicm0vMrEJ8JTSPufBlfdW0sdI1AnACcDP3IuI0M28jALS4E4vQ+BVgRIAiJhvguiCl2B2QAo/cufhNzQKyVvt8c2MtMZE/PQvGEYiFOP3QY5y9cxLq1azBkSD57LbS0tGDhwoUM6Iqjpmt/wB1+P/w5Ciwzb948diG799572XCOuPDzvefQ3LIZlVInziDeIolPkrb9p0BcSI9CaiR6drODxOokzJ67DGcufREdOx9EXFECgjkxSBuSiYzCPERlxMGIMjFs9Gjsvv8QnnnhcyibUQ233oW7Vawrsb+Q1IvWxe/P7/DfBIgrIli8DyKmrRkmNrRvxDs/ekdizAdstrf5Tx8O4mHgQBaCv5NJwI/y71OgJy0RCRPkKX/XrpIxAX2hPGGWiCGwC3tW+CgIwJFWjQK5ZIHs+0c+fyqgAJUnDLCYuAg/tIMBVdanwDIcABXK0Yvjz6odovz3pa8i+U0I8JTki/Jp5D6FgzYVQt/VGKhABTeAL+OlaBePCRFGciwUNaEgnsq7SoFXlMsF22WIu2L8w+uX9Sg8Vt0KXdnZIxRQgUsJfweyDhGpjd4X8O//37/j23/9LaxoXQ6rSlC3ajMjylgsHvJlduBtF+JdR/o7O10C9MMXWOTzzTegT2p8BNEgNjR7iS1BfJMEqywpTl4KTbsTE0kZyICNOHECcVIZLIemE5iTKJ2M3ajfxJ3XQdNtaHoZdC2BvQLcLQLUGMg5yJFcBxSARwI2BT8ioPEzASd+Z+KKgvVQsB8lXdniIW5JPAqrCjGxmECcDNsOs256x867MXXaFDz8yMMIB3ECZgJk4qzDQXognxWQk6U7iemJEycQJ0t1cjEjS3kWp1dXs+V66vQUpLQlwW2XBOgAQJP7ScQnxUSgqIKUmIh1YddbGF05EXv3ncCeB47CjrHhNQYwccY0rF7Xxjrxquq5KBhVhJShGSgcPwpHn+jFnodPIJAXhLue2qE8O8j+g4C8vzWkCGtBCBPwU3so5O7Gjo145513eJ++E/8bEIgzxxxi9SRYyc1fAJICOhElhyLuUHYF4gyWDCqCoxdcqwA0BjKKLSAe4AsBIvA7hW19XC6XK6GOgUjhMNUnyuO2cl2yTfw5VBTXw/WHqgx/lspQTZFoHyo3rHzOo56jL/QM3affxO/iN7ol/6n2qmLpYE8mRFQOCbahMgTIK6DnXLIOUbZyBQsvX9Uvrn1tUINAlfNg81W+DdFC2b5///d/xw9/9A527LkLRpEOT25IJNLlFAJxEg3TRkVcCoW3pIU2cH1t/4uyv0Ubud/fGDKIM5A4sJcqEN8sxcvZUpxMhm53YiLjtiIZyIYs1YnrpiAvJEIfD52N+6jfEsQ1V45LAsyZNtxWRwBUaE73zW1BHJFUhcIQE9coQMyRQCY4R8WZu7AbHYybMx4NjbND1ukHDx3EhQsXEALxh/exexmBLonWFYgrQKbrQAA8PI8C8QcffJC9KMJBvLlZiNPJ/WzW3FmY1VMHdy1Jfyj1D5q89pmYEfmF1MGD0+mHVeqgsroRB4+dw8SyqTDifMjKHIRTL3wOlz/3TVz+3Ldw+TPfwiuvfQvte+9HzPBYTKuox/mX3kR2dh78S/1w24Wnh9hz+ufE1ZiLqwi0FAHx60gWtfkrzlqBlojsI3FJIoXIQwDCf303+SfxlYCHnpWAwh/F97DsIeQNAZkEOHGD8qs/eioMZNXPH3iVYClbyzAbBsB9jRTtIVTvA2bBqfblUeAogF8QAB8E4n11hp6VbVP9pSv9cV2SQBLlUb9kIFQp2eAy1NjJcewjIKh+AnhBXIi8svAPvfS9V/J9XrOxCeZIA37alJjbVtQtcR59FK+gvKXIkanlvo2uP4CJ3P/kiRAGG7KM7yEQtyQn3izBiizVFbCthKbdaYnAeqQEcRKXk2sdGfVRnydAZ4t1AvGl0NnNjIK9kG95IuyZLrxW0sV6zFF/0FyluU/iWqEDFtyoCJ1L71WdMaCA3IOzzEX29BwO9lJeXoZDEsR37rwb06ZNw/bt27Fs2TK2KKcIagqMFYir7wO9vvjiiyCgJqKA3CC3bNnCnDj5iRN3L0C8moO9BEo9+Fts+Bm8JRfcD+fLIE5SuO0idLBSGdmbHCRMT8aS5Rux54HjCERFwR8TwL33HUHv5S/j8ue+LUCcgPxz30b7XQ9AD2pIz8zBhZe/jNLyGYhqCIBCFIsxFvYmH/QOrv+tb18SYvgIJy4AhXk0AjMBkgy6kmOj4+xOHDuO48ePi/OmT5zE8eMnOJjFybBzfNV5vuIs6hM4cfIYjp9Q6ThOnDyOE1QGpRMnQunEiZM4yeXJe/z5pLh/kso5wc+dOH6077xrfuYJ2Q4q9wROHn8CJ4+fxEm6d+KkOF/4+Em+F2obt/04jh0/jmPHTnAEpZPHj3P9/NxxURe1m8qkdPwEtfcYjh+jRJ9VO49zHdyf48dwnNpHfTsm+sltoLafOBFqDwUAoXTiBD2r2i/yiHuibBonGnNOcmzEM+p51T9q51ExPtRmLvcYTlId1H5+P5RXjP8jB/ajs6sL06dPQ+bIdMTMiuZY4CpCmTLUopjgQrQlFwyLz0iMqMBbXZXI/ZMHqusXcqS+8PFggGEQJ/c2xYm3/ImCOInO10nOm0TpZIlOnPlyCeKWHJfhMEbHwJZx6klMTBw2JaH39WDX2tAzfPBl6bDnyQA/RNxeZ8NwA4e6zEH29GwB4mVlOHTwIIvL6WhQimuenS2CvaxZswb0mwLrPwTE1TME2OQXTgTC4MGDMX78ePT2kuHbBQbx6qpKFqd7pdI6nQhxAnKWqt18LQlOnIBWEioskfPgbHCRMjMdK1a3Yvd9R2E6FqLSYnH2pTfw8me+iVc+S+At0iuf/Sa2du6FpmtITk3H48fOYNrMWkTXBeE0CxBX5YfP6w/+HAHx3+fRQiLjayKuXhgLeeDAIyiuK0bOzBzk1mQjpyYbWZyy+Ht2TS5yqillI6c6h1N2TQ7495ocZFVnI5vvZYJ+D+Xlsui7fI7u8f1s5KryauiZLGRxuZRP1E9toLpEPqqD8lB7RBlcT426r9pG5VKi3+U9artMuTV5oCT6IOsJ1Sv6lVszSOaXbZH9Fe3qqyenOhPZ1ZmiP7JN3NaqbOTIRH3Kpn6Gxo/arsrN5r5Qf3KrsjmJcZL3q2hMc3mMc6ty5Tio+tWYUhnh90QfMmoykdqQipiFMXBX++HQoRGs71NGJeI76QAFYAvuTlDfYQuZFjSLbyMg/sEbzc03xo/7mZC6Qxm25VHwkzb4jBnQ9Bzo+hLoehN0352VNH215LgpvCzFhqfIbMuga+uhh4LdkIU+5VsJXSP9uSM58VSMLZ+CzNGD4Es2YKQaMNJ0+HODKJo5AcOmjoaT4EAzNLhRLuxkG1YFeRtIHS6rmNT6ENwgEb4jN49EdWM1iosnQHDiR3Cp9xIu9b6Eg48/jkcPHMCjjz7KR5YqEP6gqwL3m11vfI4s1Q8cOMChXS9dIrH8RbSwdboA8YrZFZi5qwI2uS9KCUN/c7FPnC7iR7D7Ja3/Zhdx0xIwf9Fa3L/vScQnJDInfveeR3Hhla8w931Fgvjpc3+BZU0t8Nk+5A7Kx/MXvoAJk6YhanaUcPELqTIGsp9EQPz3QDwkniWjMyUhZ2AHWre0InlmMpwlDpyFNqwZBoxKH1P79hobzlqH/QSdJhvuGpe/22vF7/YaB1aTDbrnrLE4yIBVYcNeSN/FcxSRylnbl1hXw/ccUPl2k82HOZj1FuzpFpy5Nlwqj5+hOkU+i9tC5ZLfYl+b7CYXxlQTxkgDZqUBp8kCtYuSs9bmOtjPkftBz8l611qwV1EQCBO+Qh8nPsGK6iG/yFAbqRx6xg2Vxf2lds80YRQZMCaZsOY5cJoc7g/1iceO+06fqU00Bmo8HT7T2zfagG+UIU7BCo217Bv3X9Qt6ldlOqDoX0aJCXqe2qDGRPTbhrPRgbtVia6ETilcdG41GDBnGLBXO3z0JnPnUt+qRIpENZOvNIlx+9sEIvc/+TFy2NKd3ofH1ulG3hDo+jaYViWDuE9fCp9vLXzGujsq6b410PWF0HTyB09hwzVdXwHDtwk+fZmMq17KxIvmWwVdJ/056cQpmlsiqmsXoLBwNKZMqcWuew9j155D6Nr+EBrnrkR1zXysXt+OhUs2oLBoLDJzspAwJQH2enkwTgh4SColQbzbRVJTMopqRmFC8QSUlZcKTvxiL3ovCl33iy+KUKsEzjeCcPj3m4H3h90Lf1595mAvzIlnI3dGLrLbs+F0EoiTeLx/nTiJrAXBLgl35shFICR3uouKWY149NALmFZVCzPVQOGI0Th64kW8dPnruPzZb+Gly1/FXbsOYMTksYgrjEf9nMU4/+KbSE3PhH+FCI4k1HVkezOQtRIB8Q8EcaWLJiZcGXyRAVdraxuS61NgzrcRM92PIaWJKKpIRWx5QIhXeNDJalNYxpI1Z0gkKw95oO/GFAPDZiRjdGUqksqDsOcrzk9ciYKl5OfFIMS25OJDLzd6jR9ZZbEoKElG5pRYBOh8ZsUJ8oSSYh41uUKiXxvGNBNRBS6iM104+RbMWhM2iZCImiauhX10xWRW4hyasDTJ7RUWzAIDTpKPDTaM0T7YG0gMpVyMlK6MdMUkUhPtpf7asyxY+SbcFBtulg27XIncaPEojpa2EOwAACAASURBVFaJpNVVRkrb7DDREZXtIibbgz3CgrNSjZeYwDxeXI4sT20odIIV9THbhJduwz+O6qW+Xq/TE+5IUu9NgNxjw97qwJxgIJBtI5jhwC4w4SwSi5wXGb/P8LEeyIKL5LkVRAz5rPN66fE4WpyRVwCfrwOen6yxc2EaK2Ca62GaG+6wtB6GSTpwihFP4WXr4TNWwbZbYfhWMIjrvjLoxlqY5loYBlmse9KKPREzK+Zi+PBxGDe+DE3r2tG0rgOr1m7FwsXrUVu/CPVzlmJGxWxkZQ9CekY6kqYlwt4o1pSQTklOXFp5EzFlL7eRPSNHxk5X4nQh2iaOXIGrAuIbv6vf+7ve7Dlxj+okTrwFNRSxLSsbXpkfLrmYscpAWOX3Nz9p7Yv9QuxTiuCn/c6aY2NUdTF23XsQd933GDJG5sEd5cfkqTOwbPlmrFvfgXkLV6KobDxiCxMwcsoE7Hv0FHbtPQwv3w9nI53UR+1QuDGQ/SIC4r8P4uwCpSyuw0AcBOJbkFSfgokbctDRWo5922rwaNcsNC2cAIs4460EqCLiD20klHjDJyClTZ8OkZjjYPCIRIwvysHIYWkYXpCMtCkxzNHyyyPuQR6hSN+tbgt0jrLb4SCwwkNKSTQK8hJRODgNg/MSkF2fgMAaYdXIk0uCsphsNNHEwjIaDQTTbcQEHUT5HaQkBJEyPAizwWRXEZq8dg8dEUkGHnJC82Ry+eALZ4SN2CgPlqPD8Olw/AasaSbczTJudijsph92t3C34r4TNz/EhOmacB0bAc+Fl2rDqqY8YnxoIQhChMZPJRf2JhtemY2MpGjERgcRHfCQHB9EoFhIGAi8hdsLPXM9MWB3OnyClpGtw3YM+D0HbjydT+3CXS2sankBkk9ltwWLfYupHQ6crTbsWgsxMS48x0LA72LUsDRklcaCXJaYMOP+qrYOROw1kAUZydPfJjqQ+za9S3kGPIV8JRA3jW7ExMyD7suDa6+BbW+6A9NGWPYy6Dq5ktExow0wzSYE/B2wTOK8J0M3psCw18OxN8K2ydgtEOLEB80YgbSybESPjUXS1FSkTs1ARkUuRi4sxpDGEYjPS0JyWhr8gQD8IwIILg3C5Uh6fetArWOvJ8hr2l5mCZ04+YmXlYuwq3zAyUVckgedEMj2B9L93VfBXm7Mp8Cdrhd7LzCIV7OLmQj2QkFWiImhfWcgMQiof7wfK6ZBGrzyfrvRRdKsFMyavwgHj59Hc/suDKkdASvWRlxGElLz0hFIDiA6LxbF1VPQseNBPHn6VYyZXMK4QPuOGD+XGUFy4et/vkdA/PdBnAzY2GdaWmeHXMquonVLC5IrkrC4bTQ+/+RavH2lE2+90onPnVwLf9CCu15F3ZH6khBnLAFmqwNfuoHutdOwZG4dho8YjpJx+RhVkiZATbpqCN9kIa4JbUitNkYtS0dNGZ2TOwhr1zYhIy0e+dmJ8M904fCBElSPEG8RAUDEgKAUbej5OpJS/IgKuMjNzcHYkUOQlR4L3yAfA70QQZLLlPR/5LaL8pwGG36/jcE5aZhZUcHnOyfFBeDmmbCW9p1gpQJ/9NXrsd4skOrA8xyMnzABU8rL4dgm9EQD9nrJbbOFN01GafEtx4HiZbvRBoYNSkF6ejofmDCmMBOJOX5Y9YIIYF21HGdFFTP3v8GBlW8wwVFUNAIVFZX82R9jw5pmwekgC1PyayVCyYYlg1qQSM3ZYMPKMZCWFAXXtjCkYAhqphZhUHY8jBJDGrl58NPztKg3uGzoQzGYiagJSSeYgKIgJn0iOCYAQpR2+OYXtpEo6QY/J8TCQs8rpAiiDLHpCLcfWY4ihogQktwQbQLq2evEgDIvldVHOAlpCvWJNxM1rioP90fMS7aE5d8pr2yLysfSDlVGX99D9YSVc13bwjbSUF41FuqejKylxkDl4/bQeKl5y9IYGeyFQNzcjpSUpTDMwfD7N8Dvb71D0xqYJp0RLkDcdtYjPv5ueO46+PQSWNZ0uP4WBAKt8HukLycQJ1e0RFgVLluTE/dsr7OE6xWp1tZRstj3OLY4Ft5oD3SiXEjSyMZtfRI5fic9dACOC2spBXvJxIQJ41FWWoaDjx9EL4nOWXxOuvFeqSOXn0l3zeDex6VTXqHT7gP7UBmhsq4/+SwcvNVnOniFrNMrK8UBKCpim9q3aN73B5qsopEBiaif/Iyam7R/rbSRPj0LK9e14uTTr6CtYy+mzarDqPJijCgZh8k1MzB/ZRN27jqAx468gCVr1sMc64NDrmUhtRyBuABylhpuc2GvduGsc0FhoHmPprUm15FYixLM6fc2F9ZsC/cfeYBPo/vVr36JX/3qV3dcurmfuPKoCgG6cHdat3Yt4kbHYnh5CvZtq8Xbr3bh+1c68eXnN2FQZgLcZR7rTYWxg9ocxUbPm8sWF1qMhguPLsW+e7ahtqYK86omoLQkB+ZkAQ5CFC82bhElizZhB06rjZr2odi9uQLLFlTh5Rd7UT91NIYXpCAwVuiDwzfevglBZVkwBxlISPIjMT4aU8pLUF5SjIRoP8wcH3P5BP4eRS26TkwsiAB3toPYaBcTxwzF3nvvR3R0FLJTY+Gl2bDmK26fNnfqsxQH8cL2YM6wEEhxEBsTxLr1a3D3jk5kpsTAijVh1UsLb36GniORtqiTVQmLbBiejqTEIIYNHYbCwmGYPCoPydl+WHUGLyCeyLJO7r+s11nhws41kZEYg83rVmHv3j2Ij/EQiLJgjjXhbBPiMBHxiNpOVC+BpABxI8tAYryLqICHiooKjC4sQLTfhTnREAQA1UNqhvU27BIbdrIJf5INdyo9L8GEgGS7C4cS5e8hdxbxPt3NIu44S2gkWFKIV2eNnxPZUojkwNmi2kqBZiSRxfYOLuy1ZH/giBCx7J7SJ5Hwdwe4PnJbcVocOM22TE7ICp/iwofmzQZH2jfYsMhug2wNNtnC5Y43ONmOjTacdcKWQ9XtbVIAKsGb3LtaHNibqW6bk9vswaHY3DTGKtHGtYn6YQl7ErYlceFsJAKPNklSVcm1RL+t8YTtCdlMrHEE4SxdAsVcsOFtEeE0ydLXmmvDl10A296B3JwmWPYQREVtQkxM+x2YOhAdtRm2TQefkDi9AZ5/EzKz9iEqqgU+XwlctxKxMV2IjulAVBQZt3l8NKuuJYFsdGiuCWCi90hzKQwsyOJ/kwO71WIVW7+AR6q0hRZSJyZj2LChKCwsRGtrSx+IEzj3vogXe1+UwH0RvZckh056cwnmIk8vXmSAJ3CXRAADeC8u8tGmfQCvuHF6Xn0mTv3QoSOYM2cOxowZjcSkRDgltCaE6FrsHbT3DIT7vXkeZ7WLhPHJWL6xGQ888hTue/gJdO18ENu69uLB/U/h0LEL2HnvY5g5vxHGCB9LPq8bZwLnDrHGvCV+JCxLwKDZ+chpzEGwMcD2RAzmvF/SeqKw0C4HrXFJWrs0HV6DhwePPoRz587i3LlzOHfu/G2UqL39pw8F8ZBhm/RdpsAknK7+DgvmL4BX5CJtbBQ6V01hEP/B5U589WwzKkoK4K934bQJTiW0MSqugzarNhe+0T5sW1OGysmDMWlkNh5ur0PLihKYo02hm+ENXYAhbXTMSdHG3+nCrrBQPaUAvY+tQPmEXLz1cjt2bZyJtLIY3vA56AJvypIqJkCWXKBZaiE9LxqZSUFEeRYK85JRMioHsUNow1R+0IqjUgtYTHAK2pCUHoWasmEwDRtBz8a4wnTEZNFJPoJ7p/4KSlZQhBz7l4+itOBkGoiNchAVsFFclImmxnFIzQ3CmmMKg7Buh301hb9pXznuSht2joGctBiYPh9Mw4dhg5KQGO/n2MBep1BdiLGW4EXAyYDjsSFdTWkB5kwdjqS4IMYNS0d6ZgyM0QaHOKRNStgBUJtpYdK7E4BnF5vISImBa9uwTR9mThiMCYUZiJlIuisxPk6LBd8EA8GgjYRYP9ITohEbdOGW2dLfU0SwClHKcoxICmBUGDDnJ8PZni4JHwduqw1zuAlztAVjjAljjMHzxZyfCKdH5OO+tXkwCx2YJRbMcQbno/wEWCRZUNy5RyFOiYKfZ8GqtTgKHUWi47TIgd0TFFIDmidrXJjFJo8N2TvQPPWN9PEBDO5WEo1KYm2DC6PcgG+sIfMaMEbRIQxEGET3EQTrA7AaLJhVJswqAxalCiLcXLitQtRKfbE3+GGWO/Bxf6nPpiivxILVHA1xpCkBfRBmucV1mmMMmKNFvUaJBWdjFL83end2ix92gwOzwoRZacI3wQctIR+uuwtDh26BbQ9DQkIbEhN67sC0HQlxLXDdydD0FGh6PfzBFuQXHEJ8/DYYRhkCgWokJm5HQmIX4uLJEE5x4smwZzrwttBaDAM2BnFBvBHQ0BrnNSP3ppuCXjcR2xbcLBf+YACariMlJRXPPfcCgytx008/9Qy7xj57+jQuEmgrzpqAmUXgJAYnsCduXMRHp3yXeiXYX+rFBfpd5qdnKDrbE088wS6lTz/9NJdz5swZzG5oCLVD13UY400mMkP7x0D6NECQd5v9sMbZSBmajrK6Gsxb3YRl6zehcdkKTKqajvQJWayC5TUqLfyFOF/sn8H1AWRUZmD8xAlY9P+OVn384EHce+89mDFjOpKnJMNd6YGIfiVJYzuetSacHBeVM+cgL2cIMjKzkZGVi8ysvFuayGbio6U8ZGX3n/oBcRFQhQD96tX3OV27eg0Ukze1NgWBMQ5WN4zDD17pxPcvd+Dr51uxYWEJoqbRMYqSeiUwVgZWUixqdziwpjtYWD8Kn39yPXPxb1/pYiCOGu2CQh4KTlaAk+BWJBdCuts6C6XlOfjzJ9fh+1c68P1X2vHkvfOQPj4G1koCRHpensIjJwZTePTsChtDx6Yg9//5Lg5Kj0f52FzUTxuGceWZsBcRiIeLagmkFAXuwF5uITjUQV5GArLT4xETdHHukWUYNzaDxTZKrENiY7GoabGLRHYAZNQWFbCQlRqDovx0VJcOxdKFo9nAj43q1EZBVwIUajuJgTe7CEy1MSQnCalJUUhNisaKhnGYNDobMTP8PF5MgbL4XQArc/LbbQ7GQFbpCakB5GcmYHB2AsrH5+HAzlnwZetw26gORXD19ZVczPjErKUOhuQmIikhiIKcRFRMGoSGqcNQWJnCRn4M9mts6D4dSfEBeKTrd10U5CUjdVA0SyDCQzIyCLIVrAN7lQNfoQG9ejWsnhY+rtOlc8uXW+w76htOAEVgJjwJ9PkrYXR3wm0PwOmgE8E86LoGd70fVpkFc6TJyZplwmnzw+2I5TKJ89ZMH+w5DszJNoOyb6QOo5DAOQbOtly2zLc3edAcDVqCDn2oDl8RJQN6ug96ehTMhYOEhKk9AC0+CLPY4g2QvQ1G+ng89dRo+GqHwemgNgagJcfAGEWg6xNeCUU++HJ16ClB6NOGwu2IgtsRhJ6TCF+BzVHyfJSH6h2sQ0vzQx9fALvdz9GwfEPTYOR6MAoNGEU+mEU+GAUG9Cw/9MJBcLuCcDuD0EflQMvwwzfEB2OkCX2QD1rUEPj9ezFm7HY47jAkJXUiNWUX0u6wlJpyN5KSWhEIkBsZuZjVIza2HaNGPYnk5C5Y1hTExMxCaurdSE3ZgeSE9fAxiAvrdGumA7dNSt/YR1xx5XQVkjIBeILYvymAE9gRiJNRa4aJQNCPuPh4DBkyhM/cpqNBn3vuecyfv5CPKW3d0obnXziLc+cv4NyF85wItC9S6r3APt7MpbOrGHHYwlBNcOu9fNQolUm+5u3t7XzASnFxMebOnQsC8DNnz2DegrlISklGTHQMHJKqjTWE2kDtAx8biAtihxgvd50Ds5qIfR2+MTqMyT5Ys01hxMb1CoatT0QujH4HL8zHQ/v24ac//Rn+9d/+D37+i3/Bv/0bpX/FihUrkFSSDGepK95XG7038lwy4eUEsGTxBrR13of27gfR0f0QOrr3DSh19uzD7ZQGDOIhzvyaBPH6ZFjjTMypGoGvvNDCIP7t3q0sXo8dE4BDIknmppWOSAUKodB8Dpx5DoonZuMzR9fgh1c68cMrXXisqx6DyxLZ5Yo3e9YD+lkES0AuynNhzTMxeloanntgIX5wpQskBfj8ExuQNywe9hKKcUxUnJhAbJwWAjeXxZhROQ4e767Hty+24TsvbcOF/ctRO6sQVk0fiIv6aSGLxDqgNS4yZsSgdVkJvvDURvxN7zb84HIPZkzKh1dnsziew5QqQoDaIal5uhojfWhZPRmvHlmN15/ZhC88vRHdG8thjCDpg5zw3M8+EKd67TYXUXM9lI3LwuvPbsK3Lm3Dd17uwraV5ciujGORLgMxj7eqk8aAxsyGUWGiqr4AT94zD68/sxHfvrAVvY+vhC+gi9OaJPfN1GxoIVMbXDjrHebAqc1/c3Erj9fJ3XNRWpsLe7YYa3KvI+4iGLCRnZ0Bz+8iLsZFMNERHGxIqiIlG13ULgHi5LLnjCMxvAOr2IIzy4I5TIdmaizydjtF8An/Ng92iQs9Lh766MEwavOhpWdA9/ngrZdhGgnoOjwY5Sb0FAJom9toTtBhez44yywQkUBl8png0yz4LAN6rAs9Px6a6yDgOrBnkzjVhtNJhIwLq8qGnhgFfeRQGHOLoM8sgxftMVdP4nki0LwOD1a9BS3ZhZafA3P+cBg1Y+HFRcEm2wNy4eugOSLObNbTXGjZmTAbR8GsGwUz2oNZbLCInNpGdZuLTejZJvSEBJhzx8CYMxZ6lMvgba8Wh6i4HR7sFQ70AhNaMAhj9kgYs0dDi4+BVmDBpONLiYBc5EDLLUQgsBfF43Yg4BYiObUTaem7kZ5+zx2WdiM5uQ2BAB1oQuL02YiPbcfkyeeQnn4XLHMqYmLqkZq2C6npO5GctAE+PSh14iROt1gaxDHBWT8r9h6xlml9ScMrxSj0x5V2+9n9NnNaJpYuXYaTJ5/A+fNnQxbpgwYNQlpaGjIzM5E/JB+zZ8/Bzu07OUjLvbvvFUDNunPiykmETuCtRORK3C6u99xzD3bs2MHHmZLYPjk5mQPJULCXxYsXc50XLpzjAFRHjh5ljjZ6WgzcFgJRwXCJPe/movJ+CRc5JmyURgwJATmte7rSKWVk3NwlbH9EvZJhUkwXSQJbHTTubsTOnTsxf958PsaVzlwfMXwERgwfxgfHDB40CFFpUdASSNKkQ0vQoMdq8GIDWLW2DTt2H8Tde45i156j2L3nKO7Ze+ymadfeY/g40u5+6umvHeI+tfdIv+nDQVzF/JZR20LhQa8BrS2tSKlPhlluYHrVYFw+vBo/eLUL3315G17cvxwJeUGxGUlxrgBUISoWYg8X7kYHablRePGxVfjBq934waudeHrvfEyuzmHjKKdLupSFOGFFDLggS8+CmYlsFf+DK514+3IPvvdSB4oKkuGRbpomCwOYAAs2kFPg1O0yJ/RAezW+fXEr6Pn/crIJa5aPhzmZwJT04VQXER1CTCMmtQ1ns4OEuigsrB6J773Sjrcut+PtKx1YPmsMkqqD8DZRH8M5eUlISF21WWpi+ZJxeO3YGnz3lXZ860IbDu2cDV+GDpcs76UxHnH/JE1giQJJL+gY0GUuctPj8O3eNnz/cie3++FttRhZlQpnsQx9KPvYRzjQwrRhzbUwuTYHx+9uxPdeIaKnG196ahOiYxx4RGwRWEsiiY3R+LQtSUg0u/DF6ixx+G+XuvD25W68+PgK1M0phEmbHbV1owcj28Tg7EQkxAaRkhhkQLeKLOFXTu55LH4U78Wiukjku8ph//7YEj8S4gKIinXgj7UQHe9Ai9OYuiY7BuJ+/O1+eKUOAgEHUXEB+GNdxMYG2WLfv1kE2qB8NIbmFJMNLJPSA3DjLMTEu8hMCcK/QRIRkrAi3acXZSEpwQ8vYCM64CIrOQreOsonCEHqnznLgptoIykpDl68H1HxpI6JQrBJWff7QXp3UrfYqTYSEqLhj/fDn0Dti0JgOY0xbfwikcTHzrYRlxAFN8GDl+BHIGDBnmQJf2OW3pA7owkr34co8g6ID8IfH0TQ78AeRXpzah9ttJ6IY1BkISrowh/nwR/nRyDowR5mw1ku5rDDYVeHwh+4D+PH3w3XLURqWjcyMnbfkSklZSuCQQJxMmybhYS4dpSUnGcQN8xyRMfOQgYRMGl3ITFxA3Q9CF2vgqbFs2GbNdsRaovJJoxacnlSUiphKBsyZhuA5TTNIXuZjdzKXGxcvwEXz1+4zpBt5KhRGDwoHyOLRmLQoDykpaUgMzODQT0jMxMpqSkoHD4MRcOLUDRiJMhAVaQijBgxAkUjR2L4iBHIzM7iZ4gYSE1N5Shto0aNYh380KFD+WhS5tgv9XIbiGOvq6tDzHQCcTFPFKM0UJC+eT4KXesiwMQO7YVKmurA2eyCjsclAlSsNSIgxBg760z4xuoIZHpoaqzD87vvwbN37cKOFSuQEBuDJ7q78WR3N57o6eLPxzs7cKyjHcfaKW3D9mVLERMbh/WbenDfvifx0CPPsE7+gf3P4MH9z/aTTuHB/bcy9dee/u9/KIirAG19B29INzOA4/AmNSTBrDZQXJOFJ+6ZxxzxW5c78c0LW5GYHICzSgELvRghKhGbrFwMpNtOMvHM/YvxvZc7+PneR1dg9tzhHIyExdDypbL1NG9sBK5k1GMjuyoOW5aV8XMkiicwrpicj+jZZDQkJoYQbwtfWWEZLcTTpONs3zAFb55u5ue+8vxm7GyeDt8wAlPamP3wh7mXiXCjNotcg41+TB6dx0AqwLQLXU1TkVudAIe4I978SYQmIzhJcRwBJbmT1cwpwLlHluD7r3bhe5c7cOHAUtgJphAl00bBRAsZfdGiEiBBYE6GU3HJLr50eiPeeqWdiaZn71+A0ppcWA2SM5CEi7BOl/p90reuJKInGfe31jDB9MNXu/FXzzVjREEy/Itt+DsEBU6ueUIVIQgRFudv8dhy/+GuOnzj3BbQWL9+aiOWLxgDY5KPQZN0UvZyD4EhHkzHB8sxYI0wmbjggwxCxlv0Xuj9E4hT4ByTCUGn2oZ/kQevwYHbYMGb48CZ64hDEFgHTcd3EuHnwr/IhTfbgTPbgn+Oi2CjB48AnjcKqcfc5MCjfjU6PDZUbmAuGbwoSQAZxTlwSeWzlO458GbbCMxxETXPFdw6z1lJOJKh3FIXwTl+eLNd+Ge7XJ6zVfjSc3+Iq2ghVYCDQKMHd7bLKWquC4/EfEpkSOVSUJ2VDgJzPLjU59k2/A0yqA+3UW54Wx04q2g8bM7nNFA7KUCQLQwSeVMU/XKIoOA6aQxFmS7Nx62CIBGx0wMI+IsxfvxO+Hx+OE4OXGfwHZccZxBsJxuGQSeYUbCXZJhmNmJiRsFzauDTR8I0E+HaeXDsXJh2BnTNYAAnf3FzpIOEcfGIyYiCFtThG2bAIwkOz13pScKEoBSz98OJM4gvdZBXkYdNGzeyHluJv8kCfcyYsUhLz0BWdhbi4uJgWiYM24BhGjAsH4wUHYE6P+xEF16JH8G5QQTnBeCv8uAWOnBibVieBWOoAcMxYBgGTNOE53lISkpiQE9ISMDkyZM5bjoZtylXtPr6ekRPj2HjS967eJ8V++TNAXognDrNY6WCEOoJ3tPIWp+kU2kO3AyX7TvIBoGkSmQvkjw8Bm3L5uHotja8uHcvXj94CH955CiOd3QgLTEBXzp0GG8cOoI3Dx/GG4eP4I3Dh/H64SOc3jx8BE919SAhPhHNW3Zh32OnceDxM3j08bM4cPAsDhzqL53BgUMDSf2Vc+vufyiI07Gf71/7HR9UQqL0PlAHtrRuQWpDCqxGE0OrknB/cxXevtKN78s0YnAKArTZtosNm31VmcskjkSCeo8HX56Bh7tn4esXtjAn/vmn1mPtimIYEwxeMEy5sWicFo4EKgLxFgfxdUEsqCxi9zZycSNufuWcMUipjWIuXzyrAIM2UfosOGwySFq6ZCxzxCRB+G8vbcOhnfXQiSMmlxDyEWcRsNAVq88OiTkX2cgfnIhv9bbhrctkld+FR7vrMaIyHfZimV9yteR3zUSBBGNrgYXxlVk4fjcRPTReXbhydBUyc2PhrO3j6oho4UTg122DzpamgDJRuQ5O71uM77y4FW+/2onPHluD2rphLC4n8A0tGDlmQoLgsgQhsSyIrStK+bkfvtqFr53ZgoYZhQjUuPC20GIjVxjBKYpy6DehazLHG2hdWYK/Ot2Mt6504K9fbEPr8smw2AhR5uskNxoSRTtsqEfR5kh0Ld6D4LyJS2bihkWUFqxVFnzjDJj1JGYW4OZus0HJa/PYsIv01oI4onpIbO0XxngETgSi5FPKqgjBlap3xSLzrTYcAkKZRAAJwa2LtpBlvcftdLZZvFF728TGrOaLsJGQIniqi+olvT0ltgYX53/zBk8cF4nguV1Ur2ijkAzJ+cdgLgJrcFlbqT+uAAkSNYZJYTj4BhnlUSAjWae7zQMZAQmCS8xTVqXQb20ex2jgOA1bSW2liDIXzhILRm4aAv7lmDD+blhWGmKjaxEb24jYuDsrxcTOQVR0JRx7qBSnj2VDtsGDWxAXtw6GbxI8bxRiYklX3oBg9FTofJ44nXoWA1+GCS/FhePa0HwafDkGv0sxFyShLV1QeU72A+LCxcxCbkUuNm3awKLwcBDfs+c+1M+ux5SpU7F4yVJs2dKG1U2rUTKtFFqmDockAU1+6Ik+Ph/bmikNP4sNWFNM+OI06EGdjRg1V8Ps2bOxadMmPkucDleho0+J496zZ48U4ffp0a8DcVIdSmbpowO4YEQctQcqpoQAfLqJNR1rQIe0PProAZTWlMAYbyBQ7qCneSn2t7bgzx89gG88/RRe278fj7e1oXvZMsybOhUBz8PK6mqRamqwqrYWq6tr+fuKmiqsqq5GQ0kZkhOSsLXjPjx2XqLtLQAAIABJREFU+BwOHuvF4WO9OETp+M3TweO9OHj8Uj+J8vSf+qvr47r/oSD+Pt7H7/Af4vCTkCydzwpj9wgG8aUW0iqi0bJwMoM4AROl2rIhiGsIwGshsTBtJGGgqLhNitg2xkD7uqn44qkNeOtVMozbgh2bpsM31AcSp/MmRi+fuFj2YRYibtrwvXoXZWOzWRdP+vQfXtmOneunImdmHPsSCqpSikQlqBKHbXWZMOssVNTl4/zDSwXxcbkTxNXG5fi5zXaXKX2apWic2szEh8vGXBlDYnDl+Cp895UOBuJz+5di4swcWHMktcmcph9GtxAF08Kg9lBY1ZzSBDzQVocfXNnOYu3PPrEGZZNyhXV7uwA9sTFQ2wWnx0EVNtmIGmNjT2slvimJnm9c2IrF9aPhKzE4oA4DGAO4bDfr88lNw4NbYmNl4xh85yUiALq4jK0ryxBV4sDdTBysAHGyuGVOnhezC3ubA6vKRENVIf7iyY343pUOBnLyBkiYEGRdWgjoesj1i2wY6D0pS3/RD+o/uZdRPeTOZfVYsFbbDOJk9BNu2Edub9YMG3qBJvTE62hcJLfNxJjYSOk3q4cMGQX4qXFm0b0kaoSropTMyA1FjK8kCqifPZ4oR5YdXpcijIjbtjh4j3rHgmBTIkAqg/qoCDd6F6I9qm6qT0U0pDEW9SrwZ1WK3ETJXc+Ya7BVu7OKIhYG4G33w90uTtWiPtGcsFnVIOphNQ69QxKvS8NKiq2gAi05S2yYucMQJHH62LvgusOQltKOtLS7kJZ+Z6WUtB1ITN6MqEApdC0dulaH+LgtmDjpeaRlEAEzDdExNUhJ60Za+nYkJTbB0Pp04lqKASPGgOs6cD1HgHib2EtCc539lwfCjdK6cmCROL0iF3MbG9Hc3AIKe9rS3CxSSzNmza7D9IoZWLR4CTZvbsbKFSsweeokNmCkUMdk4a15OoM4eSTong5jMHk6WOyuSxIDp9HlPATMGzZswKJFi0ABXcg1tKGhgX3DyT98c/MmbG7ezO2YOLEYsdNjWZwuGAe51vohTAYC8iR9sruJIRNrgNaD3erAGOzD0aNHmDH84Y9+iJbOZiQMjkb3usX4y6NH8F+fehpPdHehc+kSrGqYjaaFC7ChaRXqqqoRDASwdOF8TksWLsDShQuxbMEiLFkwD4sXzAX9VlNRgcSEJLR3P4QjJy7h2FOXcfypyzj25CsDTJT3ZukVHHuqnzTgum7Wppdx7Mn+04eC+FVcBQH5jX90qCYFe0lpSGa9d1SFh3kzRzB4KxDfsGAikiuDbNxGE1hweEKsRxudSuZ0CwvnjsZrx5rw/Vc7WU/8SEctAvnEzcgD6mkz7HI5LCptSrSZEsiQS1dRUSq+/FxLqO4TuxoxdEqyjCYmOVPifMKkANQeOtGpqCwVJ3fNYxAnEfHFA8swYmwK3GWSUyMwpI2TuHcF4sQlrXGQPDYKR++eje++tI1B/EvPbsbMGflsfSnaR5wnRWyTbaA+k7V3m42ocS66Vk/FD17p5rq/9OwGLGscwzHgmSNj8FQgTAtKABT5GAemWWiaOw5fPdPCFv3EyW9cOAmBScSRynENGdVRGRJAezw2MJtTV4g3n9vIUou/udSGwztmI2aEcK2jBUdjo8aXgY7GqsNh3dXIUal47dhaVj+Q5IMMA4dNTRY6LambVeB/XTmSqGAOk9pGIE6GPgSKq2z4xvpA1uT0jnle0PtqdeDL87F6wywzmHJ3mySXwO9T5iXCiIlEAaACEOme7AePP31X9yWgqjFSIlHebGieinJFG+VRlPJ9cPtDm5F8L9S3UNmiDup7iAhQvvDyHYbawXO4L7+y/yCCwV3lIqEyiJHT01Bam4f82iTYi+ldyrko3ymNn3C9FG0JSSBkH4i4IAkO2zrQmC21YeYNRzD4EMaPuwueOxxpKZ2sF77T9OJp6XcjKWULooLl0LU06Fo9EuK2oWTyeaRn7oJlT0NM7CykZdzFKTlpPXxaFHSNdOKJIBD3EYh7LicfxZDYqtYkSVTEPCGCld51aN5Kwk0RaArwaU5Q4KSkhkTkTxmM3Om5yJuRh7wZuRy3PHdGDnKmZyNnSjZypuaIWOZTspEwOgFGpo/Xn+bX2XjULDNhDDOgWRp82T6QnY3madBsHValDS1KZx16bnEucqfnIWdqLieuczrVl4OcGdlcH91PLk1G1IIgS3po7au+DQSk+8tD46L2fkVk2q0uEyaLli7ECy+cwalnn0VHeys6Vi/CX596Br0PPIhd69ajddUqLGycy+7M29q3Yf/+h5kIIbXAw/sfxv79+/m3/fsf4c+P7H8Yj+x/BHQiY9vWrYhPSELXjodx4unLePL05/Dk6c/iyWc/KH0GTz57Y/qgfH+M325s1wd//1AQvxG8w7/T2bQpDSnwNrsgfebUyXkgy3TS81J6YEs1MsqiYTcJ62We5LRJkwiKFoBM1lwTJdOzcXH/ctbxEpCf3N2InNGxHLRDcDO0SfVt4ML6m4wibAyZkIzzDy9nICVXs1ePNmH05HTYcy0EJCcpqEDFDcnNd7ONpFFBPNJRxzpeAqXPHF2NqqoCmLUWc4oMSOxrrMTwtOl6bK0dX+7H9qZp+O6L7fj+q934m5c70Fg5Au40EguL/qkANQLYaDJbzKEa4wysW1iMb53fyhb5XzvTgp4N09gNyKUAILQJy41agSIZTTFRM9vGtIl5+DLr8ru47TvXTUfW1Dh4FCUvBBaS8uVxFkSJVWNhZk0+Lj0qxous8q8cXo2YLE/41ktpxY1gwP6bmz3EZ/hx6fGV+OGVbvzo1S48e98ClNflwpojjNtE3dRPAZr9LXDa/EhXr0A8BLwEVts8VhEY2Qa0DA16AW1kSp1ChACNkegXzykFlrK/Qo1AG5Ig+piT5XskGRLvUcwpKlMBPm3IYvzDx4A3aSbi6J7UkcsyaD4wiMu20GexWYVv+BToRs0/VbcAcN7k2GZCiua3uQhMcVE1cygeba/Hqb0L0bKyBFFFHrxWWgNy7XB5oiyxlpSfP9UjxkkQUhJwCPCXWDBzhyIYeIDF6R4ZtqVsQ3r6rjvOsI36lJLSJg3bRLCXxIRtKCm5gAwG8amIja1nAoaAPClpHXTND50PQEmAL8OAHqez54OuG/Dl+lh9IghbknTIvYzev5wbCvzC1YVCSkNMB707Mka0YDdacFbYcFbQ1eFkrrDgkvHjYnHuO53PYM+xGOy0oMb5idM2ci2Ys2w+AEnP1NkQl4w4fdEazBEGzAaDRe56no/dcO3lDqwlNqwlFksQRb1Ut83ushSRjg5YcrcKxkiBOEnS+l2/A+HU5fjQGNG6EISwMBT1hnvIm5yHsvpSNC9egu88+yzO3rcX97a3o6aqGnfddTdOnHwCTz9zCqdOncbpU6fZSj0xKQlPPvMMnn7mGTxD6RSlp3HqFOU7xd/33rcHuXl5eOjAM3jm+c/h9Nkv4NSZz+PZM5/H6bN/cUOi3/48LH1Qnhuf+XR9/2gg3uzCbrAxoTSL9bNvUfjVK5144aElyBufwFbkNIFFdC2a8Eq0Kl6o1WQyYJ/au0BYqF/pwtmHFmPi1Gw+XCW0MEJiUPE8Ubh0+EdOWRweaRdATCD+9fNtKJ2Yy25KfuWyFeKGwzjTLhfmMAN3b5yB775MRmId+OJT67Fm6QT4JpngZ0NAKrkgxXE124it8WNh1Uh2MXv7tW7WM6+fV4zE6dFs3CQWAy0MWSdzmWIx06Kb1zgKf3ZyHYPhX/duw9F7GtkXmTZqNdkJXBhomNuTOtmVNnIyY/GlU5vw9ms9DOIUs35kZTqcxbSBk9hfPedwwBPixCjRucfjq7Nw5K457Fv/1uUOfOP8FiSnBODSQSr0bhQoyQXHIm5agF0efAkaTt2/EN99idwBu/HywZWYu6AI5gwlzhagyhsc97sfUWOXB3t1n05cACiVQUAppB9mtQnfVApLK4CJiRr5XkIgTm3mDUUANm+c3H4aByHSD8gNR0hV6LjEWDjr4+Gsj4OzIR725ljhlSA5dDK6U9yxvSUK9roETs76JNgbEmFvSGBdOo9XqD2SeJGWuEzUtLtw2m0R2U7p0clAShJ6Yn73RWKjfmZOjMUj7bP43f7gcjtefHw58oclCNdJ9rogICf1lARxRdBICZUgpoQ+UoCIIHjI9dLIHYpA4AHmxF2vECmpERAnl7PkxHXQdQLxSuhaAhPUxO0aST744nV2DeUTvljdIgkpnis0x8S6obEWahwxDxjMFdHFqhaxPjg/PUtzU7lTySBPYj6JPcNZZoMkAPowH3s2UDwFbwOpU1wGeHuBmAMU3pT8vFWAKH2UjxmgEPPCxCutDeX9ouYNXcXcEHNGfiYC8WMCcbEfEcEj+s5jxBI/UkvaIMZiaHUW7l6xAi/vewgrFy/Co48dwDNPnwKdhU4685deeYl948+dOYvdu+9FUnIK+8CTHzwljmh29oyMyHYGZ8++gP0H9mPkqNF44vRn8MKFL+JM7+t44cIbeOHC6zhz8cPSl3Dm4hf5/tneN/BR04fXc339H7Ueev4jgTi5JdARokVTUjjYCoVepfTGs5sxdHgSH1OqOFEFEMTNqEQUoH+wiYM7GkCW7eTzffnQajQ2joAxk/SGAgh5AvJmSc9K7medg9TKaGxZUhISp5ORWsO0QkRV07GaNHFoQdFVPMNtYe7agTHOh82rJuKvnt/MHPFXX2jB7rYK6KSP76RJLwGYn1VtJuMhB4H5HiaMyMS32EWNOOJO3LV+BgZXJAojLBZLCepWAA9xRILjo0A1MxrycWbfEq73ey934vKx1TADPnZRE8AvuELFJdKz/DuJojwNnztBAXJ6WLf97P0LMXXWYA4mIUBBgjgRAaxTlyC+wsGQymTs2jSDReJkzU91jypIZ8twt12OqwJw6rfiMrpd6IN9eGBbNRvEkdrki09vwIaVZIToE5wJbRY83mqsBwDiJE4fZ8CupzCstBnSu5JiY76KmO7cL/k+qA7m9iV40rjQfeor18+bFm1I9A4FiIvn6T4FxomCOTMfvtFjYYwZB2PMWJhlQ+GSW9m2gChLxoKnMs15OdDHUr4xMEaPgzFqHHwjR8JpomAykvChceK2k+onALfTzy401gIH1gIb9gKHT+ijU/rs+Ta73QkfWXqOQJzCRfo5PsIgspnYWo1v9m7B31zairP7lmDY6GRYyy3hjy4JlBCxJqUHan4pDkoYR/rhbRdzT1inD0MgcD/Gjt/JOvHUlA5k/Kly4nH1LIUgm4CkpI3sJ67E6SaFXV1lM+FEMSkIcNQcVF4ugkCSQMhrTRqhsv2PODyJpERCnKz2IrVGaI1KQ0ye17TXKGJUSU8or3hO7CE0x+l9hgOvXLO8Tqktoj1iDtDc7EvXEb0kMeIQpQFJeMj28VqifePj4cQVU0GGwpR4H+a9jGIXOHBrbMyvLcerDz+MJY2NHF3u/2fvvb+rOs+04X12P+eo96OCQBQhEE0CBAKEEOoSHYneQRQBqnRXbLBjjI1twAZT3A02xWl24jhxnGI7bomdZLLembxrvX/CfJP53h++mfH15bqfZx/JTgJMyGTN8pi19jo6h7PPbs99X3e97mcvPoNvf/vbeOONN3Dlyqu4cOEcnnjiMRw79pAMbclIT8ejjx7Ho48+IvPRTzx6AtweeeS4bCdOPIq+/l6kZ2bi0L2P4eKLP8Dzl9+W7YXLb+PFV358g+1H8n8vvfoObne78XEGzuF2j8P9bxPEPfGIh9dk4K6tNQJmAuTXezGpJBc+C71Y/UvlGQAqF5wsFhXaNEeYuGPHXLz/4k6pUP/+mc3oWFsBs3ygIGJgMauFKkp8u4u01gTMn63y8fQOCUybFk9GTl2i5OOVt8IFGhxTCwKVc5WFxUvH4dpj6/Cb6334+NJuPHX3QhhZhlKWfwLiWkh6woisCQvl6fvPd+Kzq70SRTi+dx7KGvKEI1kARYNJYKkrC1wZPfweDRfmtLm9fXEb0tmzvUH1bAcGRBwUeS4UyJ1hGBkGzty9BB+/rCrUrz22FgsWj4VVben8pzYexLPm9WrLfouHnLlJ2Lx0qm7L68OvrvSgpaoYyc0RqfiX42pPMn7e+jqschMda6cLeNPYogGzT4oQWdE/SElJBCRQSDcCcnriLphekBY5UU6DFJV4CXwfKD51HVSmA95+cBz1PVF2WslJOJmGSHx/nmME5oxxcDPzkZqViZzCAsSGFCI7VoBIRgrM5mJpLxTDQCtEe242IrnDkFOQL9/PLihAYlIKQmSAWxNECIL1rUCdREfWSAu258B1XHiOK6/8m60/ZrEFp8OFy3QUK9LjBokHq9LC1MoCHO1pxLnDbWhvGQ+zKDSoLkOH/3XkRClKrdipIFn8Js88EeE9mQjvSZJOB9aBmEL2cg/KyvbB94q/sjnxWwqnx0F8nwZxxZ1uGOmwa1i/op6LMqT5t45uDF6X8XWv5FMMR9E1wb4DIK50AtegAnDS6AacFHFZE2Af9CxF7hmVCn5PRan4WxLdFD2qHRsd5RQZ0GCs9KYG+j4XET2zgDUpSiezdVPXgmg5l7Uo53Ej2b3V/6PODHQDz5NGsnrP+etDarLQPG0q9mzehAsXLkjl/Pvvv4/vv/l9YZd7+OGHcc89d+PQoYM4dOgQ1q5fJ2x3Dz74EI4evR9Hjj6Ao0eP4MiRIzh65CgeOHoUR44eQefOHVLYduf9J/HCpR/j8tWf4dI1tV2+9jN8tbaf3i6I+/A2+4jVJ2PTwilfAPGW2SVIaQqrObVfAPFgkWoQLyM4VODNM5sExN99fjvu3V2npooJ8AdKXClIKi0JW3W5iCzxMLE4Jp44QZwFaoc6qjGyLkNyTUo4qPQogArIaaVyoZLAY07LCFw43C75eBoA1x9dBzc5BH+HBk0q17gnHljGzIv7iKS7+PbJ9fjkSjd+/Vo/nj2yQjxim0VagwWCwqVD+/ycwDWsOh0HN9fEz/vnz+1A+dh8hJeyQI1CrlMPWlEH0YfwrjDMkZYYPcyls83snYvbsGHZZBBkB7wxVQwo1y8KPSw5PU55mz9nzACIX+3BjmWVyKqh0aO8jfixxIonIOgIwlwH81rHCtsc7xWNjwd7WpA4ytM0udrIkfsVgOsNhJ3PcQ1B3NYgzuejFNKA4owKIAlQBYAs91YrQ03Mw3PmM5VNGwMDBlDgWTD86MGaUYqsUeMwc+NKLD11GEtOPYjZXf0C4lZzMVzhoR+4FrvCwbBps7DwwSNY8kQfWh/sxLjKWbA9etT6nvHYeq1K9GIXPXgXrueiuHgkSktLMaF0HMaXjkNuTi4sz0YowRBCG4YURbHLWiOjlQu/xUW4yEUCZ7jPchFmVElqSvR187vaWOK6plEjBWwECN3VUXz/Q0i57zV4B1o1iHsaxO9FWRnJXkYjltPzlcuHs0jvlkE87yByc/cim4VtoS+DuDKGxZsWENVr7Asgzuc+AIgC4vJdygz/T+kqro2BSFMA4pRxDeQia2rtc9aC0lF8VZ60rC35PX6HMkWjlWuPNUeBvgi6eVTIXcmDNvhkX6Y1FY+CStmx20H9f1x2+D3ZbiC3OjWlvP0bf090roC4uh8cUKI+C8NZ5GDJyirctXEjWpqa8dr1q/jwww/x9js/wvnzT+P+++9D/54+bNu+DRs3bERjQ6P00CclJwlPSWnpGBQXj8KoUdxGoHjUSIweVQyS2gwdOlRA/J6jJ/HylXdw5bX3ceW193Dlm3+77eq33sd/l+22PXHynKe2RNE8oxi/pldK7/J6D7a0VSC3PnkQJaii8WSuSIGrUjz2bAeLFpfi1UdW4ddsX3q1WzxNM4NEIgPKVClJbdVJXsUTFqS8vGS8+6Lq2WZY+/ED8zCxLg/uEp0D4iKSEI5ecNqgcNpdjK/JxfH+VgF/AuJ3Tm3E8BFpcFeT0jLwarTgiJLm8clQ5iE81MGpQ4uFQe3X1/vxxpObMW/eGFjVwQzxAGg0oGpLmVSCaTMTsHXpdMktsz3u/Rd2YEldKRLrFWGIAtJAQIL7RWrRMLwKG+vbJwt9Kg2XT1/tQe/6WfDG2YpOVIQ6UOa0stU9Y08zyWbmzBiOnz+zQ6IWn13pwze6m5FboYsQ49cY3LMBcGSP++TpeXjhweWKr/5ar1z/8CmaJpdGktxb9cxuJuQC1F2+8KKTm5xc4Ky09TZoZSQGjLr3qhhNKytRMvSAFeeAgKZ+xlwj/K5EakTZ8vyp7Lhxfw8mQXz0OMzavg9LLr6Opc98H3PuPCUgbjePgksKVW24UfE6Uy0UzZmPxRd+gKWXfoIF576NiVVzYPuOzJeXugWt2KkAxYvf5QvNqR/xMGlSGSqmTkPF1KlgO8+QgiEw0/JgFE2CkWBKcZJQUcp1KaNJ+to300B2hf5T2vK0cSTXKHUOgXcWXDPPm/ckgtDOjfAOXYY1ZQGcxjSZdU3GMHMYC9vuRXn5QTAnHsvp/UpWp98KiCensjr9APJy9iEnswOhUFjTrqbBFu50HQXic9EGrdJB2gkRj5pAH+gofj+QtUDuwvCXegiP9+HGHITIyZ9uIpRuyauVwffqMync1DpCvGw9Hlh53BpsRZbVMeRcRK8FjoYC/KAVUdIpXL+NDkKxkHBgmAV85fFDcDm8SDsJ4uToyBPXsPefAOqbyrncny+eM9kp7TkWRpTkY+vKlTKo5Z133sFvPvut5LbvP3I/urp2Y+asGRg7LoZ161LwxONRbNseQkaGhadOp+ORh1088rCDh7kdV9vxhx1w6+61kZGZgjsOP47nLr2Fl1/9KV668g5evvpjXLr6Di5d/elXarstEHe3OXC7XYQXeJg0JhefSt80w9q9OLyjFiNrMuGw0lIqZoPFrioVqSClgGiBi8qGQjx972KVq73ehxceWIGcYYlqoWkr1aUXK14hFZ0CF3pCmSMS8MrxVfgl6USvdwsl6MzaIjjNKgejBI8KXC12affgsTd5yKtMxqEOesQ9EkV48+wmzJ05Ai5pNruUgMoildCXNkK42Lf5cCZZ2LtxDt59bodU5H90aTfWLCyDNVUR1fC4iuiA160WsZwD82RVDtqaJuCjl7uk5/qDlzvRv24mUirUZDAJh+qeYPYG87rlmkno0exgbvVIfOeJDdoI6MPhzjpklyfESW54nOCYcRAnh/p8C1NmFeDK8dWqRe1qPy49tApDx6eKQaTuDc9VeyGDIhgMEeeVJOHM3YsExFl/8NzR5ZB7Ha9QV96EgOBNFIHXx4I4D3aLA3O0iWi+h/QJUQWMGtAIvgQm8WLYkrYiF9bscbBml8KqKoU1axzMWWPgcboYv0ulJPlprWhlvfDvIOzNyWNjBcRnd6xE+5m70f70Mcy98154GUkwm0ciLHnuwJAIw55qo6i6CYvPXEDb03dj6YkDmFg1G3aYIK7vM8FbIgAunP4ovK5sVWgYDaO8rBwV06ZhOrfp01E4tBBmRh6MMeUwx1rwWLQnvNIEYdVDz2tmhbCqEua6DQxJHdLVLIC8f+pZK9mih0YDxlowDKH+Z2CMnAa7ypb6EGeZ8sRZnV5evh/h8FgF4l9B2tVbAfGklCZkx/YhJ7YHmVlbBs0TJ+2qJ6krGn4Dz2DgOfBzAmAkDoKBscv+feWB09jnc2Q1ergwAtf14Ps+0tLSkJaWgdTUdBllzClipmXBWWwrkikxBCl/Kq/O3+C69td48LrY4cJzClJK9K610Sn7UUdyDRD01XqyZzkwzBBCdgimzVcy0xkyk5sG3wCQq2tQXj4NksCJ+OtfJUqk9S51Qrxol4W2qxxkTsvAqpUr8OOfvI3f/+9/wne/+zoeevAh7O7qQvnkCdiyJQEnTlh4/oUQXv9eCMcfMZGTE8J3v2vhjdctvP66iddfD6m/3zDx3TcMvP5GCE8+FcL4iak4ffYqLrzwPSlue+bFH+AZKVxj8ZoqYLvV4rO/5ntyPB7zJttf89tf3OcHtxdOd7bZQm7BWbnFJZl488wWKbiiR37h7iWYUJULZ4mtQFw8cK3kdYhXlOvqMEbMSMfDe0iAopjXrjyyFuVT8uEtcYSdSvqKKRABGHLBEiQ3uEifFMWxvmb88pVeAcR3nt2Gxrmj1fSswLrU+1GwSNghi3y3h0i5K8NMOIGNHOgsctu4ZDKcSvaFUhAIAAr8BRwEIMIyNMSpMdHWNE7y2QwtcwhL16pKAeKwDse7/XY8xC2CrwWNoyEb6ovxvTOb8KtrXaABcPrgQqSNSYC3UUUAAuIFCqwyXlTuilzDxWMzceX4KjE8mM8/cWAexlZnw19Gpc7wHpV6oEyUd0hlZLfZGFsdwxP7Fujq5168+/wOjByRAW+p6rlWBpe6Zim60gYTKUvDwzw8tKcRH72q2gk5FGXp4vGwZzP6oO5X4MXeTAl4QtLiwd3mSdQkOt5D8qiw8Kkr74PXbcmzohJzVsbgTBqGaMFwpI8ai4xRpUgbXgozJx9mw3D4nUkC9uq6FbiKQmIVfL9KcdAQMmfREx+P2Rvb0f7Yfiw7+QDqDt4LLzMRZvMoNaWMM87Zl97hwymzMKK6HktPn0TbiT4seaALE6uqYYdJf6quWXL0JLJY5yI024ZVFYHT5sByHJQJiFcIgFdOn4HCwkKYWWFYs9PhrFaFd7KWRdn5iGrFKgQ/gRGiFaFcG9cQKV5ZLCRFVANKXAxH5jg32rD2HIJRXCoUxjRIWZ1uSosZPfF98ATE+//HhtOTUpuQnbsPsZy9agCKkL2oPnHxxHdwDZEsR0XW+IzEmJK5CkoW1VrnGtBGYlzuuK/aXFLmFvpwXAcJCVHk5saQG8uVgSdp6Rmw2MJmmaIn5XmKvqEcK6PU3+nLAB2X3BkTVXsYaY4lLN2vuQz4zDuV00ICoHgxHUmM6l1YSYqCNTGaiIRIooC4u1Gds5LbAU9ZrlM9GaPPAAAgAElEQVQiAn89eAeyL149O4t6PdXxEzdGGSGwMWvhTDz55Cm8/8F7+P3//r20jO3ftw+zZ5dh564IvvlNH7/6VQp+9WkyPvokigvnw8jLN/HRR3yfjI8/5paIjz/h+0R8+EkUH32ciJdeTEB+QSL69hzB6aev4+lnvoNzz7yOp5/5rvzN92rjZ1/czl78Lm5l+/J+X35/K7/B73x5v//8++/eHoiLAia4rnAwtCwN5+9ZKtSrzE2/cXojKmYMgd3KRaUWtBIEFXaSynMq/h1hpIyP4O7tdbrNrE/ar+Y1j4Vdw0pxWogKlCQXHvwWFdlmHykzI+hcMR1s1frN1V7hYV/ePBGRWR7iFJrcRwOy5A619UqveeWiifj5c9sFEN97YQfu6ZwLt8RWc7BFiQbgxPCTYm7jZCt/sYupZfn4/tlNEnlg9OHu7bUomp0mQz3iwhEoYg2GBBZnnoPK+qF47ugyIXxhSJxT2NILtCcaVwbKK5bfEtKcsFBrJsZ8PH+0Hb++qjjnnznSjprW4XCbyBAXgPhABEApFPJwuyiqzZBKeoJ/UFjHee7k++boUXV/FIjL/Y4bMr6MvDywvRo/fU6Rzfzg7GZ0rp8BaxJTH0xfUDHwnFVeLxDmP/eqnqnyIDkpLTzFQ3S4Hooiz5i/M6BorNYR8ItGYljZeMzYuBQzNy9CxcolSErPgDlpEvwt6RrEB+4Z77UYNME19NMTH4eskvGYtWU7lj55Dm1nX8TcOx+Fn5ECq3k03L7xsKaFYU3Phbu4Eta4IhTNnoMlJ59C+5Nnsfj445hQPx9OzlB4G8mQRoWurttZ6iLEkGVuCE67I4p7UvkkVEyvwLTp0zF9eiUKC4fCjrEi31bRIW3YibEojHb6nvTnwNk3G/b+BdrzSoB1YB2sg1vg7hkGd89Y2PuXwtk7W63LvgLYB7fA3r8Rfn8KvD1TYS/IlGdOI0iq0xlOT7gH5WUE8THIzflqDkC5FU9cwum5B5Ab24fMjE0IGQma7CVTCtt8AXHt1epUxkBEJNBJytsWr1nWPXUFAVg9Q649jr8NF4bhOI6M6M1Iz4BsGRlITk6BGTJhhkJwFwWGsP5tkvXs8IW50E1z4YU9JCRFERkbhb+cnRE6IsnWxXYH1hRTZgNQxwYGBNeUXevASXIln8yJZowEGEZIRYAGGd6B4a9A/Oby++dk+k8+431gVTpprJn/pyEkRooPa7eF9kfa8JN33sFnn32K937xHh44egRVVTOxe1c6fvrTDPz+99n4x3/Mwa9/nY4PPkjE2TNhxPJCeP8XCfjgw6je+LfePojigw8ieO7ZCJJTEtGxfT+eeOoKzlz4Fs6c+xae4nZ+8PZtPHX+v2ZTBDMkmfmv324rnO5vU4uVHkjujGTctXWumg1+vQcfvrwLNTOGw29gsY4KA0poKMglaS+CrTbOGBvda6vw4aUuAcQfPr0V29ZOl0k2Ur3L/FDgEXKRSpFPGN4OH4lNYTTPGo33XuzEb6/1S7HYjhWVyKlOgr+FrUuBUOnFHf+dMKw5NprnjcZrJ9YJmLJC/fx9SyR/5dEbIwAzTCrHD0BcHT+yIYycWAK+e3oDOFCEbVcn9s3H5Pp8lY/vdxEVY4GAqKz4wJCggi+ty5EIwm/0OX/8Spf0gPsr2BMeCCJDadoiH2SIhHJMPHZwPj65xClqvXjtxFosb58gw0TEO2AYXBTJIEDj/lt85DQkY+38cmUwyfS4PiyaW4r05qikCQIFwN9hxEJtPB9POO03r66Iz4AnTe7h7gZhVxswNAhot6YERMkt8+BMdxAZ6iFhpD+o4lsZEkoheiCIJ4wqwcQFi9B+8SLanz2LhY+fRk4sT9rEvC1pEr5Ua0zd84FrYQuXMuSksK1kHGZ1dGHpUy9h6dlXUHPwOKIZ6bCbx8DZsxhOdipC5Y0wVx5BaGITimZWY/FjZ9F25kUsfPQsxtcvgBMbDm8D28O0sUEw3+jB4dSrEaawAvoRHwrEp8nwCQ6gGDp0GJyYC7bVyTrmecn90gVJXCs9HD87AaHOvTC23SM0wVZ9FEb3RRiL9sJsGwpr80KEdp6AuWm9sBfarSUwup6H0doJvysVfl8O/L5EOT8qTm+5C2vYaAHxMobTI2NUYVvuV2+K2a2AeEpqi0Qh2CeemblJTTETxrZMsMVMiJduMaSsQtqBzGpZ18a0u9aHN8JXw0wsS4A8TCY434fneTAdEwypewu1nEtLYATetrBwoTsZNpITUwTwk5ITkZiYAG+ML62K7BF3ax24xS4iSWF4c5gG0AyTGjCZTnFdTtbLQE5ODBlZ6XI8phMHZEVFcygvSldR396+J66MHmIEZYQ6gTKodJLda2PZyWX48IMP8ft//D2uv3YdmzauQ2VlCn7yk3z8n/9TiN/8NhM/ezcRb73l43tv2Dj+sImcmIEfvBnCD38UbKb8/aMfmvjRWyZ++FYIZ54KISMzSRjbCOJkZDt97jpOn3sNT57/5t9lY4/6bW9y3jz3b91wuz0QJzc6LcYtLjLqErF+fpkUp7FIjODS3jAOqXURhDUTGRdNoFj5YLlgWHDFgSdrl5XjzadJCdqDd5/vxJHeRthDLfEOFfipRSALj+QB9MR3+4i0+ygZlo2fP79DgIkeJr364rlZwoqkvq96ngUQBMSVxWzPczCjaSievmcpfnO9H5+92oc3ntyIaCoVsvKuxHLUIK4ARS/0nb4wJV0+vkqKywjizBHXzxsFp0G1x6kRfEFhm7bO6Ymvc1BYl4a+9bMGgWkPpo7LlylaLGwSz4z54DiIayu/35Mc8v4d1fjJRUU5+/b5bdi1YQasCaYurtHHYuSAoT6pQqUX7yOxOYzaaSPVsBp649d70blyOvLqkuGvZ/45yGsr4FYCqADQqbExb8EYXD62Wir6OY719J0L4eezhkAdU0LLki65iRKgkdDpw5pqw8qz4Bc6iEz14EqVPHPh+j7TYGOeNwDxRcvQ9vxVtD13GQuefAnZsTyYkybCWZMNb2syvK0p8Lemwt+aJn/H32vvKFQ5FsmjJmBMQwumb9yMaRs7MG5eG/z0ZDjLiuD0z4A/NhXm0g6EdtyHUHkVssdMQMXG7fL9KatWY0hxKUxX5cSVohqI9PhbXbjNtjCkEcTLJpeJFz5t2nRwI4jbMVe8PRYzsdVGqvKl/kApOPaf21vmwFh3HMbiPhgpBgzfgbHpcRjpuTBKTYQWr0Jo8R0wq6tgTkqHMXkejHXHYIQtOJ1j4OxfBq+/SO6dAnFF9sLCtrLygwhLYdtXk3b17wnipF7lNjiyFHjsQcjbrnFgjjJhjhzYrJEmZCt15JXsbaIb93DAU1goVO1MC0lJCRJ+Zwg+OSUFkagPO8+GNdmGPcGFk+IKsNPDjiRE4df5igddD3FyqhwN4pxmlousrAwF4pxHIJEqld8fMCiV3P8tQJzXr3L4WncFjgV1/iQHc+bU4OzZM3jxxRexb99+TJkyAWeeKsA//MNQfPhBKr79HVfy4efPGzh90kDHFgNZWQauvGrgoWMGHvzGoO1BAw9y+4aBri4DmZmJ6N5zHx4//aqE1E89fR2ynbuOU3+nTRkONB7+/KbO4zWcOvcXtqdfw6lb2G4PxLUnzorrpHkRzJ1SJLllgjj7xTtXVCK/LgXuJkcKf2ixSvWwFGYohUVgtGtstCwsweVjKyWs/fHl3XjmaDvsNEvIVQIQF2CThae8YslTbwwjOdHDD89vk/AwQ+qcmz21sQCkdVXGgs4bchENCq0Kh3p9DEeF9U0xoL33XCcKYykIk0OdRU463Bm80qKksJGJi9SHJw7Owwfscb/Wi++c2oDlbRNhV1qaAU2HkGiFSvRAKXt3m4v0uihWtZaBle2/vd4jW1v9eKQ2RoUoJDheAGYKTJX1bE03sW7FFLx+iqH8fnx0uQv37qyDM8LSc6sVoMoxGeoNCuOYW55nY0JJDj6+1IVP+Zyu9+BITxOGz8kAaRj5PMRYibdqqevlNbNtauqcAjF6WNhGg4spgYJidiGoa2P/K6vUb6YEeD3kTrdmm7AbbDjLXTgbmOclW5qtvNTgWRPEW4YjcdRolC2qxrILfWg/24P5TxxBloD4JJizR8KePQR2dQGc6iFwqwvhVBfCrR4CZ04+wquj8LYnwqorhjllDMwRaQjlhPRmwWSrnH62NO7M5XNhLxgBc4wLI8Me+G4sBDNmycZrZoSIBTtB8Z08py4X/jIbkWgYZWUTBbynT6vEdIJ4YaGE09kfz9C7U+0gzAE1gYKjp0IQ3z0fRs/LMDbdK7SzRqEPo/95GDkFsGaYMLfuhNG+F2ZNKezllTB6X4HRc05aEM2+/TDuuiLhdr8/R56Ft9yDPawECQn3qcI2oV39GsRv3xMPvFglJ9LiF0+RECA1SIoDo/uyJecceL1aN+kIIXPbbq0LJ8NFJBJBbm4uYrkxxLJzkJKWCifTgV2jOjkI4EnJycjOzkRCQgLSGE2icblMRyupW2c5EspPTk5GRkYGUlJSdGGbMpTFcJCCUHU+sn5FX9xchm8q4yK/yhlSv8vfVIV61iQLw4YloqV5BFpbSjF9Wj6KR2fjn34/Gj/7eTJeuWzhiZMGDh4y0NlrYPEWA3kTQkjNCGHf6RCGVRuITTcQqxy8heR95gQDqRmJ6O4/jMdOvSL86SfPXsfJs9dw8um/03b2Gk7dZDt55hpOnrl+g43/f/PfuS0QD2/jgw9LLibS7mFUYTo+46xrITHpxn07G1BSnw1nheJQF89bKm917lV75hxmMr2pEKfvWCjFbTQAvn1qI6JJDujZKCtxwAAYAHUOl/fgpFm4fHw1fnm5W9rcLn1jBepbR8GpD9rMNBgLQAXC44u3XVCTgr61sySczsK6X7ywE9VlRUjkrOeduvAoDuQDgMYWNKvUQW/HbPz4gppLzh73zjXTZDqbGBxxr1aHkoKQOI2DOhf1M0cI4QqBlIZPz5pZkgZgm5Uset4fyamrqIUCdA9Og43G5tF45fia+PjXR/fOR9oohuEoNDq0JwYLf0M9Jz4rt83F6InZ+PZjG+SYBOJnji7D2BkxOEsHJphxH+VVE5zV+TjrXAybnIJH+lslfcDn/OojqzFtRqHM/yZxhAKjmysA/mZ8illLkA/k/Vb3XPX2a4OABoR44qMxcXE12i/eg6UnnsD8h59EVl4+zEnlcHLykZiZjdRYAVLzhiA1NxcpsRykxLKRmpONcGoW7Poi+DuS1ZrVxpy6N1rpcYhMjy9pFnuaDafChl1hw53HXm1+R3sU3FeKHLVS0oaPGF6897vDcNsd0BOfMHECJpdNweSyyZhSPhlDCgpgxxwZvRgqMmDPtBUtK3+D95yV591h2DvmINR5P8wDHfp8E2HuuwvGmCx4qx24+5fDPHQv7P3NcHsmwth5BOa+/fKsrEP7Yd75FEJ3XYWzbwnC/UkSTh8A8YMSTs+J/c/uE1c95bcXTg8MvyD1JLpKry0+T5Fjnf5T3w0MtoHXwHCmfNutNpw8FwmRqEzsysnOlCK49NQ0WIk23BZLOCHsRBvJyUmIxbKlWC4nJwd+JAwjGoK7OtAbPkjzzGp0huy58W9uwlCo9QSdKxVNULKuCINuLsM3B/FAX1Iv8F7QYFGGDEF8/foQPv00F+/+fAoefzwNNbXJ+MlPUnDpkoljxwx07jQwtsKAMSUEa5cFq9MSMi77vA37vAX7ogXrGQvWBQvORVs2+ezeEKKxRPTsO4pHTr6Mx558FY9xKtlTVyRHzhD7f/V2K9PH1FS1G01Lu7X/+xuAOAGSRVMOMnIi+NmznfjsiqIi5QCHqfVDZO64LGgNSAMECYqogrSGo2uycGR3g3h3BAcyt5WOzkF4uQevWwGT6gHWi1+HatztHtwRNh7sbxQAZlibOfX2BRNhTf9ydbi2erXxwLB1YpWH1fOYBlBkMR+9tAsbFk5FSk1UDAgKFhW9qhYPhIN5/jCc2TbaF43H60+SqKZPzv2OjjnwRtvgOM240IpQMwoQ7O9LnnPa1CF4+8JW8YaZfjixdz4KK9JkQAEt+kAhCDhIiFr11nvLPIyviOHC4TZNV8tRqm0oqciGs3LQNWtgGBAgH95KF8OmpePUoYXgXPHfXu/GW093YPLkAjitutgqKOALIia0nsnZvMtHZLSDu3eoIkT2uL9+agOWLBgPZzarUHmveJ23pgDcNb6eJx4YW6q1TRkrgYej7j/D6dGRxZiwoA5LLpzAogsvY8FjF5GZmwd71ERE0rJQtb1b+r6XPv8DtD/7ItqffxrLzhzDwkfvRyQjB27DMPg7k8V7HsjXKeXC+gpzmgXmGc1UC5FIGAmJiQiHI3BzHLj16r5KZ4NeP0EIVTzxwNDjPWdqoc1HyLaRkBhFInOZycniNYUjETgxB84MG/ZcTS2sU0tiEOtoAJWdePfyLDQYyHG5hgYAQEKWXKOSOlHtR9bBfTAPPYnQHa/C2bcY4f7EL4H4AQmn55Ds5euc+O3lxLWhroxe7WhIe6l2HLQsxQ1rPl95fqpoLl5zEpD39HoyjyAxIQHDWD/hOFKMRgAmOJujLITMEJISEpGbExMvPTMnG2kpqTBChkpHSSqKRqEnzJT8jcSkRCQmJSAhMQIOdXF15IzRTJEF0S86ZSlr+dZk+EZALmtTGzRyzVqHMUJIEN+7xwQ+H4rf/rYKmzZHceiOVFy+bODREwY6Ow0UlRowNhgwXjZgvPrHSW1HDRgxA8YbBozvGzDeNBB6U//9PQMGN35+zkBSRSoeOX0JJ05fxqOnL+HRU5dwQrbLOHHqv8f26MlLuJXtZud7myA+0MPrbXCQOiKCZ+9fho/pEV/rwzcf34C5DSNh11uaXYihXSog5WFxYTNn4nKqWGUC+tdVSe8z9/3RhW1omVOCcKMnE7zku1JsNQDiBEWv04MzxUHnmkphL+O+n15RIzqtCTxuEELXyi+wjqkQGV6e7aC1dgzef2m3RBA+ubwbd22rR9rUqFRwUpkOBnGer3zW7YtxMmPWMFw7sS4O4g/1NmHIFE5hCzzi4Ph8HQBxDiSZNDMXLz24XDHGXSVv/DoMn5ABt31QqIsCKUKlfofeMaMPmcWJePzAAgFxRi5eemgl5jQMh8OqZwmH8TwHRQA0AHCUat7sFOzbUC1GB2eLk351ztQieHWOSiEEikcEUJ2z9EHv8WGNs7B7/Qy89+JO4X5/+1wHujbOgjGB3N7BPb4VBUB+ajUAxWpWA0dUyI3PVwGrikYoALNahyM6cjTG1tai5e570br/MOq77hSOZGvUJETSs1G1fT3aLr6CtnMX0PbYHiw99QDan/0mFp4+jHBmDqyGYfA6CeJBZILpDtZshIV73kg3xAiy0kxw5GFObgxp6SkID3HhNHHtct2q56/WxSAPIwBx+W1ytPsIFVgw8y1YBTY4kc0eYsEqslT7I2k9d9OIZZRKK0+p8A+MvwC4B73Gn4eSAfV8qYSDyECwvlIR6csGQ+l+vzJavg6n7/7iFLO/UWFb4IkrJ2Xw2qW8qlocFbXhc+SmPhfdpcFeuhuk55zrUk0Vc+s9ZGZmYsGC+TDNEPy1LuxqS+oj0tJTkZ6RhuSkZORkM1eeDDMaQmQLOcnVcQLZ5/Q6Z4otOtKZ6sCp8OC2esrJkDUbyOpgAOffwed//euA7lXGvaSe2IHBAVSDQPyjD2ehvsHDww9HcOasgX37DAwvM2BtMmA8rLftfwTnfEM88dB5A6HqPwL2dLWFKg0YM/4I6nzlZxMMRLMTsavnMI4+fBEPPfY8HnrsBTx04gUc+2+1PY9jJ/7y9tCjz+NWttsCcXe7IzOL+XDIYpZcFsbhHfX46OVuAbX3XtqNhQ2lsGeYUmXNhStV5sFiDorbehy4k01sXDwFn17hIJQ+/Py5TmxfWQl/uieFGlzoygsavMB8IWVx6hzMrxuLN89uFiAmcxtHdGZMTZQ+ZBEeHdLijGUlTFR4PpwGF9W1w/GtkxvknH95pRsX7mtD5ugEeOuUpySLUQ+SEBCn4dHnwFnvYmhJmhqlSra6q704c+ciTJ6jKtSpoAcKOwaEhMclg9ao6kx8o4f98Yog54OXdmHMqGwJTfMcXfHKFHgrJcECmij8bg92kYUj3Y345JUuqT947eQ6rGqfCM4b5j3m98WTE/Cm1a9nS3f4yGxIxKqmSXKvGPVgFGFZ43ik1jIcr8GfFrpcM49PYFEATW911bKJ0kL4m2t9eO+FnTi2pxXGEMUYJ8rjFnLivDfOGk+mNIWGhsQyFwpSbbnzGqTPXis6grg5qhR+biGScmJIzokhMSsXVkIyzBkliORkYvaODWi/+Craz13A8id7sOLZ3Vj5/F4sfHITIpnZsAXEU5SCCgrn+Ps7PITq1YxmZ4ULO52MT5lSUEQwJ1kH6zacDYxUKNCUaEFgIDIM2hhGKM9FKDsEM9uEme3AGDIKxqhxcNoT4W1yJH3DSWXuDrWW+VsiE4N/U575QGtTPJpDmYkbCpF45wANUXo2iseAYK42Tp5T61wZgd7yrwvbvjCK9G8E4mzDtJtsWJWM1GhZFe+c4KfvvRj+Ko0XlyX9PMVBoDMiukKnkxhyXufDm+ghNTcN3pqwdPhQ39rtNpyRLlLTUpGRmSZtjFamLSDPdeDoVk8amVIUu4spSQ9+hwd/mwd/qw93JweSDKwn6glV06EdhluQ31sBedFzwpXB+xKsdR8Rposm2tizN4T/QAHe+el0jBtv4dw5Cw8fD6Gy0kC01oDRYcCoDcEYGoJRHII53oZb78DlSNcWjmV1hCzKaXZgNlswWyyQ9po1I5HEBHRsP4B7jp7BkW+cx9GHLuDosb/fduSh87iV7UbndOShC7iV7W8A4iqP6m8PI7k6jA0LJ0u7F3OtpPVcv7AcCTM8+DsHlJ/kFrVnSEVGghFzhoklrePx4/NbZTrXhy914Ru9LQiXqAWoGL6Ux6F6DulFMayt5vBOGpePb51eh08JStf6ZJxj8exsYQYSYSIoCfGHzs9rAePs8cm1+Th7z2LJEXM62A/Ob0ZOQdLA9KI4mKrFKABD0hiOlYw5OMf+eKYQrvaB+fiW+cVw61wFQoH3TUWrwZWCTI+4oDYNu1dPU6Qt+rxnlw9HYmtUvDRGLKT6X7w1Gh9UzGyXCsMqNdG7eRZ+elExxr11YQv6O6pgjSWIKwWilDj3o9GhyEFIHpG8IAGzy4ZLJ0EA4l2rZ6CgLgUOSU5ECdEQGBC+AGysWguNC4rx0oMr5Dn96kovXvzGShiJoYGpXregBKi03J0ezJocGEV58GMpSJ6gev8FKPdE4O1RM9ipALyONDgrM+AsTZB58YxkOAs9mEs8hBpGwslIxsjJU1DethblS1egvLUGkxdWY8qCKoxrngInIQFW/TC4nSnao1YernixjKp02HAWutLi5mTQC8pALDdXWnMihVHYE2yERhlw6pi/154w1xCNgI2ZcCekI6d0PCav24ApK9dgSvtqxMpnwxozXUaeBrl+iTzxeWqwZoRDNr0emZ/kvQ5YDtWzHGQAisJVZC+u7lwQ5jAdYVITo6iU2f6mr5HRm6DFLHoPysq+bjH7W7WYOWscDG0sxMRZE5E0LVmlDrWuiYO4pMYGDGGuZ/6fALp+7tYaE85WpUsFUHf7AlakO1bPMapY/LodIRJyR3tw2aKWbcq8cMpMpDcCm4WhmreA+lF0ZHwd8LhRWH3snlGArQx9Jeuin8Sg/Ou978HgzmMIaVGgP3k+vPaeMKyJDvbsNfFvyMebb0/FsGEGnnvOwD33GMjNNWA2GjDmhmBVOjIb3V5uwV3vyiwOTs/k5m331EYGzW0u7O2OvOeYVj8hjPkL12DPgWM4eNcJ3HHXYzjE7e6/z3bw7hO4pe2ex3DwL2wH7j6BW9luC8T97Qwx6kKkXWEkLPAxe2oRfkIyEFYvX+1B/9pZEr51N3HyDheLXswaxEWZ0SOuc1DbNEpoU+lJf3KpGy8fW4VIjG1HymuOKz690MQ7JBvQVh9p2WFcf1yFtUlicvrOxZjeOBTOAh2ulH24iFTeVVmGYennLa7Lwn27mOdlVX0f6I2XjMhCuM0VYIorbQ1uclw5/zDMQgsP9jeBXjS5zF8/uRHrV06GxfyqPpYyIpS3pEKfPrwOHxlNSWhrGKeY6jRb3bKmSchsSobXoUNx2roXgddhbhoxnHa1enkZvv3EBvGoP3hpJ47vbUYon21mXxRK5UXre9jjI9zuY2RhhhDj0AunR/1AdyPG1uXAlbnk2qOTnLgucJNqdQ8czcg6h5OHFgqI02BiFCMjOyrRGBXO4/FvrAjk/tOA25wOa94Q+GOykaT7xKmQlIeivAXJsQ8isQmUDZ8LmejcTZmwSoYhMnwCkksrkVw6DUklZUgumYykknIkjJ6IUO5wOCuz4HXrcaNx71dHh3ifSYqyzpOuiIzMdMTycpGekYFwagRmdgJCOTGEhoQGQFwDsbsqF97YHIyqqcWiU09j0RPn0HrsFEbMaoQzdjp8zi4XGlUVzZBrE8WqQp+BQlXKepCxG0QlAqOKx5McZrCfNiaC34rLVvD/NDKUIpdwelEJEhPuFbIX0q7mkjv9fyjt6q2DuDKEuNbEuNT3mnUQlGvKcWZzFvJL8uGP5mS+IFqj/l8iNpQ5MeIHG/IsYvTgNHqwyyzYIyy4HIazXRmGCny5XgJ9OSATJGWSiBF7xBep56uiMQPPXWYl0FudYEmhLXPQnE2gZIf78HoG/zblVRvtcm03ll9l6Kt9AmNl4FXpWZ47daBa1zw3rZd6w7Am0RM38f/9WwFef2MqsrMMbNpkYO9eA+ktBoxJBqy5lox2Zn2R/I4YPPo3Ar0oz4NywHtFPGJkzYdX6yN/zDCMnzkNja0LMX9hO+YvXIYFf6eNx5q/6DY3/sYtbLcF4mEuuFbNIM0AACAASURBVGD0IRmEVvkoyE3B2+e3gm1iPzq3BYc761HWVCBgqb4bCIV+FW8mLGQHUxoK8Oj++fjFizvlNy7e14609IiiwCRhjCjNQdalXuDhLh+hdAPPHl2BX77KcHwPLh1bidZFYxTtZLA4+x1EpaeT4MAFG4G7wUN+XSo6l1eq3PT1XgGn2mkjkMwK9U6teGXRKwWrmMS4cDjAw0L35hn44dNbpDf+5892Yu/WaphjzAGPVodug1AnFbH0uLeGMWPi0EEg3oOe9VUYUp8OkkSIoBGQCWD6PqmwaRh2g4P6llF44YHlEnn4jGmAw0uQmMecmlYErDodzJQk3povEYbsggS8dbZDjBYW1V24fymm1RZCaCIpGHpEZrxCnf2rBKLVLkbMysB9nfVyvdz3e09tQdmEfHhLHdXXfytKgCCvwcnZnAdvSj6iw5UnLM+Zz1aMkRspE60oaQS25cGeNxR2q9qs1kJY84bKJp/PGwp/d2LcOFDKLAA5viqyG3etB8mJZ2QIiKelp8PPZT97slS32zOUFyPAKwrEg7s6F15pDkoaarDswpNYevosFhx/HCNmNcAZMw3exlQV/v7CNSmlpta0uo4BEI9Iv35gyNB7CpSmrCG9FtS+KjolnzMqQCUmKQilqAMFShB3pMXsXuWJC+3q14VtN2wx0+szqDwXQJZnzkiH0gWUUXeNB6uWkZygUDEwwJWOI8Aq0A/28YXW2a5zYOc6QtTiOg6sXEu8Tn8nnx2H33gSHrZnWvBEppUsxIf8yDrQsi4pFc3z0B+GPc9DKGYJyYzrObBsUybnObU2ErqV7H3BuNcGaQC8NzPC4+sxAFOeS3wjiCvnbiDKxDWuZVlA3MLevSH8+78NwW8+nYnOHREsXmSgr99A6lwDoaKQJs2iHuBv30gP8P/U8eMy1BUGo4acT1A/vw6H77sPp598Ek9+BbfbAnGxGvXNZbW2v8mHH7Wwd0M17txai92rq7CscRLGzM2Bt0JZSYFSCV7FM2bYZaWLglkpWDh3LPZsnIPudXOwct4UFOamIdoWlkU/YG3ywQ6y8Hp8GH986Ef7WvDu87vEs3zzzGasX1GuBpKIR0PQ1lEDWbAUKI5K9ZFSF8WS2vHxliu2fK1bUI6shkTJJYmFqhe5smApnEpAyYi0bOkEfPOxtQLGn7zajW/0NcMrUv2/qvqTxx50ztrDcha7GD0qC+++sEPy2gxtH9/TgpI52fCWqeI2dTwuUqUAAkOALUwTZ+fi1MFFQlTDAjX22Y8sSZchIiploc4zDsRyDi689S7SxyTg3F1t+NVlZbS8/uRGzK0dIRGR+DHj3q86d/md7b4U/fWumSWRFkZN3jq/DYsaSuHV2vB3B97GLQgdPelVibBmZ8ErykTiSB/eGp6zojO9GYgrQyzw1ge9akUbgFwg4HIP41EKKjLeU/ZlezI9zal2hc/cSXeRmZGJvNw8KXCL0MNawbGRaQizIE0/e2X5cx+CeAwljbOw7Px9WPbYQSx+aA+KZtXBmVkMZ0MGvJ2p8Halwt+u+PG9TWF4u9Lh7cqVV39XOtwt5F/34G5JgLctEf5GD/5Gtjqmw9uZBndXGlz+zs40vfE309T+8lmq/L+zMxVOTwb83qQBL2iZB3so+8TvlVGk4fDXjG03bTHT659GkbvLlYJTFp1KCyjXuURFuI649pSMBHJKXSXrJA5swZAcVYNBr9tICkkXBFnUPNeFmWeqwU1cY9tYpa4mn5lWCFa1hYAKNtCdSgfq43Ity/koXUNyGRl04ikyGBoJhmnASAshoomZlJHI/Xmuyinhb6oI4s3kNzAEtHOlr1NFW9W1i9ETEGUNNsgHgTg+L8S//ssc/OIXmTh82MCevQZSUw3YE0w10TB+/258PryGwICN68g+F061jc1dm/G7f/gd8Dm+kv9uE8RVaFotXAWIZoYBxyPVHwn/I/A8F/ZwS3JyceWnQ3xKuSowZsg8OtVDQsSFbduIRhOQkJSEgqwURBqYA3FkVrIsNlkQtG6VIuYMZrPMQuc6esTbBMR/8eIu9G6sglVKzykIwQT5R01NyFxVtwe/0UVVRRE+eqULv36tG59e78ahjjkYMjtFogDxBS7KeyAiQEvWaXVRVVuEF8UjViQ3p+9chOySJPgd2kuigNBiFdDQYCxTuRwUTcjAq+z3FpY75tRXonxmvpp+JB48F6/Kg8fvHwVts4O8ySl4YHczyFJH8pVvPbEOc6qGw2tRVebK0taLW4we5sddeFt8pFaEcWBzjSpCvNaLX7y8Gwvrx8qENTHIeG8Dw0GH3eR9bxh2uY31Sybjo8uqov+d57ahe/1MeGW2KJqbW828hxEpsrEnJyGUFYYbs5FQrma1M++vDI9B1vufscSlWnwQWxZBWa5ZCG6CaMugV3l+gcegngcFnuE6TpEyWUG+woWT7imu6cwspCSnws/3FS+9XnfxELWuM7BX58ItzcXohnq0P/ME2s/di4Wn7kR28xq4tcmwa9Nh12XDrs+BPStJKnOtcg9WXQ6s+lGw+Hl9DPb0MMwJNqzpibCrEmGXW7DLPbVffTbM+izYddxy9O+x9z0HdkMMbkMOnPps+dyqz4a1MA/uikz4nZzJ7sNd5iE0dAyi0cMom8x54mORk9ONvLyDX7mQ+t+KsU3JPR0IX7xspqq4WRNNCN+/Bk3KhVp3gWNBT5pAxvdK3gXQCEhSQ+HCGk2QDSESjiA5KRFuvgvmcsWw3ObDrXZgJyi+9UjYR8g0hB8gkGk5psg0j6GmmSkA5bn4sGZYMJIMaVHz/TAsy0LIM2COt4R3Xa6N5yMgG8jZwCzym8owZU1khwauC3epq3Q889Uih/q6bwriQ/Gvf5iLTz7JxLPPGti/X4E450vIJEnRgcH5/WUgFwAP0pe89zw3DrCpdgTE/+F3v/uqYvjtDUBhTlzlmHmTfSleM8eGEHIMWTS27cC2LdgRE+5UW7GWyeLmA1bAphSv8rSzmxKQl50E0zQFyB3HFWvSnuqoMZti3SrlK165FhCCuDPXwaJ5pfj2yfXCgkYms/t2NiKhhOdF4VHHVIuf/ZxKyKiQnQU2yqbm4ftnN0vv9KfXe/HU3YswoiJDcWDrRRn3DOOCyQXsobg8E2fuXCze9GfXuvHc0XZMqMwdyC/zWLQUef76Gnh8kp3kT0/F8b3zwGP+5rVevHNhB2ZOL4LbqARawC4OVMrC5W+FOSp1rIN9m+fgV1c5/a1HqvNXLSmDw/74uKdAJT5Yyahq/+S5PpY3jccvpLVOcb+zKDF5luKkF+UjFro+pn5e/NyaaWHx/LFgtIMRgPdf6sTx/a3whtsCzBJq+zOgO1gxcAyijCGdZMKqsuAscOGSNz5QfDfZX36LhkYvK7W5X3CN6nxFaXLi1CDjKfBgZM0KFe0AN7y7i+vAg73Bg5lvw8tw4Wf6cNNdOCNtKaYLjhGAuByDk/HoiY/NQXHTUrS99A7aXvoRWp/7AUI7zsNITEfEDyMxIQmJidzIf622pKQk3b878Fnwf4kJiZBNfzchMUFYucjMNfhz1f/7p/u7jotQXg6ctlRZe84yF6HC0YjKPHH2iRPEdyP3axD/i33iykgMyxAZI1eRpLDHWvqxV2iucwELlcJQ60Hnvxne1ka4ajELgIgesw9/rYdQmiHgHEoNCX+DODXbfbhVDqxEUxjbsrOzkZqSAjODnqk2QL8AbApMg6iQUCyLLESE6CWUxW6JEPhqFZsyb15GkIo8Dxi01BE83wEj4S8DppI9H+FuBwnLoxg1bQRKJ5SieEoxshZnIrJDjTilV3+zcPrnnw/FH/4wFx8TxJ8xsE+DOLkwJEIQAPNN9EEcxHlvpHZIdXiQy2NL1xZ8DeJfCkJ0dnYiuzVbQtGBd0jFSP5st8GFGWaLTjZiDEempSElKYqkyQExvwJhyTPRowwUMIkJSCcYJl9wEnJjMeRk58C2Xck7i+U7CIjFaNAhLC4Wl1PFKgtBLnMp1rrah8f2zsfwqZkCloEgUamrdjWG91UBBsdGllRm49zhpbIv9yeBy9iJ2XCWsNc8WFBc9NoTDwB5h4eU4giO9beqkPj1Hlx9dDWamkfDqVVTxQhqBAABcble5aGTcCGrOgk9q2eq1rjrBONeNMwshl+ji+oEhAYBkwifsr6tiRa2rKzAT5/dJiD+zjPbsH97DUIl5JynkUSQC5RJcN+Zj/MRXeijYnw+3nueg2NUcdve9dUorEmVEa/KyFKhOlFmohjUedj1NuY2j8CLD6yQa/7k1d24+uha+Ok2/M0qFzsYsP/s3ywia3UQKgnBlt52/jbPUd3jP7vPlwVZIjFBOFPvGzewlFek2hKD31b3TZRlPExH5aUjA3ztjagJZAsVcHsLHXjrovB7UsVIZbcAFVMwKpZrw1mTA680G6OqqrDokfux9GQvmh7fh9DOZ+FmZGPy5Mmor2tAY0MjGhsb0dDQIFtTU5O852fB1sD/5/uGRjTx+1/ap7Fh4Hf+3D7y/YZGDB1aBHdoAZylHIZCT9yFxVGknGJWvh8R4U7v+toTv9EAFK4l6ouVLkLpIXEuXC8sHjS9T4IMvV+OzhUQpWwHHAvyyvVGQ1Ibk5TlACy7VdTJTDHgrqecKZAnTarpW3AcWzb2gId8E64UESvQFUdAnAHlnMgxeQ4cUcp6m53kz/BlZLLfqWYUuPq9x/dMfUqkLXBugqhbQBMbGBx/Gch5nEhHFMNHFuG9X7yP//f//l/8r//1T9i2dTuyahQ2CIDfxBP//PNC/OEPNeKJX3hGe+JphozODWqolLz+5XNRukLrOakNUM6SFPfNdtHRteXrcPqXMBxxEN+mlDqtN8ktEsQbbRi+gfS0dMRiucLXy5CRM9IBK9QDQOM+zL0oEFeeqtPowE62kBBVpP/kC/ZdTwSIrG7qYSrBEkU6CMT9zS7yRiXh4v1tquDqai8uHl6KytpCOPMD/mIVWpUWjLiF58FZ5WBodTru7azHZ/ERnf2YVJIHpzUA8QAkKJj8WwEClbg50sIdO+bio0u7BEzfeHITNq2qkHy8eKUiMKo4TaxLLezeVh8pjVEsqhkrPebML5NFbd38cmTUssddnW/8WIMMHipmUnYuWTIe33x8veTzP3i5E6fvmI9QtgVvdwDiKrSnvHFlnUoOeJWLWHoSfvbMjvj0N/asT6jPgSdkM9yfx1cKRl2z+sxZ7KC8Pg+P7p2nc/nd+Plz25CUEIG/XucKvwy4X35PYGl1YBWYcObQ2OFvB/f4ZgKr/z8O4irKotahFmZpZ+Hf+jkNepV1pIWdf6tr1EBP5SvnElEUqKwg3rMIoba7YBaqc4yDOBVpv6uGr5RmITUjA3lFRcgbNgw5JeNgdJ6Hn5GLqRUVaGxqREtrK1paW9DS3ISW5hY0NzfL1tLcjNZm/XlLM1paWmRrbWkFN7VPM1qamsHvNvO7La1obm1BcwvfN6GlhVuLfJefDysqgjdsCJylnO4WlnC6OVRNMRsA8f+5o0hvpTpdrQMF4mZGCL7vCgELI4USNRJDUHHnqwibltc4kHNNcf1pPSlrTa9VevA9ZKP0EGb1uv4tdnfYdTasSAi+Z0kxmtej20O1zhoAcTohar1yPxZlcjqZmROC4fyR4czlFoIZNRFKMVVO3DPhblVgL8cUo5fyxPNS4EeAvpkRzar8tBmpeOzEI/iXP/wL/uPz/8C///u/4733foG2re1Cef2fBXF64hJOT1OjfIN7Iuf2Zf3xJ++DexgYOiS+cYRV82sQ/zKCA3EQd7epnkQqCVHCHKFIasCogdTkZCHtz8zORDgaFvYqDhyJL2hZ2AqYA6+cIT97uI2oHwa5gGM5uYhGo7B99kLauuBCHUsdM3hwFAQPdq6JJw4txGdXemS2+JXja7BocakUNyhAYt9iIBAD+zobHWTXJWNrW6WA+K+uKf73lhklSG6OQKpFKYBaGLnA2edM5c+Fak6yZHQq6UvZ3vaTZ3fgzt210lf8hYVIq1SHeyTkQxrTJS7Kx+bis6vdwoD2D9f7sH9DDYbXZYpQSthdiCCoILSSEIveh9Nko6Z1JC7c1w6G8T+91oPrj6+B4Rl6ctzAveK+ymhSAwg4ptWNmnj99CZ8JhX9fTh33xJUNQ8T9jJRPnIc7Y2LMqJw+3BXOxgxNxOHOtToWcU534kJI2OItkWkx/1mSkCIXHYzDWLByg/BmWwjvEMpD6l1+BMh/TPArkE8MHLk3opnRO8ojKjcr8H3bJBhEihXbTg4fZYAPkFfhrjofZ19UxG64wEY/a/A2PwN2HedQnhPvurKCMKa3QkIb4nCbYzBGlsGe2w5nElT4GydBj8jGRXTpqKpuQmtrfPQShAXoG4VICfwEqjnyWfNCrBbCeTNaBUwb0Zrq/qb71v5eSsBnN8NwLtJfkMBPkG/FUVFwzWIpysQX+4iNLQYUe2Jh/0SxGJfg/iNqtNF3rhOlnuw0m2YIQem6UiKTw0Lok5w4Sy2wIE2DsfLioGvDcEAzKk3aAzLmuMr5TKI/iiQDyJG8vkuOkMOrKwQXOaGWd3eGwF5AZQOCoxdVqOrgjavywdD0E6BjZBtoGZcDJtqRmFTTTHWVo9EzfhcOJ6DkGfD3khiJiXLSo+q2qIB3fRnZO1L8uht9pA6NVUmkNEL/xyf4z8+/xyffvYZ1nSuUYY5DZNb9MQZTr9IED9gIDXNgNOuIh3x8/vS8f9UvzA6RvkODBIV+XRm+1974n8GwwdAfDuBVZGnCKBRqe32kZDhISUxQbzxpJREKXQzC01FniL9xnqRa1CUyVUEqtUerBILzOcxHM/xeh7n7joW7Pkm3C6CvgameFEJwZgLMozQyBDu2lUrY0nZ+/zmmQ5sXT8dZjn7IwmgYVh9JkiIIYtD78eqz7SWBMyrKgHne39yTRVsbVo8BbGGZOlTV4VWASD4sPstmchGAbOqXCxZOh7XHlkrRXWfvNKNJ+9eLHkotQi1wGgQD4wB7uuuthDLSZSiOvaocxDKI/0tmFCfC3eppoYVAge1QJXXqNIAXpuLsrp8HO9vFQDnRLTvPbUJebnJUqHu0tLXQCMFbXqGuxx/mwc3ZuLMPYskgsD79doT69C6oARWNQlNgmsNQFzdPyobWvKZ1cnoaKuIE9V88PIuLJg9GsmNUfgajP9U0AaUg93PtUPyBl9yd9YYlRdnmC8Y73ij/fl/khqR3tCgwFKdo7rnQfUwP+PzZkRCFfYpYygIcap8pk0CDAFurWS1Z+T3Z8LpXgJj1wUYey/BuPMC/P4hEnZXrGg6fdDDsGUEDtvJNmfB28RRuCnw031UTJuGpkYFtOJVE7CbFYjHvW3tRROAxbumZy3eeYsGfuWdC+i3zkNTa7N8T4A77rnPR0vLPPHuxRMvypdwOpWzu8yBSRCP3ovJ5fvhsU88u+9r7vQbhNOFg4DMjCtdGPRujWAz4K5U0SNntY3CpiGomF2BgsohcJer2helX7gGFbujAukA3Lkmg7WqjGq3z9YOhvoOuyC8tW58jDPJewjiKiWn8uB0BILiXvHEl/mw02zJs6+dPQLHVk/FQ6un4r7l5Vg1azg834XlW7DWKmImrneep/oN5aTw7ygJpW4CmiRaSaiPYvfOXfjnf/5nqfz+/HPgueeeRfm8Mjjz2W6nUk8DjoyW/0HV6f/x+RD8P3+YLTlxgvieAwbSGE5vV1EGFcm8hfORqnpt5GjdQIeNtNodXR1fh9O/DOQD4XQVqlXKj+CqFqc30oYTtmXofTgchud6sDJssC+SD3TAWtXhdFlMvlR8crZ4KGTC83xwX26WacKptuBJIR3311athJeooNVxrXIbHWsr8P2nNklInZSgd++qgzWSlIgEJb3x+3oBSz6pO4zIQh+TinN1Tpy95r04tHUuhtdmKONjkIWt+jQDS5qTh1xUNQ3HhcNLBdTIZf7ig8uRnpcgvZ6yEKW9bfD9Uuci7V75YXzn5AZwPjcL1J57YBkq64YKrSDBR10vv68BVV7JFOZjSFWqVNKzwIz7vnVuCyonD4W/gNzc/L4STgFlCSErI4j9785YGwe316hZ7Nd68e4LnVizpEzmu0tIjd+n4UHDSxtc8kpOgCoPSxpK8emVbqmO/+iVbnStmoG0WVH4W3TYWQwubeXrZzzw7PX1sMCv1oFNchyS+tCz0MaVeh0A/r+sWJQ3QqNIKc/Ay1DA/UUQV/dEflvWjTqmhPJ1hCM4R/UddjDkwu2eDmdPNZy9lfD7UrQ3pTwiOecgHSC/EZaaBHe+jXBqGNMExAm6KgQehMsVILeKZx2E2umpKxAf5H0zDK+BOtiHIXP5m+H2AMTle+r9sGHD4A0fCbstUyr9OSnQTB+NhOhhlJcdgB8uRSz76z7xG3ni1Cs+gbPTh7PEk4ge2xBZu0NdRHnk1MCU6hRkx7KRODpRyF+4DuPrWOTXFwfFmemAxqo1xlRbqQ1/lzIwKVfUK6zKlu+M1d8ZbUpBWngHvXFlMMr6pBMjjozWI0z7LLPhpvmSu2+alI9dTWOws7EEHXWj0DApD55vw2R+fe3g8bdfdKh4Hqqn/cZyR0+ehXZDZxSip68bZ86cxUMPfQO1S+YitSUVHidc/gmIa70bDEDZG8Lnnw/Bv/yhGh9/ki2eeFDYxhoOJf+BPrjJ+YhOJIhTvlXEjYaTrQvbvm4x+xKKD4C4yq2IYhewUIDD9gYrSU3bYbtY2PfgJzkSdhbBGAwIAqhK6XKqmFvjCGizx5FtEb7nwbFNCbd6G/VDkgellXEc5DwJ4SxcOAZXj6+S0DQHe5zYvwCRoa6MSyWghfdE4iEeAXCdA/XaPBSNSMM7F7cq8pXrvTh9x2KMm5OrWz9UPjmwqJX1SiBnVbWLMVXZeGQPR3Qqsplrj67GuHE58n8cLSn3SK5bg6g2CsIbw0gZ48sM9I8uq5w6q74b64vFI+b9YmhYGSC85oF7EOYUtgoPO5aRulWBOIvbVsyfhHCVK0M4CGo8R2XoBICq22Zmuli9aBLevrBN1QJc6UPXqpmIlnHojDKMlBU92HBS4GvPtVFfMxI/vsD71YuPX+nBI3vmIWNSFJH12roXENfGHe/9oDXCa6ICdBc4sCfbYD2EALBOzQwI8A2EN54TVx4P7zEVm7fEhV2VCnvBSCF/cVqHwZatCO6mZKGtJN81h5o4TYrW0W1mu6ANvyuqKnj5rMToU4aXMsRucC6B5xJw7Hd7cFckw0+PKE+8SXnOBGiGw/+rt6KiIvhFI+EuzYTfnwqnbRhCsVoksDq97AAi4THgFLPcrxnb/mJ1usiO1D3omhopDmPBGMcje1CV4D68VR6cGkcRJcVD6FwrqjOEHRRutYdQUgimY8INOwjZIRhWCPZUC94OyifHBHswh5kIWQZMx4Lj697ukAFvjSec40qelT4RmRaDV8mnu9GVboqQZyI3Fkbx8CQUD0/GqGFJyCP/f54pA0Q81ibpPLyqQxnkKEjEivr4xmtdomDsClrsIlYbw4TFEzBywUikLEyB/L6E+b8cTtfv4yBuAijEv/4rC9tyBMQP7DeQlqoL2/S1KR104/MJ9JR6VXhCY8eutrGlewt+97vffQnFvjpvb69PPChsCzxEAdSwDIuYXTMcK1snYuOiydi6tAK1lcPhFFtq8cSBVy0+Ue60aikYK3wUVKRizbxJwru+ZfE0NM0qRvrkqPCgB2Ao+whABQDjg3za02qG4OJ9qriNlKDnD7ehYEyyIs4Q8FcPmCAhFq2ARgTuSg8F41LwwoPLJTTN3PZrJ9ZjetVQOOy71go98IoVKBLoPHgdHrLKE3H39jphTyOgfvf0BjTOHQW3LmAx43lyI6gFOaiw9JInTPPQs2Ym3nuJIN4r4e1lLRPgzdBTxcTL0+GlwSDOsYUVFlbOm4gPXtwpYPru8zuxr2MOIhNd+IE1LIKpLGMKn1x7lw93no+q6cNk7OuvX+P42D7cs60WBZUp4uUPFgwVBVDeB+8B70llzVC8zCls17qFKe/aY2uQMzJBvA65twLiCmCVwlEGgCKTCMNb6wgHfCgnJNPR+PzixsZNlIiE0+PPf+DekumOKZloRgayxk+EnTcEdj63Qtj5Q2FPiMAuMuHELDgxG06uJWkFvg/FTNhzfbCCV56VNjwUv/TNlAj/X68trrNuH966dPjpUQ3izF9r7/nvBeLDCuEtTZNpZtaqqTBGrFQgPukAmBPPzu4Ge6q/atSrf6s+cQWYgwEuaE3V603Wh5InrtsB+VYyrjzCMMIc+FGm5nqz6jwxMSqttwZnfCeFQPCl9+7McuQ9P3ddD9GEKPg3N3Lfh7uoN7RxzeNpj1/pJlWdzvCxXelI0StbN6V9c5YNZ44FmwNCGln0ynNVKTl2WQS1Mjz/W5U/dW0qvM9oovSKc3LjLuVcyb0IInnx+/Q1iP9XmA63CeKBsgsqxxVQOPU2tm2aju+f2SSeKUHtWF8z0sZEIHzrsuB1GJN/B14ai682+yhfU4C3znMiWY/kqDnedPS0TDjtKiwegItq3VDAwDwqF9Owyal4/MB83bPdi5cfWoWKWQXwFtmq/UMAUXu2ch5KCL31PmLTknG0uxG/utot1eLvPt+J2lkj4NWpHncl1IrzWDxyCeeHFWHMBBvda2fKVDFWmf/oXAc6VkyRMYBqtjg9usCrGwj/sh0kscHHopox+NkLncI5z3D81vZpSJ0VFUL/gYExyvBQgqZC1vYcG60tJfjuyQ3ijXOCHPPx0SI1OEbulVxz4FmqZySVset8FBal4VtPbJB+bz4nzjSfWJsHT+eklGIK9lXFfIxgOEtcjJ8bw6N7WuQ50eh5/6WdGDosVXrraZCpYw8oG7l/usBOLPkOD1aFCXOkCXOECbM0JLnbIMpxM++XhgKfg4qO8BzDsJtSkDEqE2NH5GB0UQyZaVFkM2Md9wAAIABJREFUpEeRmR5FVnoU6clhZKVEkZ2m3vOzrNQIkiIuLMdGKEqlSiWnugn4zATEBaBvEch5v7vC8BaHEU6NYlrFVDQ1NerCNha3/X08cVWdzj7xNNgrRiI0vBGJEk7fr+aJfw3iuGE4PW6EKj0nYCcOi5JDFbpVshH8X1CDEugKRsFIWsLRm0F0MRz2ZLyoYZqQccmcHEgQX+TCLDARChnCk+H7vsrDWyZ89qV3aSNRamt0f7g4JgROtfG4gdwIuGuw5zoefL7yt+wbkEGpSNnNPPDg/xWIq/w/a4zEOQn0uJZJMda/UNh2iyAuLWZBOP1Wzyv4ntJv1D08p6898b9gNsTD6WTnCUKOwYLXPanjp8bwwtFlOrzci6fuXIySadkyr1k15ivLNVDswSJ0lzsYWZkJsp6pEZ19eOvsFkwsyxXWJAX4BAhtOASLhAp9p4eEEg/3727ApwTi6z341uMbsHj+OJnFG1jK4iVqQFX5H19YzDLmJGJr2xR8cmU3fnpxO965sA3zZ5cgcY6PsISXA+FVQi2Wq164ToWJdcvK8faFDvGkv/X4ehzYWgNruC2haR5TjqW9xwCI2QoWbfMxsTiGHz+7XfLTb1/Yit71VSiqyYC3ztUjRTUYSvifAKMAhYxxM5uKcOFwGz6+3IUfPN2BSw+vRGKGL9GHgBRHCR0FPDh3T4oQw6kuLh9bg8+u9uK9FzrxxMGFqG4eAadRFQMGz0oZLapilNfirnZRVJsuI19/eaUHP764TbaykjwkLGQ+PhCqwJPRxw6iNtpr5WQi5sLddS6sKRbMYnLOq+/+/+y9B3Rd13kmeu499Rb03ohGsIBgAQsIopFgJ8ACUuxg71VsAEVJrBIlUnKsZluSi2zZjltsJ7aVSVYSjzMvzrOdSSw5a57fJDOW7DdZL3lrxu9NHMuZ2BL5vfX9/z73XtIigZjFDA1pbZ6LU/bZZ5/z7+/vv2xvIpHre9TvSN4FiXZJHZramjG/tQ5N9SXYuKQZG1JtMjYumWL+nowNS9imoK97AqaMKUNJQQJRx4LHdKcyT9xSOuF4+DxDgXgoibNEbgzOSoJ4HDNbWtSxTbzT7zyAk0mgOt2vrYbDOHE6V63zEK1liJk6tsXijSgrGymAMhSI6/qmDLM4Ysr3qwyjrFnynbAQD0NmzZomvhn63Ygpi+Ff8xSgBaSrIohURaR4EiVXZe75jcUlNIvnSKuMIsoMcUyitNVH3EjiOiZde8VZk5Ucj4VMs6EdWY/TwoJUezxizALUeBoBRr7zEHxT2smhvnNdf3itrC/Sn85RJk0KEx+uz4bexcfmJur0Uw8Zx7aUTTxcR4YaU3get0qHHMsIiA8B4nReSMd50z6sIOft9VDUkMBHzq7Ef/rSMQGIT19aj+5F9ZLYI80F8sMjAZh+GDu5xUN1dwEe3T1XpOlvf+aQAHL7lGr4S/gRKgjFJOMWQYV/60dJoImMj2Jg12x85zMH8ZdfOIyvvLANh7a3I9pMSVwl4fBDS4EF738gQE5vHAtnjcXXPrgFjx1cjLP75mPBrAYUzmY96PDDz1jUubCTYFmAo9vB8hUTQK3Bq0+sx7Ets3FwQzvsArV58Z6ZKmCVUlknOJAcwXnZMXz+fZvx7OAyefYty6eicU4JvFVMN8t78P6GCA2xEVjcNR4mLqjA2b3z8duX1uGh7V24cGghcrMCxDZqHWIheqreRP2mW+FUjweSzemFR/vwJx/ZhWcfWopD/W2YPbcOdkdUVW4yt+S0yTSFHH8gZoCSRTlYv3gKvvLsVpzdOw+n985F25Qq5C4ydcnD86UPXVxCZo3vjZIF65ezFj0jE+iEImkhjXZGzrkJcCpjkmYG6S3uzCtDorwUY6oLjPe8lqYlQ/h9SU+r2em0BCv9CI6DTNPA1jlon1wJ14tK3W+Zay5uNH0cM+0mY5F3a7QMIvUw3ndnOYJCqtNnYsnixRILLmFid0kSD2rpnU51ejwVJx5P0rHtEZXER6qY3VwS53pGH4vQlGacUwnYQs8pnwzSdggcmcy2rk2kU0m6spPOux6Y08LbybwZLjzSv6FrCTs9wFhvMrY8V51XfebPZ0iYhJrxm9RvXtZNpo2mWfOAjzijUZidUuz4qm0M6VycXJkG+oCPxDHa6rWfzDUwxRyYtepmTKtoqsx6TzoM66ErfYc0+a+3iWeCuDAahsG42Vj02AiI3wCu33t3ShKnzVUcOcgVhgu8coR2RRTPnOjB//axvfjmqwfx5ee2Yf3qKbA7HAF+AX/5kBT4BVhJMLt8KTyyedkUvP7FI3j88GL8+1d2i7o5b1Ec3n4DpnK/UBXEe/Oj9eHMsLF14zR89QNb8OrF1Ti1czYuHF0kDiMETIZ88MMVlW0qk5JKTvF1AaqK81BWlIN5s0Zjzow6VBXnwB/vik1KbaP8QDXVp0hnIqX58HodtC+uxrLZ4zFmVCHG1xZjXF0JbDsqNnNViatNOSQcZV58SepixyKY0FCMtinVmDy2HIV5STgltiR+EPAVLp/PScJQrp1zRgm2sjsXE8aUoKI0G1MbyzBlXDnysjTft39Qn1f6uIa4yRC4ksP5xO4urF8yGc3jyjGqJAdZeT7syem62SHXznGniPTBAIlFPorzE2isLUbPrNGYOWkU8pI+vClaJEIlDBJXqDkwRC0ZzxKSetJh2lVKHMW2qhb5fMNINnEtUatUwvAbOtwly300VBdh95qZEj9Pjcz/8XsD+D5LzdKLXzLUsfAL9x/DN17Zg4GtXeicPAqOGxGv25AxlLGkwhmHkgbMQs53dSSAu8hFLDemceIhiPcwZOzOS+MiidfE4DJMUXKnM2MbJfHHMW3aI2ITLy0dydg2lCQu4ByCdYqJM9Iu95t9sn6lQE3nXOmGYbcxuLM8RAI6tllwcyKwkxHJ50AGlk5mND/5R13YrRFEYhbsnCicLFsStNDRTYpLidr62r6DwzEEW2OIH2KhnJikL2bYJhmDlIr/IKsP+vC3xeDvZ1plrUefAklZw2hv1/BOdchLP1v4jJnbFIgbRz7vGBl9ro1G2BBGYPgg/sYbZRonniGJp8YnQH7z8QhTIudxvQkZqhFJ/L0RPCPZi9YTN9LtNSAeF+eih/bOwbI54zGzpRmPHOnHkV1dsCcyQQxBkB+jAoxrbCghJ5q3NI65LfVg7HFDXSVys+OYObkClQtzpHSovlzzMQuXzJemla+cbhtL+xoxr7UBiZiH0qJszJhYhWhuVD2XT7DerwILr1HiU+na3+Ij5rlYu3giCvKz4Lo26ioKUFqdLV7zep0yLOQ8Ux8Ow0O4WI72kYh7iAcePMcHqw8xrINJWUhgKt1pSAn7YgpPPru3P0Ak20LLpErkJmPwbA+L28ahs6UOURZbkPjmcOEItwpcQrAzXcyZUYvLR5agID8Hth1Bfk4c/jhX/ATkXlwkBMRDW69qAZwpNsoqspAV0yiARMxFPHARHW2nY1KFOPW+GtOvkghV7mVFSfR0jkd+Xi5cx8WUcZXIKmdBEaNBEGJWVZvMF9VrdKY54YjHLUu5RkqisCc68Da4ks5UiXAoouVzxOAaZo7fxPUgvmfNLHHW+97vMu5fY/AFxJmn3qSapR8Ay8ge3dqBjslV14I4NSBhKM8wGAuCpdgB+U0+GMBdGAiItzDZC23iTNZyFwA8pU6voSSeoxEUknaVVcwuKojHxqN0RBK/uSRuwIDgJuuEWeNUiiU9pL9RESJSIG5oUxjvAM4RH5FpmjGtuiiJ9e31WDSpUvOml0cQo3R+3BXfG7sogsqCOJZMqZSwsCgrj0UtBGsCeA+SsVba4/dOumbthghzcCyx4fd48B/U6BXSkNAEzznow1nhwJ7A/OkR2O0R+AddBV0CXyaIH48jfnzouGxdN3VN8Te5YCpmag+E0TdgLuvlMNXpIyB+Q7gd8sAtObZ5+114g3R2oqo1rICj4EqHpVltNZg+qQ5r163Ggwf3YExdCSIlESEIxkSKVCnOSZ4m/uCHSWl5tYushIeWKXX4yld+DxMnNGFqUwXK2rMkyYI6j6iHd9pzmJWvXLh9NpraS9DUUImdO3bgpZdeRHbSR/XofMS3JuAcVU2ASJQGnPhBkiB9ejbbURQV+WhtnYkZM6ajeUIdikqScNpNwhhhGpjAQfsJCcBfH8Ad7cr1ixYtxGc+81kh0kTMgTvNFAbhIiBEqNyiaA4GWPnLR7TARmlxNgoK8rB+/XrM6WqVim6RpijcE6HXNpkVBVMuGgRDahTc2T7iMRctU5tw7OgxxBNx1JbnwavwxHatDIMHL3xPQrhUEcfgTnWQzA/gOS4uPHYe+w/sFacbSsfOJhOaJmBGhisOlyF1hqnwlniIxz3UVBZi6tSp6OjowLTGWiRyPE32IPOqYw6dEDl+hpd5J+h5T4k/iki5cW5risKRmsxcDFQyyOT+r//N98b3oAsKF06q0wuQKC/AmFEFEhVBsA4z8FGFzmpx6jBJUB8QMBcQ3zILHVMqFMS38v1oCxfn4WgH+G7942Re1IzhbS9FrCCJ1pkzjWMbJfC76dhWCfeBPFGvsrStXdOIZOIJo05niNlIxrabSeJCq8cJdqG2UMFZ7LoC8CqMhGmcRTBJnasgSonVPeIhMpVe5haKsmOY21SOnuYqRCwLkaKISNn+oAuH9a/zI6gqSMg5k2vyxcmN1/mryQw48CR7o66xsYO+5HX3VmoFMXqw21uj8LYx37+Xat5m4z2+yoO/yoO9xpFYcVGxk7EXTZN6vovJ8XiaObme5sK/OSfuIRdum4OJcyahf9cmvPZnv48Np9fDfUCjeVJMu9CSSsc3somPgPiQWH3DE24M4lcBZuDREqz8911oWh7g4IH9KF5apJ7TBtREqk5xqr6kC2zuqETLhGo0javDrOmNaGkZBVts07Q1UZ1LUDNcawag+v0ecqp99C+bhiULujBp/ChRM1c8kAv/cFolnSaukMhiYs8snZ6NCfWlmDNrCvpXLUL/smYk6jxJn0qi4ocoi7NZqBUY1f4ULWLK2Bjy8/OkHGV+bhJBqadqbeONzvPDe8dOJMBsSrGDgYSRNDWUYsPyNsxqbUFRbgyOHZEyfVJWT+YqBAdjC+NzH/QkwUNBURIsO1hZWYnRNeXIL4jDbmYpVV4TMgBqrhAQNyDpzvWQXxhHc2M1xo0dKxJxUX4SXhdV9WSwzDzLXPN6Zbq4SLmrPWSXx1CQHceUSU3ond+C5sZyRGtt+IcM4RmJVJ9Z7V38zcXDLWbITICcnBwUFOSjsCAJr9SFtyaMTQ+5c86ZeuGSqZD3TtDb5kucLaVw2uGZ6CI0W6gUfL2mh9eGC6TpJ1R3i008hkRZTEB83+pZqYI2zMRHaZye//SklyI5AuIDEklwYnM72lOSuAe7rxbR7kZE5zTCnt0IZ1m11BJPS2H6HkRlaZ5HJA++E35fx+Lw+5OI5RPEW8FiJ5pK9e7Fifu1Y+CuLhaGxDcZ2+LM2CY28UaUlB6/L+PEGTJXUvIgkslOWFYpLKsH+QWHMXPWp1Fe/jBctwu5uUtRUX4a5WUPoah4JyKRBCxrPiyrAM48T5M0EeDk3abpnd+erBcGxPW4MpD6XV57bvitur0OWOOblf4KmgIUNcUQLWU6aQ/Bg5T0NVTVZgXCahcFTXFkN/qI1KqpiYWFmHhG8kSQng9okiTmSbdLHbgVrmle6rdT4cGpdOFUOnArPdNcuJUuomURqfwY7OXaYrQKqfWB+24O5NQsJpbFMbG1CX/y9T/Bf/7Pf4Of/vSf8NSzl1GzsAZeP+Poda1ThtjMG+fvWAAWbxpkshdU4advz8Ebr5dpFbOHTCnSNSasN6StIcYTMt3pe+k68Zvt2EYAv3JV29WruHr1XVyVreZOL15WAl+8003sJAFZQFxfHJ0tSnqyUVqfRG52gMKyBMrbcuBRyiEoCTAQyPjRq9TFD15s5Qd8ZK3wMXF6CUoL48jPjaFsZjZydurHrrZWAtN7EMwRH8lNAQqmxiWkqKYyH5Pay+HLR8GFV+3hQnwGVEUjwN8P+pKwIZbvScIFxmdGs6JwZjlw6WximA4BIZa5lI8+oeFIBLXNPko7clBblQ/biSCRq4lEMmMnw4+Nc0XOnZI8iyD4mzxk9cXh5EVFmk9k+UhM9o0kTQIImR4ShwEKPj/9CLYHyJoVQ2lhEvnZcUSiUfjNngCkeK2a+wi4yNzr3FH9zKQuidUxxCqoTndQXJCF8mm5WkbV+BlwzFT9SwUvM+e059MMQK9bNzuKKOcqEoGdZ2tsPLPr8V6m6bvS5+Uza87nQHwNCOTeFk/yT0fHX+udzjl2+5gQJooos1j1jIGzoxvRybYwhHabKzHmrBsvznHzCpEoLxTHtr1rWsVxjfXWpQmIUxqnPVwrtxHYGQ44sCWtTo+21sBrqEVW7WjkNYxF/uixyG6oQtASQ7CbjmJcIAxjZNSWwqCYbFfyHR8N4KzxEctnxrYW9BDEJd/53QPxoK4R7upS+U799a5UMdNSpI8gHm9ESdn9DOJHkEgQxMsExAsKHkTrrN+W0qsE8bzcpagMQbxkF6IRVidTECdTTO2YfLtDgsfNwU7BMJAMb6w5wHSt/gYf3npfkruEa0r4/dCBlilHWWCFuSuoLvfXsOyngq18e1w79vpw2124SQfZyWzk5eUjLz8f+QWFyC/IF4Y6n/vyCpBXUID8fG15cqwQ0aiNKPO976AWlExIKNjwublO3vy5gj0x5Lfl49zZc/jJT/5JBb6rV/H1r38dPVt6xR+E/YbrnTI+us7H6fR5DYh34/XXy/FqRilSOuwqnSkYDzWe9H10nvg36fA3GsRFCtd/BLyZ3F6asYkXLys2IE6VkimzKTbX0HkpJmUp/R4XwWwPwTwPniS1J9dnFncz0WnVaXgsJiFd/hIHOXNicLs8+egJhuIAIs5phsgESI00LxKnArXPuMrZHhK8fplKTekXnXbQUi7UcKLkSI/EJMyDoGFPd+HMc+ExiQEXbdEe6NhDUOJWiZ37Y/A3BXBnuXCbbbhzM1TwJnWpjoHjCaVj3YZzwmvcyQ6cVgfuBhZrCRkVSrEqycq9DaiGkoCEanU5yOmKSaIHqtBE+pfxhX3oWHkNmSXmW1YHwxgYquZMdeHMcOE9oCAf9s0xh+PgM8p+IfxAF5NuR7QQTGjBCkzMxBYyWnxOJSgSlZFYpIRjgGCvL2Fl9njGiGtj/Ll+D+mxOm0OokXqCGRVlyMyY5I4/0TKbdjdDqxCrZfM/ODO3Fwky/IExPetbpX4dwK1NDq1fZmObeqVTs90BXF6p3ehY3KlqNMjBaUorKzG5J5OtO9chrZtazBuzly4JXF4m8oMgGvKYDI2maAevsfgeALulgLE8hknTnV6WADlbqrT6+EyYxulvHUE8XokEsdFnR4E9Sgq3IqS4r33XSsu3ouCgs2IxabCskpgWQTtzZjS/FsoLjkKx2lHVtYclBTvQ3HRbuTnrzEg3gbLyhVJnA6h/F6HBo+bg51eT6ab375Rg4sUnwYbWRNSa6L6j4QAlqI3YcT1Gh4TEO9yERR6KC4sRnlZBcor2MpTraK8HOXlZj+38rsS5RWVEodOaZhrm3jbZ6q8h/HctH8XzCzAJ155BW+//TMD4sB3v/tdrD+wXhxMOU55tlTf7wXioyRj2xtvVGjaVUriYe50s3YN7x1cf68REBc1OpXoBsdle+UqcAVXsWXLFmRNzYIz34Hb40nVK6eHUifTWOrfXq8LNjo/0emBjSkunR5ek9GY9lKuVamVmcBYDUi23D+PfXjw6LRhznOWuPB62LQf9imt1xYnMs8cp3ewu8D0x2t7HPEiT42t14wjY9ypvmbbwsU5i5z0WCRVZzh205+MIRyPbt0FDpyOqDyvjpNjuPa61BwssSV3uKT/ZF/zHditNuzZDpxeD06f4dr3GNAXG5basQRYDZgKk3GUeZ49jRllOEpIjMabXhclZWCoBRBJXBzsTH97KDGkmYoQrNOMTsgMhFoXBTDRJOxV6YB9Esj03sqs6AJmQm/MeLmPme6oYrRiFqK1EbjL6HSohB6q0vkdULUfzYlqacXAgpVtKYiX2rDbbFgFEVHDu3TemWUjWealQDwVVibhZdeBOG3kv3sc33iFID5bHNtsNwIriKJydD3mnRrAmk+/gjWv/jbaDp1SEO8vVy1SyMSIlkK1KmoT5TNznhLwtxchVpAG8V6xh99FEK9hKVIme8mGt6Ec0bomxON9mDrlJGy3GMlkB7Kzuu+7lpXVjURiFjyvxoD4OMRjbagatRbZWf2wIy3w/XHIyp4jYJ5IdCAem4mINR6WFVc1M1OsEkSGkEiHc1wZ/lDQyAQb/lZhJKQ1AW8Be0PvxmFTbdU8l2OKgWpwt8uFTxAvKkZFeYW0sopylAl4l6MiBegK5BUVFQgb02E7zY6YHxn/rkCu9C00OMRzBwcDZC/NQv/GDfj+97+Pn/3sZ/jxj3+Mj3/i45jVP0sSPun8hc9r5pIe8JmS+NVReFvqiZcriJ+0kFfItKt8VrMWGBPozec6vA+3hmn6jZfEBcCpRteWQnNcwenTp7Fw+UIsWLnAtPlmy30LsXDlglTjOfNXzsd8Oddcs2oBFoRtJa+djwV9C7TJeWaf6X9+30I5FvZ77X21b/av99Axpc7lfdhP3yLTB8c3X8aX6kfurc/AsXI/r1/Qx3GZv1ct1DGb8S5ctQBsi8wYF/bNh7TU8/Da9Bxpv9pX6r4rF2Desrlo72pP3UeP6fPO7ZuHjpWdmNQ3CSUrSkWTIdmRCCDHjENKyO0Kp240BqEdSUBcTRQC2nKuqs1SRCsSPcNRCMiUKsKFhUSkpVZJPHRG02MK3CpV8DcJ39i6xTYd2r0pSZsFSqIAjIdvqIaWrS/FJJgvmg4ywT4uXOmkOFyw7Loo8kqKUFY+CmVlVSgrq0RZZRXKqqtQVq6tpLQSXn0M0RYHkaYIEuVuCsSpNqf9m4328P/0ZS1uo+r0NIgPbtEQMwVxCxUE8dOPY83nX8Oaz/8h2gYfg1uQgLugUkwu3goPLCrirnC1LXfgLqeHvSdx5WRmuBAFeQFmiiRONTq90++eOt2vqYb3QD5iA4Vw1o6FVdmKRGI5JjYdRdQuQiw+C4l4133X4vFOBMEMOM4oo04fh8BvRVnZSmQnN8KJtMDzGkTdznNjcTIzqxCJNMKy6BzpQiVxAzxDANrNwSX87kOQSdOR0AcrKoahY2SsJWlMmklWZpuaTjWdKTAaEJ/twC9SEC83wH3NtqIM5dIUvHmsrLwMlNAJ4ilJ3GjmVPrn+Ibx3GQm9geINQYYPD+AVz7xCl74wgtYtG8R8tZqDfuUhvJmkvjVarz90/l4/Y1yvPpJCw+dtJDPEqzrFcRT2RuHfAfh/I6AeMoDLlSnhyB+9eqVFKD/wz/8Pd5660388K0fSnvrrR/grTfZ3tT2gzfxFtsP38Jbb72FN998E2++yd/h+T+U3+yD1/5Qtnouz9d+foA332Tj9dzHa0x/0ucP8RaPmX3a94/w1lts6XPlN6+VPnQMel/eO7wnf7P9CG++9QO8aa5/863/Kn9L3z9kv3o/3vOHqWvDPsLnT5/D67Q/zgufIeNcee638F/+9m/wrW99C2/+4Ac6dpkzHT+T9n/r29/Cb3/609izbw8mzJ6A3J25EnfKogpcPFKEJxy6fsgCrCR64WDpta+qPAVhnqNgrUAcLhiq9ibhSapIydGufYQSfGqxEg45re4WKcIwDqHZQdSAooY3qngBe/Zt1NBUy3NcdK6b6yA63hbPdI08MCUMB1mm1EZT21Q8sHY7duw6hh27jmLH7uPYses4du3WtmnrIRQUlyLaaItaPlnuYvSofGxdMQ3f/NR+fPOTB6T92Sf34puf3I9vfuoA/vxT+/Hn/P3JA/jd57fi0LpZ4tgWgnhVw2gsfGQ31n/2ItZ97nl0DByFG0vALqlGMq8AyfwCJAsKkVVYhKwCtkL4iSSiNTZihxLCZNGuGdAmPrMVPYtDEL87YWaasW0UvAdYTzwuJqVIdqPEiTeMPgDPG4ucvH3ILziGgoLj913Lzd0FP5hhQLwXWcm9aGp6GSUlD4ljWzK5EAWFJ5CffxQ5OZtgpRzbCtWx7ZBqVFLf/JAgcmO1+jVOtPzuxexofGqM85z6CJGJVXokrYqdWpjdtISsNMNkSz7cLkcKnhTkF6C0qEQk8uLiYpSUlKKkpAT8rU1/l5aUorCkCMUlRbAdOwXiSr9cS0KGg89+4+eRY8Jsk7Y9OC2agY7Ay6yZ9LMh+Ko2LgRXwxi8pyQ+T2ziLEVKEM8rMpI4hYLQc36o8YTCTIphUE3Kb7hNXG3gaRBXiTy0jaf2Szl4HruSdoS7wt9p0A/PpSqeLfxflPPCHPBcPaoSvzlTnOlCh7pMJztzv5CxMD1eYe9Xr9AjL8Vw0KOe/78T3lW87vVZwnGF9xbzQaovPj/vHd4/7BfiG/CuOU/7T4890xlQx/OOGYtx7pex8WrzzPQ1yJiXlB1D2CmOnEev4l/+5X/h9e+9gYWLliBrVQ6Cg1Q1kbj5sao9nouD+icYzl2AMg3SXCBS3DGJQ6oshcAfqvsUXEUiMCp34f7JJEh/cQ1JEeIy9ze+CDoWSv6qXk7/rfsoebAvGSPHTQc9pied6yIyIQpnuZ2OszYqRXqsu3k+Djx4Bl/62rdM+w6+/LXv4EuvafvU57+O0WPGIzpBQTxR6qKqNBtzZ9bjsUML8dihRWAWuwsHF0h77JBu+TePDW6bjd6uMZjeWAbHi8CKRVDV0IB5jz6O1b/z+1j7xT9C++Dj8GIB8kbVoat/E7r6d6Nr0xbM7t+Gzs170bl5DxpmtgmIB4eTCI7G4e0pQ7womXJsW9a7FFI//C7Eimuylyp4qymJx+GtTMKbkYUrAAAgAElEQVQumYJE1kWMqtoF12tAdtYe5OQcRk7ufdZyDiMraxs8b7oB8SWIxXahtub9yMs7DtfpQiw2H9k5R5Gb/SASiQ2wLHqnz4Vl5YskTnXxkEA2JLCEQEhaC0EspJmQfvm30pYw0Jm0JKCqNEOGXJhu0hDpfKcPp9OFXeDCj/sI4r5uWfo5FocfxKQx/3oQ8+GzkmQQgxcE8GMBIm4UzkxXsiUqk0EAJ20rmA/97Hweri0qIOjYdC3SfSF4h9vw+a9Tp+Nam/hJgrixifM5ueYMPRYVStJCCq8ZAXEQgN6FAhhoDM80jhNgrhDMeBZB5trDAopyPs95V3oKATMT9BTIruLdq+/gytV3tFNex/sJyKXB9t2r7+LdEJwFD3nsXen/HaPyv4JfGNA1IEn4E1Bnf/pfOA7ZGpMBGRNewWfk/itXf6HPZe6nh/RY+PsdPrscv6LozO6lC4KzzhufK30/M0fh2XzMK1fwzhWOOXP+9D7KUHAWruAdsiC835Ur+MlPfoLasbXitSrETy/xAQ/ugCZv8IzXv6ReFGlciYix3R7VdqHzoSxAJv0iuVeJuWY/6q0qBJFaXELVeEzjVEUFqGpvctwch0r1JOhwQdLFSRkMQ9zCbKjE756wBeyd2TasXEsc45RgdbwcJ8fsdETgFbg4cOQ0vvy1v1Dw/tp38OXX/gK/+9pf4Hde+3MQxOsbxotd3JnoIJoflTzos6dWY/bUUZg9ja0ac6bVoLulDt3TazF7Wg1mT2erxuzpozCjqUySaliOBSseQVX9aMx/5Cms/sKfYPXvfAPtg0/AS8ZRNnUK1n32DFZ/4TtY99IprHv2Iax5+ZNY++HPYPr6DYjWsEZ0lpa+XR8Yx7ZZWLKkRwGcQH7XQLwSzuoCBIMVcDfOhDdmK/LynkJJyWY4dh0SsR1IxPfddy0e34sg2AjHCR3beuA4W1BRdRkFRQNwvdmw3S548d0C7vHgAUSsuIJ4hCFmPmIHaUIaOunJcABGnEdTDLeCsjLE9MA2gEPQMdqzlOQuDLphnkmfA8xNoSYzf70Pp90VxjWStBFNRhFNRGElLFjcuhYs24LlRxBJRmGZZidtWEkLVpalyZWYg2LAT5vLTvhIDIM5oXbPGbDTTsoCtoZBN2tQWJdCwXWYIJ4KMTOmQZGsQ2boZtuQWeB2BMQF7Qjg7wgoZiIMpVEDiDcF8TTgKYgThFSqFXBOyZ4qMb8jAM04dJV29R4GzAywEsAVNCmXGvla9hHIVar9BX6Rlp6NBEsQVaYgBPG0BCz9SP+hJK3jURDnePXvELilL5kOMh7KQAiTICMKQTwc9xW8e/XnqT5SQP2vBnG+B/ZzVUD8yrtX8PzzL6C+pw7+dsZ7a5YwgrgSizqWqVo8zeUzuQqb7ueHToLgx64fPFWuHlXbGSAu4GxscWG6Wk32QoneXHsNiJMz5z0zJH4uRKIhoJaAY1Nbl3vCgbfVlcx+DOGTsqnSpyFGYSroIGjDKfBx4MiZFHATwNl+77X/iC+mQHwcnMYovA15sFuzEY1Y8NwoXDYnisCJwnNseDMXwe1eD7d6nGTk4zHPiYpXuuXZsPcuQWRKKyrGTcLsbXuw/MJlLH/8ObRsPgBXQLwZ6z57Dg984dtY9+KjWPvsKawliL+cCeLZUoo0WB2CeCuWLF5kQPxuOrZVwFmdA3+gFO6KMfCL5qOw4GlkZ68REA+8rfC9Xfddc70dcPy1sO1mRKwSRKzFcOzNyM8/j9z8E/CDbkSddtg+pfXtcN1ViFoxRCmJZ4I48z8MA9CGOkdBPJORTYD5JUQrlvIbMZE3whCTBkgnDF9VOuPWJYgbRlwiS1h7gGlXDwSIMSTuoA/7gA17jg2L0RxkSPMsiVYJDvC8OIIDnpzDmgUsl0s6ptpbVN/iQzMMVbox47kDkdQzJOTaDC1bqvqfoWdZZ9RR7RrHNlThbcaJv1EhceInR0Bcgepf8e8Nk70QKikpy3+KdgbADYgbMNPzDDIpuopEapBWJVGRiA2wS796lfxrQJq/0xea24bHwm0IlqkHDAHTbK/vmz2G6JlxjUrcmXcz9w7vw635X8Vk7ScF4jyWca72pMMPb6fHQyk9/XTXDoP9kHFJP3qq33AX75MyTSgD8vd//3+jpWsGvOWuOrgRKFO2oBCYQ0lYOXkuJLqYGGBPAXjG+eLcps5qBHcBcZEgrpOuM69Ngbhep1JEug+ROEwfKnWE4B+A6RqjUyJwF0dlcfLkGUj0MQSDcVG3Ox0OIjlRVNeMRvOMdjRP78DU6e2YJq0D06Z3YMq0WSguqYA/OYC3OYZgXxxBv8bex/pdBP0e/H5X275CuPvL4G7Pgcd80v0+vH6OJZCY/OB4Mby9+fBqksjKL0JOabm0RH4xnKwclE2ejp6TA+g5+Rh6Tg1iyeBJ9Jx6Aj0PPYmmhctg13iIURI/GoO3o8R4p7di8eJF6OntQS+l8N5lAuhhfXFuxeGtdwl6pfVI7fGUxN67NFWLvJfXMv+6SPQZjnLXqerDKmbM2CYAsDqOWP1UlJY+g3hyDaLRetg2pdWdcJxd912znfWwrMnGO30BItF+5OWdRWHRIGKxuYhG22E72xGxtyIa7YPFOPFIN6wI1em+FCwRoD2eyNBemW/3qA93nSuZyfw9BMIQ7Hk8DdaecRpVO3aantJe1xl0lUlvhr4y6U9/h32bvgRMM5lxHZ+7UKNynKWM1ojA7Y7quIyJKlR9CyOe8m8xYwnBdkjmheeHqn5ujdnOaA90PQoBXGlamB1GyjBTY0aceAjitImHIC7JolJr2s0k8PDY9ffiXP2Gx4mnwGbkx693BkKAz2Ac3n33F1i5sg85S7MRHNKPdShp4N47noC/mbHpNtwWG+5SVz27jS1L7ekBvB2eZP8LWgLEOxOIL0sisSxbWnxRAn5RArG2BLwKFnzxpIoTiVfMCbLIcIHRxY+SD9WAtMnLAsZEOdQSSPy9OhzJIszazky0scqDy7aS+QKyYTeMgVfZgKLqOm219SisrUdx7RhpybJRiDYWiHc6tQ/unkrEC7Iwa2YrFi9ZhJ6lPZg6bSqqqqowZcpkTf5iwFeyudF7vbc3BdhpEFdQT4M+mQGex/0ZavoMYK+pq4FfWwOX6nQpD+wiOWEaqke9BN/vQzRah2hkHaKR7YhGd9yHbR2sSBrELWsDsrIeRUnxKdCpLWp1wI7uQCS6Bba1QkLLGE/OjG3ReT6cxS7cuT78pT68pQ68pZ7kUmA+BXtsFNkNSTS0N6Bsa7mGExIMqbWS79d8cxm/7yb9eXvImPqSZ8Ld4EpRKfmuOZ4U8Ifg96tuDcOSYgxUkKBET6mcWzWxqflMNX4qif8yiHeLJC6ObadYijQCf+111w3JVIyA+K8XqEbufsMZCDGc21Bip/ngwP4DKFtepmroYXPPvyrB3oHryJEfCGC35iBSkQ2/KkBypo/YHtrCKGkQeDXBDuPH7bE27Am2qNftGQ6iU2zxXI8U24jU2ojUR+FuDHM2q9OQ5rgOiVsXHTU5EMR1QQnvpVIJVZhsZjFm2kgzFv9gAu76EjjL8uEscCWpjbvAA5u3kFsXzqIY3HXZOv7jcbj7GhEryFLv9CVLJL/86NENqKutQ21tLbq7u1N2cgFoAvPSpSqtc9u7FD29vQL+KUAP7ekinRPMM0BcrmUfvdI/Q8wUxGNg7vScphkYXf8KfGcZIlYNItY6RCLbEIlsv++aZa2BZU2CZRWbTGwK4hUVZ5CTswSW1WaefTMsa6mEllnWbHFsa1o4A+VTqtE8tw07HjmB7Y8cx/pj+zC1pxMTF87Asgc2YlnfBkyZOgP17fUoWl8MnyVE+e2kmFB+QwR2/YbuFogrSDOVc6Blfh8kmDLbIsPXbicd8/l8eEdceN0u7GkumJTJ30yTHWlIQZ3nhDQnzDXpiXHizQ5OnowC4tg2AuI3BIBhHLihOn0Y146cchdmIAXiGep7OuINnBhE1fJRWjno3yiIc9Fz1+XAmVWCWE0BssYEIp0TYBVcCeiB5JeOTrTF+Y2JgSSD2+ioJIcheEaqorDn25InXlT2oYpQJI9wMSGIhwsKF1Zteh8jmcvioyCuC49ZgEOGQrYhg6HSvTAbJmGHLFw8h577xxLw9o5DUJiUeuK9S5ZIXnsm4KiprpbEHHPnzk05uYXgrVsD5ikQp4SuKnhVo4fqeCOJh8BuGAD2UVtbBwXxfJlLb52H3EkzMX78p+A7y2FZ1bCstbCsrbCsbfdhywTxebCs9cjOehQ1NY+hoGAZLGsWLGsLLKsfltVrQFwl8UWL12D8hGb0rd6CT37+G/jU5/4UH3j5S1i9did6lq3DuSdewsCpy5g6rQ0No8egam4V/O2qTg4BS0xClHrvOogTXEMpWQGc37iY04wULszFLQN6DDGWI54Tw5bDW3Di1AB2H92NpgeaEFsfF3MSxzEC4nceJEZA/M7P8a3dIfQ9ME52YjO/chUDAwOoXF4poSYSS3nLRHk7ufTh9MUFRtWO/q4KBC0ViI324G5m8gsTS0tPXCPZMI+0lIolSFJduFK5fQKns8wzklBaba6SvJHmDfgqiOvCIrHwom43YCwLjgK+LMQC8lwMGXJjVO2SL58gruPmeTI+UcdzPGQSmDaW0kYC/p5K+AUJBfGexZjVOhMNo+tRPaoKjY3jVYoOAThUqy810rf8vUxU65TGl/YYW3gPJXOq0peqbTysTy5q+LTtvLquFl5tNdw1muud6Wzzx8/ClMmfg++ugBVhNrPfFBCfA8tah5yc02houITi4j6RxJWB2QTLIqgzd3q7qNO7ZvdidEMjmme1YdfxQew+fhKb9h3EjNmzMbFlBlau3YYlPWuwYEEPJjVPQUFXgXyTClhkCJVBDB3aRMtz1+hTGU8Ct7vZhyNmAJoEaBqipmq4IWQ3p+HgwRiy1iYxd95c/PVf/zX+8R//ET/80Vt4/OLjGLd8vNRCSDG4mbZtMujXFUB5++0RSfxWQGIExG9l9u7GtSnHNg1bC0H8xMAAKlZUwNtF4Lg5wd2bxzluH96ebNh9FfAnliA5ho5pKn2HIEygpH1NFkIBYwIoQVXt3lRXUk0oKWhF4mCMuglPMarwuORqNyp2SilhP6E9TyRw1qNPg7jck4vPoDoRaTrZUMIhc8FmvPFlLARxjRYQKex4DN7eSsTy41rFrGex2K8pfc+e3SU2clGFhyAuzmqqCg9t35nS97IeVa8LeNMOLkBu7OdiS1e7OQFf1Ol1dfDqauAQxKnx6PWQXzkL06b+DnyPkjhBnM5flMTvx5YpiVPCJog/inHjnkJp6SojifO5M9XpzJ2ej9EtTSiZVgan0YYzzYYtzUG02UF0cgTJpkAypc1dMRcTlkyQsrvK2Cktht+nfsP8fu4mfSqDSTpiMSErwSJODqIMLStiRUWaqJQ5vZV1wd8dIK81Dy996GWpXqYOulfxV9/9K6zbvw7OXEe1EKlKZuae7+nYNgLitwIlIyB+K7N3F65V0NZQNw15UzCnJJ4C8bu6SNyeBUmk26MB7DllsCpKEC/ORn5zEt72dP1mAjcBWFWUzABlnIdS+ePplBbA2RGI1MEqcpTk3c2uMAPe5gD+VhbiydPqY0cJ5GQKVGpmFT5vi2/OpaTvibSf2m6Nwd+TRHAkYSRuLkS0L2pYX8Ca6NKX7tdxciFnlb4EYvvKECuIixMbgbt7zhx0z+kWW3h39xx0z+1G99y52uTYHMyZwxae0425c7sxt1v/ntPdjbDRnq7nmn7knDmm725xnvNqq+CsydN4/MUO8ktbMW3qFwXEo6JOJ4gTxO7HRqCeCCtSDCvCambrkJ39CMaMuYySEh5rhWVRCmfrMZI49+VpxjYmewmZPUmHajRHDOU8oTUdHOYu36JMJ79DAW/DOBLARRLPlELvArMdaphs1iSwLNi2DSZ88VxP/o7ELFCKvhUA57UE8fzWAnz0Ix/B22+/nYqg+Yu/+DZW735AQFz8AUZA/I6jxAiI3/EpvrUbZAJ3GH5GB7eBE1SnV8DfqernWyXKu329FF3Y7MJm9bK6KJwpDtzFISiqfdEfMFXgJHmEOqMJAB+nWlCB2Dthw8oLYPsxePE4vEQWvGS2tCCRAy87H5G6SbDGtcLflysLszj5EPy7Y4gGvCZbGtOmssn1TKGazIM1sQrOpnIBZkr4lMwVrMNFXhdvYTBO+JIMR48rsAelCeQU5CKvqBAFRcXS8ouKUFBSgsLiYuQXsXRkAQq4r7gYBYU8j7/DVip/5xcXyrnhOSwpmV9YhILCYhTyejZeL60EQTKOSF0RnHU5wmh4S13kj5qFqc2UxKk+Zl5xgvgWWJH7rAkwU2XeBMsqgmURxNcgHh/E6NEXUVqyEpY1E5a10TSCeGD25UsGweCgxjwz4RDfp5hNUpobfedkMplbgcmWFPC5XyVhNQPx7zD87PYwv0PRqcSSD7iIjokIaHueh+ysbCQTzEhnIXqbQFwLoMSxcfNG/OiHP8I//dNP8I//+D/x9G89jYaFDXBNxUo1MZARV40W5yzt2Kb1xEfU6beGESMgfmvzd8evvhmIVy2vRLDdN7WG784iMdQiMtzj/oArTmzRZhusgBccozOYAmMoLXsnWNWMUm1YgpULJH8b550TCQiIlxZg2vKV6H34UfQ98yL6PvQqVnzws1jx3Bew5OQFVEwYh8i4FgPieq27uRzepHLUz2hH36VX0PPCF7Hifc9ixfuewfLnv4Rll19BXWsX3KYyuJvKRPXvH3fl3sxEFTeJOChxycI0kADj3NNJd/R92PMmwpoyBtaEOkQa6xFprEVkwljYE5sRmVAPa1wtrFgU1phqRCeMhl2UjUhFgZwXnTAWkaZJiPKaxnpYjfWwG+sRzY9L5bdIeT6ilUWIBg6iOXFEeWxCLaJN9bAnNsDZnCUJfjhntInmVLRgQuOnDIhX/YaAeGEGiA+gpuY8igppTqDUTae20LHNh2W1aNpVhpYd1GIkAuKS5TD0hTDx0MJEEug9ySwofinixEbmUrVHwSBNLrcu9Q6XpnieI1ndfEQbVBIncFsRSwBcQNy/PZI4mRTnoANnnIPO7k4MnjiJLZu3oL6lVio2qhZiKMe2ERC/HQAyAuK3YxbvYB+SdEbs4kz6ks58N3hiABWjK+AWOPDrPfhLuXAYu29Kxcu/Ffju9mIy9MLDOPEYolOjcHqpogxt1SrlqERj1N/GcUz2GUc3lcR5PI5IZQlaNu9C3/tfwOoPvozVL57Dmo8/hdWf+BKW/dYh1I5vQjQF4mQKArj95fAmVmB0WwvWvvghrHv1D7Hu2UGse3YAD3ziq1j94ksY29kGv6kcbj9B3ID1MUoSplHdKvvVRk5pIy6OQ1zITfGGQ9nwD2aBIWr+Abak/B0cNPv5N0vAhvv3xeHvj8M/mERwMAs8Lzio12g/WQj2Us3PEKI4gn0JBHtY1Som5/FcbVmIHVHzA8dOSTy7dDpGj/4ofJ/e2PROX52hUg5Vy/fL9gFVp4skTsBeDsc9jNLSh5GbS8mbkjgBnNoIzgdBnLnW8+DMzXSU5HepUmSoLhep0kiWqX1h7gEBbaOFEWfJuwviYqaib8j+QFTeVHtntmC30SLcomqf95EcC/s9JJckkD8vH9m9OYjRBHWE9EDaCBmfkKbNPEqImY2TJyMmxGwOXn+jTEqRMtlLfqWmhFVH0eHOX2h2U6lftCcjyV7uIDKNdD38GTAxZlSlX7nyTqptWL8eXbO78Nzzz+LZDzyLaatnwN+o4KEONXTUUmkiYF51Ca+6t6R12rCjU20BcRmzED7Dy3z4rI2+wJOa7sEuBVAB0vAcYVgI4glEKkvRuuUgVj33ItZ88EWsefERrHn1CTzwyS9i+TP7UDd+IqLjp8Pfn5NKM+v1l8FrKsPotulY+/KHsPZTf4T1zx2X9sCrr+GBl1/EmK5WkcTt/jIJddPYcmU2RH1q1Kv+LtZ9d8BMWX6PD3+zOg9lLvCcf22G2brFRXRoJimOeCq8KQZvmYd40WSUlT8L2+1FRNTpBLpQpXw/bQnOCuIRqxgRAew+2PYB5OUfQSLJQictiFj9iFgsfsK4cYL4NFhWjpTH9Q54mhToLryn4bzLe+8cStkEZx/Bfh/BXl8iRJjIRWnZh2oi0gDOZxCaOB6D05wB4j+bg9e/p6VICeIFo2z4LOkrwshw6WUExIcPKiNn3t0ZkDyumr5VVeuaevXIkSMYPDmIv3r9u/jKV7+KmStaJbOYSrAkJMP1ijSgntT31EJAL9XNAeyJDpxFalNUL/QAzPNsN9iSV50ettGxNtzlPoLDVKUbxzFxGFLCjVSVYlzHXLSt24jO/q3o3LQWHVs3on3rbsxc3YOSUdWIjp2JwNjEucg4/WWwJ5SgbHQdOjdtQee2/ejauFJa555BtG/ZiYqxY+A2lsLZSBAP1aR0sKM6nQ5NHpwlDiraczGpvRxT2yrQ3FGJho5iOK2syBbOu7GppqS1u8RMpSrGxeD2uvDyJyAv7yLs6CJjE6dtmCB2PwF4+Cy0iTciYhUiYk1HxFqBSGQvEol9CAImdaHqnM++Dpa1GJZFx69mWFaupF31D6okeU/RzD3FUHB90boI4sB2PNT4kVk13/tgGK0Rfu8EdM2jEIL4VVTi7Z914Y3vpXOn51dETHGWNM0N/R5GQPzuAtPI3f4VMxCK4hkZ23AVD506Jbm49+7bizWb16B0bim83VqBjKVApYKQqHuN/fgu2+aGJjqqfwPYzTaikrjFE9s+Y8CdGS6iBUzmYktsqz3VBhuzjqkEnJaGKZ27y3OQU1uEwvIKFFWNSrfKKhSUlSHITcJbWYXgwWRKNerty4HTkkQsK4GiqioUVVahOGxTOlFYNxax7Cw4M5LguVx89N6hZODBWeigo7ceUydXYlRdLmqa8lEzPg8TJpRh5+YWuFNtBKxLHdrNDWM19NyEi96tbtPMA2OEnYpxiMcfRSSyAJZFmziBjiBGlfL91mj3ngDLok18KiIWs9Sx2AsLnjAenCDOZ2YoGpkaSuLM8JYLp8NDsDd8z7f6Du7P69OqcgPeKbMd5y2kz7AoE1XiCrIhiNvNDgZP0iauIP769yrw6sdN7vQiS3LTh3kdhkcv2r/eR+9HQeY3up74vwJlRk69ozMQgni66ArTrp4YOIHypnIkxySQ1ZoECwYEg2FucAJH2PhBh+1eWlAUYLxVLqITI7CnROGt8+FvDRAti4qEHjxoyquudWE3RuEucIwKT6VhBUfl7t15LpwWNueXW7urMavGRqkLUABmMdNrwmvNdkE5nLYEnJmOnCMLTwjEohYP4Pd7GD2jCAvnjUVtYwESZR6K6xIorImjqCaJndtaMLG+FPGlLKZBBkDrsN+OGN3hLWp818YMwQp1qzxEy8bCdU4iEmEGs0qxEyuIMenL/dUi1lJEBMTpnT5FVOYRaxscux/RKO3htH/zmekXsNB4p9ObncydCzHh3FOS771EuyYBkkjcKiSQpsQPJNxSY5bKm2AAdtBI4sdisKeEIF6Bt9/uxOtvZIA464mvCxkAwxQM+S5GQPyOwtBI57/6DKhjm8aJE7xZU5xtcGAQY7oaUL+oDjWrapHclIXgWGh3VUcrcqJqx1UpcviL/51fMARIBWQIpq5I5E6bi2BfDE4nQduBv9uXAi/0Xo9OVAc4faZwwVD1uqa25MJiFglqIFLqbzILmqVKTA3iG2AkVJ5vYs7VeYnXmWc3qm8F8DRDxHuwHKQz2cG8rgaUj8tG+cQc9CwZj6ObOrB91XTUTyxAbJyLZR1jEat24W8LwfTX8B5OKMPjrfQQLWxANHIMkQhtwuUmZ/gDsCL3WRN7OJ3XxhtJnIVQKHn3wIpQ+0AAp/2bAM6YcWomGGLWCMvKgtvuibNgujrZnaeHe4k2hzcWlbYDZjE8FEOwky1A8KD5xsWjX9cjqWFAACcDTNq8BsTL8fbb7VqK9BMZVcwI4owxT8WZD/UORkD8V0eZkSvv6AxobDhBXCvBhttjx05g6dJlOH36NA4dOozaOXWggxVV6SmbVCiBM0MTQWlIbnYoQrl9x+l0Rw2Bvy8QuzKzYtE2LuC+P4ZolS3xupIrnZXOul34OwwYDsbhD/J6qte1RrpoG2iXE9ucgnnKEc3Mgx5Tm3o4RynvfaMuTy/cKgGEiV3CAhIEeYaaRYssNDUUI29sDL1Lx+GrL2zFP3zjDP7jZw/j0JY22NVR1JTnIh53EWzguMIxsd/bN4836yuTkWHFuOh4eqTT6Ys24TJEJMkJ7eL3WyNQU7oeK2lUraAekfwCRHJHwXKZM52SOe3frF5GtTuZGtrEx8GyE/AWuYgdJs3c3Rjvm73Le+0Y6dRnFcDtMeQ8kCs5K0oXl0gqVjq6haYnZjZMqdJDED8eQ6hOv4IK/PTtNrzxegVe/YSFh8J64muNM64A+XDWrhEQv6NANNL5rz4D4pVu8qaHSE4g37dvHy5duozvf///xB/84R9g8bZF4iGdlihD6VHB6F5bBPwTDvzDPpxuF5HKKJx2W5gPSX16JCZOela1BSvfQrCWYB2aBNQrlk5joqI+QRW7cXYzQKkcf9q5z0t554cSMUE0lBhUovDIDAi48j7mGCV1kSCM6p/90HP+mINoVhS1lTnIrvawaV0z/sMre/EP33gU3//qMTz/6DIZt+u5KMrPQpKpLo8wKQ/D2+4OgPNZvOMOOM9kdoJ9PtzZWSCgafGPMhM/3Q3Lut8amRSGldUh4ubCmejAXe7AXRRFpLoCllungC1JYAjgTMsawIrUwSoPwDz9DBVku9fo5l4ZD5lSb6+LxIwklixfgocefgh79uxF89xmZC/PQnBEmVZ+f2kNmZHEBcTpnR7FVQHxWfge1emftHBKQDwCd60r0TWkP02wNMoUMNUAACAASURBVNS7GAHxXx1lRq68ozNAFfq7V9/BVVwxjbZxYPOmzeieNxcXLz+BsxfPYtL6JkMsIXgrNxw6VaWk0tBrndsMG3Habm72h+dlnmNUzNqXxmj/qr/tEw7spQ6io6Jiww72MB2qAVBjV3NP2OIBriAdgriq5USSPxGDLecwlE5V4UzCQhDW9JP6LO6gi4CSOxcESbvKBVrBW4vHxOBJdji9f+gUqBIE92loDJPPKIgHcModzJhcgaKmJJpby/HS6T689QeD+MOXt2PF4iZ4DS4mNpTC9aLw+w2TQeZAWvgsd3ZLxoSqf6ow5b67AnhTsxGJTEMkWgTHyYLrJk3j7/TfjpM0KmaqmX1Ytg/LHaoFsNw73YYaA4+7OtYgB9GaKOKHQ+bNh7eJ9cCzEHGzYLkOIk4eIvY0RCI+IkUW/O08lyYIw8jRvJKqqqcRH5kMpTLN19JSSFcpmhK6uTV6SdFZSI8hfRrmNhWNYmg0cwzyOxzDbWJMWHrVW+ChtbUN/+O//w+VL3AFn//859G2rg3easPwZoK4MNmaP4EOrScHo7h6tQI//ekslcRfDUHckoxvpHEyADqPIyB+I6AZSfZyo5m5R/an1OnXgfiJEycwalkVsnYnkb07C7HNXEhUYhTgJsGEYR/GKUsWJlE5Z4afGbtVCmDUfhwWFNFCH9q3OssR/G7HgpSAu5Qq3gicHoI1QZyEGtrOyITwXubeoWlAjptnFds3AZt/hwuscboJFznuH2TMqgHx1HOGgKpzxuuvXXQz/ubCJ2FlZmzMVtXhoHfReFSNyYFbYaN6bB46p9Zi6uQK+NVRJMYG2Ll6JhITPKk0F74bXZTS91ZQv0N/h+AjC39CytYmWwLUl5SguKQMy1b2Yfv2bdi9ayd27dqJnbt2Yaf5vX7DelTXVCM3HoeddOD2+vC3edc17vPhbdVG2/+db+81juvH5cHfHoe/I1fKZVIDoowMtSGe1Nn2ZKy+VNtylweIxG14u8ms6bctZqnjAeLUnITzaDyw1WGL34cyB2LnFcBRWhJNUKgdMufcHpq5lj7Ex8MwaDIGoQeOl98p1dHULikQ8nlkDLcJxOn4VzSzCJ989eP42ds/S4E4K5ptOrQZdDTVb974o5Buw/dwQqNSTg5GBMTf/mmHgPgnM0F8jblenolzPQLiN4KkERC/0czcK/uvKUWaLoQyMHAcFY1liBRHEB0T1RhxWaw1WQoJhoSb4mYNIKoNmItaGiQFvAYZlsZ9uuBJ2sTDPtw+F26fB79PE5p48tuH33frzZ1BVXoEzrQovBUu3BUe3BWOmAXoiOX3xTREiwsiFyvxeA1t2gbI3wOUfwkYRSVnnGTe6/dw+hAmQ5kFma+DPrIn+NiyuhlTm8rh5EcRr/EQK/cxanQuXjizAnm5MQQskMEMb7Kwqno+5bDzXmMZ7j6pzBZIgRit0vZev7nwqcaBXvGseMeqXL5rw3Yd5OXlobiwCMVFxdJKiopRUqy/mYs9FniYMWoUsjckJUY/OBqAyTx8OlBKcxFnulwC3dHYLTf2Lwu9MKA3+m38HkL/h/fYMn1v4lhSi9CEjKBJiUqA9Y+HzxATRyxGGlgJC/4B/aY4Z8oUMuOdAUVhFEOGl6BinEe3+gj6fHh9rib86XPlt7fSFZp0V/Jvfsu3Ti8e7yM04glNSoKhjQRq846Fdk3Il3zThglO5QsImdDhgOLNQdPfHUNhaxE+FhZAAXAFV/CX3/1LrD+wHu5846siAkRCmXFJl6yMD23iBHFcpXd6hzi2vfpqhk2c0TbyXPoMIyB+Y0AaAfEbz809c0SlcarRNdELVesbN27ErPZWXHzycVx830VMfmAS/E3GMcxI5CoR6MJEyZpNpYcQ6E1JT3K5BI8MMKPUFcyIobq5AWWNVdJKJ1SCrWxC1e1pDZUora5E6ehKc49qlDVWoqSJ9xiF4sYKxLpYP5yqOS0vqtqAcDEyi+rNgC9czDIl7V/6fROAD/uWOaVUoecyG5W/1cOozlyMG1uEKU1laJ1RhZbmSkyaUIpJbeVwuRCJbdAsrJI+lvPM93Dnm6pYlSkTL2L6Gqx1ESmMIOpE4Lo2PJug7mhzHPgef9vwHRu2HUVOECC2PoYgzMSVAgo+BxkqlQ4zv51b+3375kVt2vpdp6RAIzFLAR4C+rEY3C0E8QiCA3quXmcYL2G+tLytlLjl9TIHHry1Doo7SjBqch3KmqpQ2lSFsqZRQhukkxLTbhfNlDRWopT0MaEKJRNGoWR8BXJn5Avdp7RW4thq6JzfmDAxyrTLHAjzweM3B+mhjrMSWnxtEjOmTce3vv0t/PM//7PUFH/mmWfQtK4Jsb1pjYYmPTIMBenohA9nqo0tm6P4zndK8I0/nYxPfboIZ89Y2LTZQlaWBY+SOIWKFP0ONV59d+nzeZ+ROPF7BsR+0wcSqtRx9QqkXbmCFStWYOXKlfj33/g6XnvtNXSu6hRpVkAuBGNRKas9NwXiKYmcEpTJgEYpRaRdI/EyjKrfQ6I+iclTWtGzdB2WLNPWs2w9bk9bhx7p0/S3dD2WLNV90v/SdagZPQ5+ZQz+RvVUZYER2r5VXUgAJ9Ni1OQh2F6/DediqO311133d1odroyDMEgnAnj9HnJ74yifm4NRHXmo7MpF0ZIs+Ku58HPh4mJmQFykkszF5s7+TqtbzQJKRu5wAHeVB3ehB3+hi0C2muLWX+DCX+RoW+jCm+/Anm/D36uMgPgdyHeSTrqjZojwOW4VgMN+bm2r7yoci/ZldzvwdhpgEBBWTRW1JDQHWIkoYgLi6etSWgGCPbVaoqkKQdyHu8xB5fRatHcuQM/ydViyfD16hT74Ha8VOuE3rd/1baCbpevRs3St0uLydZjVPhfFTeUCeMoUGju++dbT88BvMEMbJAzkUKB48+PCIB6KIasvgXnrurFx00as3bgWk1ZOQs623JR5SzVQhk5D2mV9+04bM7oiOHIkiQMHStHfH8ei+RamT7Pgx2kT13fF64URGZLpyPxm+A5HQPw3HTfvnef/JXW6Avn27dvRMrMFhw4fwu79u1E9rxr+DqMOT6kDEwIkqpa6lsBVbX7t4qT7YrJou4tcJMdlo2XmbOw+cAp7DjycansPPIzb0fYcfBi7D2q/e3mPg6ew2/S9e99JjB0/ET7LjDLRS58Hd4c2f7sPf7sHf8cw207apW+x7fAQ7PCl+Ttd6c/b4cPbEcDfSDOAC3exB6/Xh0fP2h2+tp3cBmoX52+2XXeppe4diCrd20sveYYF0XbNxDrUJhgbs/z2BNDCfe42F2ypMcv4r53HILWPz8bnvJXmg/3drA3rPfK7MM/obXDhzHYQbbRht9hwlzjifa7vjjH8VIV7sOJReOt5Hd8Xvyt+Y2Zu5D178PjNbfekciDr3ttzbVRNqxew3mNoROniFPg9a7s9tBLSG2mEbe/BU1i6YoNI5Q5L+O4iSJPBpMYtpHXDkJCZZJipMOsEO+6/OUgPdVy1PMoYkJnx5rhwyCht9MREEWqBtJ8MxsgwUO4sFyvWOPjc53Lw8Y+X4oknAhzYb2HpMgsJSuJrQ3W80SYMOd4REL93QGtkJNfOgCRsy1ClU6WOKxhgxrYpZShqLUTxvCLQhhxyraruU040lCDFpiyqQe5XyZCSlcY/8++YOCVV765B/erR8Oo95I0uwKy2uTh49BwOHT2Pw6Y9eOwCbrkdvYCDR8/j4LHzOCT96z2479CRczhw+DQaG6cgOz8HiewkcsbnILcjz7Rc5LXnIrdjeC2vMxc3a8PtJ78jD3kducjryEFeaiwcUw5yOnOQ25mHPLaObN3XkS37c2ScHL9pnbnIvdU2jGfnfXPacpDTnoPsjhyU9pahac8kmTc5xnGHYzJbHWsucjqykd2pLbdTn0/P1Tnn75zObPBYut36c93sPfHYcN5VTnsupLXlIHtaNrJKspAzLhtZ5TnIrstB7vRwnDnIbc9DzrQcJAuykdvKd6vvU+7Trt9Z2F8uvzmzj8fj4+KobRqD5Sv7cfjouRR96G/+nd53y/Ry7ILQitALaebYefQ9sAUVDTVINmXJcwTzfalcRw1Q6KCndE/mnmBIcA/DNW8NxNMgr1KvOA/SP0G0AEbql/upsyDXF5WOVZNBm/jRIz7e/mkxfvzjSnzzmzF87GMWjg9YyMu34BPETV/DYzpGQPxa4Bj5656ZAYkTv3IFV69cxRVWMmNZ0qtXsGfvHgFvf60ntrxQdZpSAWZ4gmrIFAlL7eKqFqVd2dh4CebbAtStrMeG3RuwfNky5GRnY/ToBrR1zsPRExdxdPAJHBu8iGOyfRLHBm+1PY4jg9rv0cGLODJwEUcHnsCxAf5+HEeOX8CEiVMxftx4tM6cia7OTnR2dZnWia7OLnRy3zBaV1cXbtaG00dHZwe0daKjk202Os0Ywv3sp6OzHR0dbeho70RHhzm3owMdHR3o7DDHzN/cdydbW8cstLeztaG9ox29vT3Ys2cf2js6Uq1DzmlDe3s7OqSFY9J97e0dcozX85xrGp+nPTz/9myH8y6GOic1p/I+9B3oNfxm0u+ts4vf1Gx0dHVJ6+qaja6uDnTKuzbX8b118XeXfHNd5jvgtzh+fCMmTpyCVau3XEcbmbTC32y3Si9P4ujg4yCtCC2efAKr1m5H3ehxqK2pRU3lKDQ0jEbNtlokdmXDfzBM82scXEPp/LaBeChdG3AW9bUKDpmqfZXI1S9HhQsFeNZCOHw4if/vf5bi//nv+fgPfxrgwx+xcPyYAfEw7Wo47hFJ/IaYNOLYdsOpuTcOXMG7eOfqL5B2btPUbavXrEXWjCz4m0g4JFS1U6pKXLnfUPpmTLR45YoNmeBt1G0mnIZFOiip7Ti8Ey984AWsX7cepSWl6OjoQlvXQpx46DIGTj2Fkw+/D4OPPH1b2vFTT2Lg4csYeOQpbQ8/jcFT78PJU09j4JGn5X4TJk/D0t5lOHH8OM6dO4vz58/h3Pnz0s5ze+4Czp07N2Tjubfazp4/i9PnHtV7yTh0LBzT+fNncUHGdQ6nz52Wc86fuwC2s+F4z3EMPJft1scznD7Onj+Ds+fOyNxx3s6f49xx3NrOn+f4TuPsObazOHvunIyZ4+a88pkunH8Mpy+cwRlzXOb77DmcO8t+z+A8r7lNzzOcdzm8c87K2MJzw3k/x+c33wuflc8s7+k835XOj2zleTg353Dm/Bn95uR9PmbO029x7dr16Ojsxup1OzD4ML9b0sf1NHL93786/QyQZk49hcFTT+Pkw09j7YY9aJo4GTNntmBC43js3L4LK1b3IX9WAVjml9K4Mu7UuNEu7d22BDZcQzRvgq4/6kSr/in6W9X2nmEaMiNlOCan2cXJwRL8yy/q8X/9fQJ//CcuPvSShaOHLeQWR+Cvp78OI1KMX8kIiN8QkEZA/IZTc28ceC8QF3X64ElUrahMpVolkYRcrzpThbYv5ZiVsDzxQhcVu6jcVDr3Vjjo6uvEY49fwEc++mHs3LkDY0bXY273fHTNXYqHTj+Lh888g0fOPIdHZMvft9YGH72Mhx59Hx4+8348cvZZ6fvhR5/Bw4++H6fOPoOHzrwfTc0zsKJvJR5++BFcunQpo12W35cvP52xL/P47f/95KUn8MSlx/Hkpct48tIlaZljeurSZTx16Uk8eemiGdOTuHSJ7X2SWS/z3Lv1m2N+UsZwCZcvcc6eMmPRsT19mX/zd+Z8PYUnn2R7Epcusz0lCYX4zNde/8R7XJvZz6/vd/iu0s/1FJ6+dBmXL13C5cs6Ls7Lk08+gUtPXj9OnSd+W09efhJPXL6IS+Ya7Y/H9fvb1L8ZXbPnY+2GXTh1+hmcOv0sHj37fAad6Hd9q7QSXj945n146PRv4eHT75e2oX8vJk6agrb2WZg8eTIO7DuIVWv6UFCSD68nQOwoVeZGChaves1yeDvixWl3dyQjIFM9qwROzV7aBq7CAoGemkAKGeF5VO3bzS4GByvxv34+Hj/8Ox+v/TsLz33AwuFDUeRVRMVvgUJI4kQMiVS/Yf/vtR1Rp98biDUyiveYgdAezlIoag9nPObA4EmMWj4Kwa7QDvVeH3bmvnRYlhC2gL4SmjPHxnOvPI8/+IM/wqc+/Rl86MUP4dSpU1iwcDFmz10qC9Ppcy/gzLkPaDv/AZy5w42L4ZRps7Bm7TpcuHABzz77bKoxjIUtc9/I7/T8jMzF7ZuL5557Tr6z8JvL3G7btg1z5/Vg46ZDOHP+BZw5/zzOXvhgijaUZp7HGdLO7aAX9n3hg3j03At45Nzz2Lj5ACY3TxdT0dSpU3HkyBH09/ejoaEByc6EqcQWM4w7mfwMRn9YwJi5flz3m1ntjickoZRIy/TyP6aq+xiTK0lIpqZMDQbjYAvzI3AczNg2OFiLn/98Gv7u7+L42tcsvP/9Fvbus5BTZRkQj0s0ikSkDDneERB/D/AY2XVvzABB3AB5Rta2E4MnMGp5lXo6iwPIdUR23UevRKWErOEmxtGF2cdmO3jhEy/gj//4j/G5z31O8rLX19dj4cLFmDNvGc6c4+LxIZx97EM4c5fao+c/ICC+fv0GPPHEE/jgBz/4G9M+8IEP4N9iu1/fEd/Fez3bzp07MW9+LzZuOax0QRoxdHL2sReFXs499kGcfeyDt4luXsTZCy8KLZIO+7c9iMnNM9HVNQdTp03DwMlBbN68GWPGjEGy61oQJ4BmauDSjmk3XzdueB5NcccS8I96sKe6sEojiNYxisSFf8SAOO3Z1AQYh9oQxClhK4jX4ec/n4H/9t8S+OpXLTz9lIVduyxkF7IUKZ3xRkB8OBg0ok4fziz9ms8R5zbJoX4FzKXOvwcGBjBqxajhg3iYBUu4cSUQZvHyjwdwOm186NMfwp/+6TfwpS99EXv27EFlZSUWLVqC+fOX48LFl/DYEy9LO//Ey7gb7ezjL6J5ehs29m/CU089hZdffhkf/vCHZRv+5t/3Y+Pz/Vts9/u7uP75SCfzF/Ri89bDOH/xJZy7+JKhjQ/j3MWXcYHtNtIL+5R7yPZlbN52BM1TZ2BudzdmTGvBIw8/Aoaejhs3DsmupKwNCqAEVdqraVr7FUH7va47EEO0JIKzT5zFV//dV/GJT30cC1bOR3JJwtQ8oB0+tJmHCZWo3o8L8J8cLMe//Ms4vPWjGL70uxYuPGZh6xYL2dn0TqfAERcVvITMvdf9r9k3Ion/mmFq5PY3moHMeuKZzm279+5ByfISBPvCRApDEachJhOnKeEejCkdiCE60cZLn3gZf/Zn38RXvvIV7N+/H1VVVejpWYoFi/pw8cmP4PFLH8Xjlz6Cx+5SI6NAEN+8eQve//7345VXXkm1j33sY2DL3DfyOz0/I3Nxd+aCdLJo0VJs3X5E6OOxyx/F45c/iscupRv/vl3tWtr7KLbuPIbmaTMxb958tLS04uyZM9i1axcaGxtFEmd8/zUgPgyN3XBBPjgQQ86SHMm3/zd/+7f46dtv4//98Y/x2c9+DrP758BdpQmahHkIQ8WYQIm+OMfjWop0MB///LNK/Nf/4uGLX7Jw+kxEMrZlZ1nw15ixG7Pf0OMaAfEbYcjI/l/zDKRAXMLM0jXFV/b1IXtpNoLDqiYbzkeeVqdlqNYGYrDH2Pjwxz+Cb/3v38bvv/b7OHTwAKpHjULv0uVYsHgVLl7+GC4+9QouPsVt+Jt/37nGhbB5eju2bN2G559/Hq+++upIG5mDe+obOHToEJYsWYH/n73vAK/qutK9SLf3fq8qIJpoEgiJpt47EiCQwBgkgUQvEhLNuNuAbcA2rpjeMZje1a4ayThO3iSZGdvz8mZeMs2emZc4ZWaSiRP/7621z7n3UkUSG888S9+3vnPu0Tn77Hb2v9baq9QubMTzL+y/6/fw/Iv78PyL+78korIC31xNXSMSEicjJycXkyZNxjPPPIXFixffFcS/bHW6ZpEWziQHjh89jn//93+DsNgB/vz738cjS+dximG/FE4aANoTZ68YHbQNWoSOU6K4RIPjJww4fkyJrVsVqKpSYPx4BTQaEeyFn/eHJ+5bSBF+5UKFz0JKf9jVrxm9+l/PPcCxXiDcymRJ/KOPPsKkvInQztCCkj2IydvXJBeRj+T9KdmSnd09EpTYe2wv3v+zD3Dt6nWsWrkCgwZFo3RaOXILZvICtOWlAyDaSrT94FdOtPAlTExBdU0t7w8fPXoUwXTkyBHIFHy9//zWfurvj6+mP2jurVq1CkXF01Fb18TfhgzWge+DvpUv73vZsv0gtrwkiMqtrW/ChKQpyMvPw+TJk/H8889h2bJlGD16NAypBqgXigBQwjNF3qcWHil9M/33X0809VoOjLNzx3b86le/BMjs9gvg2tVryJubB1WhFKyF3NwkIzeOJkcxKRppT1wJb3II0jdrMW2VBVOrQjEoWwF9kgIDKGJblfq2/AL3r08AwPtBvB86/4v1AHO4bNgmG7h9wX65kSWRoNCRHInpQcIoSmp0P3csx1ImV5E0Jfaf3o8PPvgubrS0YPXqVQziJaXTkJyah5r6JtQubsbCeqKmh0K1dY2IT5iM2oWL8Oabb7LBHRndyXT8+HHIJF/rPwb6p78v/vS+uN/8ov+tWbMGqWmZSMsoREXVQlRUEi3CrKo6poqqRSCSf/+px5lVCzGzcpH0jkVIzyzG6DHxyC8swNSpU7Ft2zasXLnSD+IU3le4mIk9cfHtfzkgThpAwyw90opSceToEbz//nfQ3dWN5Y3LEVkYCfUCOW6FiFEhS9VyDPrQNCUUWQOgX2KAs9QF1VQVFJMVUKQr2EiOchLIcS74eMv+990AXRZm+kH8vxiE9VeHIrT97gsyaPsCv/3t53j/z97HmLwx0M/Tc1pI4qj1TYY+DVbERySs04UUTpOdPgayTg/FwTMH8T++/+do72hHQ+MaDBo0EMVFJYgdORaxI+MRO2ocYkcSxT0UGhE7FsNix/KeGxl5vfvuuzh16hQfbz+n3/3U3wdf9hw4efIkiO5VLkm9I0fGwmK1wmK1w0pkccBqFWSxOvBlksligcVig9Vq4/eZzHaEhUeIqHlTk7HjxZfYzWzMmDFiT/w2EGfr8D7B8G4Aeec10uipViihnKrC0LRhmF1fhcJ5RYjMiRTJSySDNvVaeW9cgCxrAslPvCgUIbkhMNQZ4Kh2cO4BRZoCirEDEBofyvHryRVNAPmd779Tk9AP4v1o+TX1gFCXkzJK/Mkqc3kv/PPPf4tf/uqX+PHf/QQ3v/1tpJWkwrLCIvI5c45kEdGIVFUEzuSWwecc5EFcE6AtAFzeK+IPxA/iITh89hB+8MPvo7OrA2vXNmDw4EGYVlqOuLiJiIufiLhxkxAXLxGdf8U0Nn4ixsQlYVFdPfbs2YPTp9/De+8JOn36tP9cvtZ/DPRPf198OX1B84wYx3vNt8rKSoyIHY3hI+MwNj4J8fSd0PcifzP0O36y+H7ikxD3J9KouASMjU9E/DhR1uCYEXA4XYiJiUFqcgpe2bETjQ2N8IO4bNhGBmVsXCYx7lKkRl4r5KBPHII5sF7cCZK3AimD+FoVJ1gi1bcyWw1liQbqOsoDT+UIy3IVgbhsTCuvT2sNCE1QQjVfCfcHTgzuHATdXi0UTyigmKfgRELaJcIQV2gab3333esW3EYpFGz/nvjXhGrfoNf+5je/wSeffuqnT+n8k0/wyadE/4R/+Ie/w49+9Ne4ceMGahcvgn2wA2rKUb2GPhJhvRnIr03GanSNfCvJ6lwjAiXwR0rXxZ44f8xSekz+QCQXs8PnDuMv/uIv0N3TjabmJgZx8tFeuKgZNQsbUF27RhCdPySqW7gWjQ3N2L9/L86dOy/ROZw9e/YWOnfuHPrpj+8D8kgg6u/DO/sweK7d3j8E4gSo+YUzUVO7CjULV0vfCR3l8zWoWdg3VS9cg76pkb+9mtoGEBUUVmBE7BhMmjKZcwhQkJ/1TesRN3YM9KkGqHhPXFKlr9VBTy6la5W8BafnNUAGbWL8pb1reV3pS2KnYC+3MANSohMOlSoBOQsZwV4x0rrVoEHouFBo12kQ9kUYBv50IDTtaij2KqBYq4CCEqBUEvjTnj7V/0Fc4/pB/BsEnf91mnrp0mVoVBoYjUaYTCaYzWY+mswmGE0GaLRqKDWh0HhV0ORooaGISA30UcggTnteGuibtBzakN03WBKXP0raj6IPl0Cc9pikPXTpA2YQ5z3xUBw5dxgfffgxbt78FpqbmxnEy8pLMSFxMswWG4wmC0idZ7KYHxoNHzaWE3bs338A589fwIULF24Bm/PnL/JvGYT6jwKM/9R+uB2s6PefWub/D88H9wu1p6qqCkOHDIfT4YVeZ4ZBb2HS640wGEwwGs0SGfkbp+/8nmQywkjf/X1JfIf8LRotcLvCMH78BJSUTOOALxRdbl0zgXg8DKlGybBNDU0TScwacHIk8hdnLZ0Ad1JXC8k5KDzrg7iiSQAuwJ8EB0prTOuSlJeBwZzWHSIZyKW1iA3bQmFcZ0DY52Gwf+qEqlUFxW4FFA0KKCIoYpushqd6ShqE+zIW/SD+XwfZvkE1oQhpYbFhoExkmoV6zl9MuZR1C3VMHFK1XgvdEh20q+gDoSAKRJLULUvbPMmFCskfIYk/nGCLdAHoQiKnMiRGoEkHZZoKRy8eBfl7fvvb38a6des4qcKePe9g16438PLLr2Dnzh2CXt6BnS/vfCh08OAhvPvuCQaQS5cu4eLFi0wE5kTy7/6j6Jf+fni4/UDGg++8swevvfYGXn11F7tCkjukTASqD0oPFir3Vezc+bKf3njjLY4kt2TJEpbEd+3ahfXr1yMuLl4Ee2F1uiSJy0FXKOiT31pc+G0HDMgkNfQDSL60fhBoy3HNKSBLIDY6JS4h5kBiFPyqfOndjTqETlDBwvCAUgAAIABJREFUvt6B6N9EQf8TA0Kvh0DxhgKK1QooIgnEpUAxpF3sB/H7omJ/xLb7ds9X+8+2tjZExoskJtoGip5G3LLan73HzzkzNytzygEAJ8BmkjhgEVhBAnOJU1ZmaBAyOBQhESESDUBIZChCokMQMiQEqiwVlEmhOH75GH70v36E73znO7wQTJkyBadOvcsq7AvnSMIjaUymL0fi60s6u3jxAi5duojLly/fRpdw+fLdrt9+X//vO/uuv0++jD4hppLowgXSBhFTeR4XLpyTjgGtUV9z/A/7P2miLuDcOUHEyB4+fAgrV67g+OmvvfY6NmzYhPj4OJjSjKyyDokZgJCRIRgwaABCowZgQFQIf/sDBoYgZJQSmkcCkjJp6sQa0vcedLANDidU4fVGksJZug9I4YH9eAHuFGs9dEIowtaHIfbXsdD/rR6KywooXlVAsVwBRbgC6jkiqmTg2b7q1C+Jf7Vo1V/6XXugtbUVEXER0NRr2HdS7P8IFbngZCmFoFB/cZIBBnlSWwnuVOx9S3vdvOctfDCFmlwHZaoSxigTvBERcLm9sNmdcHki4PZGwBUWAXd4ONQuDUanjMfVluv433/zt/juB9/l5CfkskIGUlevXsHVq1dx5dpVXLl6hYl+f/VE772CK1euMt36Pvrf5YdQh4fRzv533Dq2/7X649q1a33MM/r/ddzrvitXruDqlSu4duXqfenqlb7bfeXqNQiS772Co0ePsEtoWloa3njjDWza9BiD+MC4KJi9JgwePgL55RXIL6lAYfEs5BTMQMywkfCGR0JvNUIZp4bmkWCJXM/GsXc3HgsGUlp3JFBeooVmjhbaZQSkkmBB0rNkXc6Sv6xm52cEiEevj0bcf8RB/zcSiO9QQLFYgLh2joozmAXKC3733c77QfyuINN/8avtARnE1XVqaa9bcMKsPvIbokkgTeqpoP0lGeTFfhOpxiX1eNDHEjo0BN6ocEyalIbx4ycjNjYeExKTMSExFePGT0HUoKHQ6Y3IyCiEr6MLP/7fP8b3vvc9bNy4ESkpKWw8dv36dRBdI7ohjvK1h3G8du0GL5DXr1/jeoh3XuNr167R4inq9zDq8t/tHQQsfyz9d2vrV1lfuQ/v/o4buH6dSJ6HNE8FXbt2FYKu4TrN077IX4Zc1q1H/gav3+BvUX4HqfTJXz09PZ3jKWzevBnj4uMxfMRwOJwOFJfOwaHjHTh03IfDxzuw99B1lEyfh4mTM+HxREIdreGkJUKlHth+eyAQZ6DWwpPtRuL0CRheOhyWUgvUNUIK94M4rU1ssU5aRFqntCyJCxCPh+FvDFBcUECxTQFFLfmJK6CpUkt2Pg/KVPSD+FeLVv2l37UHAiCuCRisSftVQpomjlNMelKtC8ty+tD0fpU7XSPQF/tRt348BOLRQwYhN3caUtPykTAhGZlZxcjIKkFqaj4iomPYACcjsxCdvm783U9+gj//8z/Hpk2bkJyczNbKZBl/48Z1XCdqofOHTS38fqrDjRt0TiQvnOL48Ov0sPvgj3tfAFhuBYMHud7fp4E+l/vrwfuE5ir1uQBzMXcD5T14Obc/cy3o+7uOlpbr7Mfe0NCAjIwMvP32bjz2+CbEx8VhROwIOF1OLKhdje/88DN85wef4YMffIab3/kEC+qakF0wHVHRQ6AdqGMQJ2ClvN/yetIXiJOHjL5WjzF1Y/H01qc5muJbb76FzPJM6JJ10MyXLMvXqkRAqqA9cxnEWZ3+H7Ew/E8DFGcVUDyjgOJRBRQOsk4Xan6hqu87DkZA7S5rA4QBsDJDibo1daAol/+//vXviX+NI9va2oLwsWHQ1smcKgE2AXdgP0kAtAifKHPLQuqW7yWVuxpqcsfgrGTCIIQmtXJYKKJjBiEvdxpS0nMwLnGKBOLFSEnNR3R0DPQGE0d+6urswd///d/hBz/8AYibT05OYYMyMr5rabnBaUpbWlvFka/R9a+OAgsdvZPeT0Tnrf6F7Kt8f3/ZX93Y/nfp28AclOa/NN/l69SOGy3XcaPlWuAbaWkBMedEX3Y7b7RcwQ1mpAUjS98EBaJpbGzkTGZkZPfYk5sQFz+Wg9C4JRD/4Ac/w3d+8DN88MPPcPODTzG/rhE5hTMQHhENVYQGqjJaMySNH2vyCMzvprIOXNMs1cKUZ0RDYyM++/nPpXTJX+Ctt97EqJRRUOeIiGvqJmWQj7pkpb5Kg9CEUNg22BHxq0ho/koDxSkFFI8poKhUQGEWqUgJ7PtBvG+A6gfxvvvoK7tDgLgX2kVkySk4RwZov5+3UK+LffGgD4gtNuUPTQJxciNplPbE+QM0IHSYEgOHxAgQT8vB+MQpyGBJvAgpqQUYyJK4EZmZReju6sE//tM/4C/+8i/wxBNPsLUrWTu3trZJi1Ib2lo70Ob/TYuVTGLRkhevL+MoA3ZrS7sE3mJxbGuT3yW/u2+waW1pBZG8qLbejflo7asc6fk+77u1HApjS9RCz/2Bz8r1vddRbhcf/WMR6JdgILnfmDBzxsAjP3tbH9/RX4Kp8rdN+v9d+5Xb34obQf1/r/Y86PV7vafv5wUTKN8n+u/W8ZL/5z/ekPvibsc2Cbyvi29BmmeBvm5BK89X+Ru6WxkPfq2l9bo0j9rQ0krvbvGDeGZGJva88w6eePJxxMXHcehVj8eNBbWrQCDOQP7Dn6H3g0+woL4ROQXT4fGEI9SpgrJYgLjwy1bxWtQniC/SwjbZhgOHDuLf/+3fOVoVBar6/g9+gHkrHoU6i2Kfa6FuJlexgBDCW4LL1ZxPXLdeD/PPLAj5figUxxRQNCugmKXAAIucT1zSOjYZ2I9dtvUJ1E3efxcahIA0Ln7TWtoviX9l8NVfMPUAAWJUnLBOJ8M1IWEHrM+FpSiphwIAfvdzyhIkq9sD9zKIDx2CnLwypKbnIyExmVXppE5nSXzgYBgMRqRMzUJXZzf++Z8/xYcffojHH3+c98QJxNvb22+hDvrd1gYC07a2Fqb29ja0tbf6iX7f/tztvzvaO9He3gGy0G9ta2fy39NG7yDqQHsrURu/k/8v/Y/e185E9aP6SET3ErW3o00iX5sPHW0+qU5toDa0cR3pvja0UjkdPr5fvFdq8y3v7URHO91Dz8jvlt9DZVAfSHWmOrZ38H03pPLbOtrQ1hGoE9etjdrfinYmaiP9n/qVKKhNdznnMWhpQxtTu7i/9YbEcNFRMD0yGMnAwv0tSYp03t7ajpbWdsGsEeC0iefofnmM+V2t9K5WtPH1FrS2t6ClvQ03qK6trfC1tHNZ3AaqrzwO3KYO3KCxZKJ5IvVV0BiJOdOKjg6fNPZSm6gsabyoj2nsOnkcpL6U5qCYf3Qv9SP1qRjDDp5DNE7U1x1oa+/gsaL54WuneUH1CoyLPAd5frW1o4MY1/Z2tErEYyzNOyqrncqgsrmO9JveS/OD3tmC9g6pLlJ9+HpbKzqo72/7tvr+7RP1oPpyeW04/d4pNDY1ITMrC3ve2Y2nn3oK48aNQ1xcHMLCwrCgdg1L4CSFkzTe+51/wqL6Zs5OSOp0jUsHVREBrdiWIyBkm5w+1hztYi0cWXa8sG0b/s+//h/87ne/w29+82t0dvpQvrgcSipTMrYVtjySnzrb9WgQmqhESGMIVJ8qEfodJRQHBkCxSgFFsQIKp2Sdzq5l5JUjxb3gvXWqn7gWAG1p7eP7+9Xp/ej6EHuAFtEocjFbTFaesjqLuEjJwE2OHdzHB8UWnH2BeFoe74mnZ5UiPasYKWn5iB44hEE8MmIQW9j+y7/8Cz7++GM8+eST7LJClrV3W1h8He3w+drR3tHBwMRHBvE2XoQ7OjrQJ0kgR4sa3UtlEJDSIk6L4h3P0zX/dbpP/KYFXQZzHz9Pz4pyqMzAM3KZbRwfvqOjDT4GBVp4O9Dh8/F1fkZ+Tnof1au9g0CcGI92dHQQdaDdR3Wmc2qDuEbAwOVJfdDeId4n2hd4lp/newXgdxBgEBB0UL+Ksu7oA6lMuu5rJ6K+6hR1kcBDPBOoz/3K4P9J/UpgxIAkjwG1mdrHbQyMMz3jByL/+6kOom9E/8h9LUDN/567tZHAtI0AVR4rwXDRGPp8Pu4PBnZfB9p8AsR5TIMAkIGV60V9SeDYCh+VS2PGfSb3h5g3PH/lPmYwF31P/U9lCwaMyqH3yfORGLUWZhKC51Rnhw+d/veIeczMGoO0/F5prJhhEPWjOSPmBD1zAzRPRF0DfXfHbz/T4IM818mDpIlAPDsLe/bsxtNP3x3ECcAZxD/4BAvrBIjHDBkOHYF4gdIfkCUAjAFh4F6Cg3GlAXEJY3k74dNP/wk//MEP0dDciIFVgyR3WdkYV94eFGBM24LK7FAMaFZgwPcHQHEtBIqXFVAsUEARo0Do6BBoaoNU6RTAigCcwVw2/iWvHRnQ+yXxhwhb/a8K7gECcfYTl0BcSOIE5uQjKdOXJInfB8S93nB24yIQ/+u//mvOkkYuKwTiwQuJDOg+AhGfBLgScNJi3+GTr99nIQoCIrFYCgCVQZTBkABKBhMql94X9JyoEy3SAaLnAvcEFjlemHnBDgZG+r8AQrFwt6HDJwOsdJ8EKv62+ggQqM30f1pwO9HuI5Kfk+vp434Q90llMYNCizU9R0TlCOAT5z50tsl1vrW84P6/9dwHHwE4gQz3jagX15fqyOMh/0+qG4/ZbWMj9S/1P5M0nlymNKZiXKVxYoZGgFVHR5fUjtvKvGOsJCBkkAz0CbfdD96d6JD7uF30Bc0xH12T68aMI2k0xHzwjyG3gZ4RfUB9LOaGPGZyP3SyF0ZnR5cfBOVxonFso/KpPn5QFgyVGDe5bGqLXJ5Uz+D5yXWR76WxFu3ldlDf+tsr+kwAOWmCxH23jvGd/UqMGxOPk4/dQGUQ37t3L55++um7SuJ3A/HhI0bD4DFAVSCkZt6DlqTfuwP37cBugH6VHrohOrjCXDBZTNBN1rGNDxnaElgHpHACcqFtJLW4tkEDZUEoFNEKKEYqoBgtXMsGDFFAs5BU+kKVTnXyl8HCDTECFFI6sNUY0FjKEnm/Oj0YZ/rPv8IekEFcvVgYpZERB0/OIDcxciXr+4N6AHW6ZJ2ekV2CjGySxHNZEtdo1PB6PewK86//+q/40Y9+hGeeecYviYuFVEhFfM6SB0kfYoElaYeo0xegO57hxTioDOk3S7f0vK8Tvk4fOjo70MnA0YnOTrpGC3g7Ll6+hOMnjuHY0aM4e+YcWm60MhNB93bSM51S2XLdfD50ykTXpPMjR47h2LHj3FbxDNWdAKENPmZASMPgk94dXF+pjtRmGUAYWATAkFbC52uDr7Od38X38DXB1NzSH1wGta9LtJvaLhH3of968PvvPKd7qc7UP6RCvnDxIvbt2wdfZwf3G/UL/18C1FvqEDQezLz4297B+/fvnjqFfXv34uS7R9l1ioDljueldgiADTBw/vv4/4F603jK5L+H2yAxPZ3U7108ljQ2XH9ui4/nBs0Pmg/cV/I4UL39daP/SWPHzACBorhG/dDp6xLlSIyBmF9UP2qb0CxRX1B58nwJ1JPqSGNN90p14HLa0eXrYBLvEH1+a5niGfL+oGdFf4t5JsYqaP4GjUvwu+Vzqtd7753hwEd0TtfPnDmDpqZmZGdlYd/+ffztkjo9Pj4e4eHht6jTSaVOe+IkiZO/eETkIKhtGqjyyQiNQFMGwdvB+l6/CZQ1UNeroF2ghbZGD+0yHbRrCHgDUjKDt6RppHNhoKuFdoUG6ukqKONDETIuBMrkUOgWqaFrkKTwoHjuDPxB4WKFyl8wCnp/veX694P4Vwhb/UUH9wDtO0bGRUBbJ7tj0OSX4gtTkBeSxr90EC9iEE9Oy0VUdAy0WjXCw73sDvPTn/4Uf/u3f4vnnnuO/U4pCEdXVxeTvAALsJaAUVpUu3x0jw+dRLwABxZs/3NBi7h8jRY1XjD5GflZsbCeP3ceS5csRXZ2FuIT4zEyMRaxCbEYPW40Jk6ezHGrKVSlAL7A+7o6O0EkvyP4mFKQgtHlYzBr4Uy8s/ttAaTMLNC7CUCk57qIgejAli3Po7KyCiUlJSgpKUZJUTGKiYqLUVJMxyI+LystxbZtW9HZ1QlKm5qSnIzi4hJBJeKekuISlBQXoaSoKFAGlzsNM8vLOBKXzJD46yHX5y7Hri6qq+iz1157DeMSx2Hk1JEoLC7E1avXIP4vg9jdwVS8x4dLly/j6WeeRlnZNCRNTMKocSMRmzQCI8fHsqVzYWExb7FQMhAx/l3skkjAKNf1lj6XgC14LnRx/9L9HaiomIlp08pAYUN9xLRIY0DHzq4uQcQQcRslkOv04eVXX0Zqejqys7NRPX8BG3kRuIv75LqIuXn08FEUFRbxOAXGisaiiNv51FNPoUuafwSGXZ1EHdi7Zzdqa6uRmpqChIQETJk6BdNnTMezzz7nb6u/zfScxDhQ9DT6boqKCpCYmIjc3FxkZ+dgUd0idr8S7Q+MGc23Dulb4W9HOpfLvvvRh7r6xUhPz8K65g24evkqu4E2N6/nPfF9+/f7QZyAPCIi4q4gTnviBOJuTwSUVhVnDRNW4ELq5fMH2cLz71mrWbKm54TKm1TfQlrmrT6/VE7XBdD6petVGlDecwoxrWFhhoBZx9uLHIudY7DL4Cyr5elI/uNi/57Koi3IwFZAP4gH40z/+VfYAwTiHLGtTp6cAsTFpBRcpuCO78UJy9f/EElcBvE8AeI6DSIiwtlt67PPPsOPf/xjbNmy5RYQv3VBkRZLWmB5kRWgSaAhyCcdBfjLTMAdRz/YyuAtA68PF86fRUpGKgZlD4Il1wJdjha6fDU0BRpo8jXQ5+rhzQnDhPxELF2xjKO30aIov0MGAvp9+cplrNu4DoXLCmGbboV+jgGeHDceWTwHR44e9YMG3Uvt8Um0Zk0D4jPGwZPmgSPPAXuuHY4cB+w5DjhyiZxw5jngzLHDlePEuILxKCgoREJGAgxT9dI9Djjy7HDk2uCg53PtXI49zw47lZlHZTjhyXMibVoqXnn9FVy/IQBYbsu9j4Jp2n9gH8rmTYN2oha6Ah3MA8147Y3X2HKZ23QXBuDW8exE/ZJ6jMoaBVeuE/ocHTS5GuhKdNAWaaDN1cCe60BseiyqHq3E3j17QIBEhpB8lJi87i7SLAhmgYCaAJHAievf2cXGYwf278e0edPgKfbCFufAsjXLWYMQAPLAGHZ1dYixYS1KJw4dOoyKBRUwxBlgTrYgemIUtmx7juMX8HgzCHbhxRdeQsG8AqRtSIMjxwZnDo0RjZuN28HjluvC6LzRWLliOcjSXTBwXcyoZD6ageiiKJhyTdDl6WDIM8CV50TWo1lifrDmR7Sf+5Hb34kdr72EUTkjeXz1eTo+WnOtiM6NQlpRKl7avt3/Hrn/mQHh8aFvgL6f4Pbfeb56zUqMKBoO0xQzkstSsGPHDgZxynWQlZ2NAwcO+kF8/Pjx9wTx2vom5MouZg4VVIWU2UysN7z2kNTcB4gL1bgEoixwyNK3BNJS7IrAtqCItc7xLHgvW6x5DNjNBuiaaS2jZ6V3y8FhWJ0uyub/B/0W6n/BMNyqUu8H8a8QtvqLDu4Bcj+JGBcB7QryExcTVc0TWYpSRB/TA3xQD2LYlpKah/ETpiIjm0C8CMlp+RKIaxEZGclWzT//+c/xk5/8BFu3br0FxIMXF1owd7+zB088+SS7otF+3IqVK3iRZmnGD+Z3LkLB5dAiLaQ3YgoC97576l1MqyiFLk0H/VwdtOVaqCeroEvQQJuogSZdA32lHqYaE4wlJkRMisDz255lFbm//O5udHV3o7u7CydOHMfQ0UNhmG2AebkJltVmPh+RPZwj03V1iXsF4AQYkPyCQlgmmaGfrYOpzgTDowYGNV2RFroiDXRFBHI66It00OXroI81IH7ceBTVFEM3XQfDbD0T1VVfqYNxgR6mRUYY64zQV+uhn22AXrrHMEsP5eBQbHlpC1uZ+9txn0WdtR5dnXjhhRcwNnMMDDMMMNSboBqqxMbNG9nG4UHKWb1mNQbnD4ahXA/DLB00WWqox6uhTdRCPZHaqYGhxgh9mR7elDDUrKjhHNui7E50U/9JQCaYOBpLmaETwES2FAcOH0BGfjqshRaY6k1QJ6pRVVOJEydPwEcMFEvq3X5pV5QpGIWzZ85iacMyDM4bDOMcI/TzDDBOMWBB9SO4dPGi//1XLl9Ddd0iqOM0MC43wFBLYybGicaLxop/5+mgj9MjJzeb521rawcnMEkonADbLBuM1UboS/TQTFJDnayCrlSLiAWRWLBtAZYuW4zr10hDRXXrxMl3T2LT8xuRWpMMfbkOhkdN0GfqoBmjgjZHC0OFHoYsA5LLU7Bj506Jqbmd8Q3M//uNWVZWBuyFVmawYvNGcnhkyqxGmctIO3HgwCE8++yzvCdOWoR7SeLV9WvZxcztCYfSrYK6VLJOlyzHH0QSJwtxik/ht2q/LXY6rUlCq0iuZpKU3CwkcX6G1epCcqfw0domCugiSdQE1JxAhVTvEiBLErwM9KIMWdAR9/RL4sHo0n/+UHpAgHj4LSCukUGcOGGOzCZL2/c79i2Jp6TmYvyEyUEgLiRxnU6PqKgodln5xS9+gb//+79n31MKvUp79t0MhgSIgk6cPIm5dY9gTNZYjCkYi5iJMRg6bAharl9nyYuAU773fkdfd3tAUuvqQU9XD65cvowNm9dDGaOEbY0V2jlaOFPcmJI1BTNnzGQVen5FPobPGAHzPDOsK21QF2qQmpuK48eP8wIp3tmD7u4e3iJ4buszCIkcAOtKC2wNVtgabLAut8KcasbMuRW4eOESerp7wExFlw8kUfZ0daOouASOfAfMS8wwVZsRVRGNtOo0jCwcyTSqcDRGFozCqIJRGFM4Brkz8vDsc89j575XWPoKzwmHTMYkA0xzjbCtscHWaIWjxo7wnAhEZIchIicSkbmRSC6ZisPHDnO979dv8v86uzvR1d3FavyR6bEwVhphXmqBepQaa9etBQEaA03XvceDDKGGTBwC02wDLDUmRM+MRvrMDMyaU4nKqkrMnF2BhLxxsM2ywrrMBuNME+KLxuHZZ59Bj8QkUd8R+bo70NXdKY296H8CeEoSsuXFrSh7dDrUUzSwrrDC3mCDdpIGldWzcOL4CXR2d6OT5k1XNzpZAhfgT2NIhmabHt+EsUVjYJ5tgrXBCtMSI8zpJsyaNRMXz59Ht/TeY0ePo3zeDGhTtDAtNcBUbMKgjMEYWTASowpHMdH5mMKxyKrIwuNPbuZ3Xrx4GSkpqbAWW2FdamEAH5UzCsVlhUgtTIYrzQXTHDOsNVa4RjmxfeeLrLnq7uzChk0bEJs/AsbZBpgWmmDNsCOtMA3pGWlILJ4A90wPTNUmWHIsKJ1TihPHjzNzKb4TGpsu7j95XO93zMzKgLPEDkOZAQTilLGMtp3WN2+4K4gTcx7sYsbBXr77KarJTzy/nNXpqgg11OUExrLVtxb6PqRwktIJRFVNklU7rVkM4mLNoshvlB6ZpHs1RWxrpvVJkLpcBVWekhMvqTI0UGaqEZIZClWmCio+hkKVoWT/bmWGCqoMNVTZKqjylVDlKtkIj4GdmQAZ9INV6bI0L7Sa/X7iDwXKvrkvYRCPpz3xO9Xp9JEI1ZLsPx44yqov8X+hvvJzoZIFKHHBfj9xitjGID6V3cvSs4owNTUXkVExECAezT60v/rVv+GTTz5hQ6m33n6LrZ57enoQoF688OKLmFCcCEOOAZY5Fhgz9Rg0ZCCHgOyhBamnW6Lg5+487+zxobunC910vwQEhw8eRnFFIQzZBjjXOqCeoEFOSS5ee/01VnvSfadOncbCFYtgm2qFY7WTwcUaYcPefXtue28vjh8/hsIZedDm6OBca4e5wgjzLDNsS+0wTjMhqXQStm/fgd6ebq5LTw/Vvwe9Xb281+0sdMG6nO41IyE7ETtffRkbN23y06aNG7Fh40ZsfvxxHD50mNty/N3jWLy4Dguqq7FgQTWqF1QjIjwC5mIzHA1OWOusGFExAnPmVKG6ej6qq2tRs7CWk1eQT3egr+/ss+D/dfV0oaunW4B4RiwzCfYVdmhHabF2fROuXrl2CzMV/Kx8Xltbi4j8CDjqrDAVGZE2PQ1vvfWWvw7kIbDl2ecRPSUK9moH7HU2eJPD2FaByuiWiM67eoipIBCnet9ET08vThw/iRWNK5FYmgRjshnW1XYeV2eTE/rJelTWzAYxhd3dvdJzVGanmBM0N7p78OabbyO5NBnGPD1sC62wzLfAttwKS7oFFbNn4dKlC5DH7Y033kTWzCwYC4wwzzfDNtiK+sX12LBhPWismDZtYg3S3n170dkjXNB2v/MOlGYV7PV2WBdaETY+DMuXLsOF8+ewb98e5JXnQZuog2O1HcYiEzY9TZoOkdikbFY5TGkmUN/by+2IGxuH3W++jUOHDmL79pcwOn0MrLOtsMyzYEThCDQ2NKK3p1fqY/pWqL/k3/cf86ysTLimOWGeYWLGhECc9uLXr9+AnJxsHDxw0C+JT5gwgTVst4M4GbbVLF6LnPzpiIqKgSZKK8Ku8nojrTns0kVuXUSStCv5Zgs1OknhWqjWijzlIiGTpAZnBkCSjDnUKkni4n/aKjVCvCFwRJhgtGqhUAyATqeDN8wLr/c2CguDyWxGaKgSWoMKJpcWIdoBCLEMkFT/JKULEBdGdMHroHg/1bUfxL+5+PpQWi77ievqJI6SJzvtMxFXLH9QpGoXnC9PVjZ2kzlQ4jbJAI7iHhMXTMxAAOxDh4Vi4JChyM4tRXJaDhISZRAvRnJaHiKjBjOIR0dHs//zr//9Nxy4gfbaKKECxX7u6e1BTy8tNt/ixWb7SzuQWJIEy0wLPBs8sFZZMWioDOJiMe+9BfjFwtTb24tgutl7M+hoNJwYAAAgAElEQVR3N79n374DyCzJhLnEDM86F/QTDahdXsMATRIduefQokdW2MkFyXDMdsBR4UBiShIDtngv1ZUMrzrx8is7ETbGA+diF5yrnTBFm6D1amGbbYNzsQPRBdGorl3Axla9DDwE4r28yJIBm7vIBcdKB8xlFiRmJ+HwoSOB/qA+6SXwJ6I+6kEv063tpDZPmjQJjmkOOBtcMOaZkFmYyXuZwf3xx5xTX2zbtg2jM0bBNtcC5yondGMMaFrfxCAjlymAIjAO8u/KykpEFUfCtczFiSsq6mfi5ImTOHf2HFpvEEMhGLJZM2Zh4PRo2KfZMDY/Do8//gS4r7sJdEV/izJ70dMr6PT5M5i7+BFoR+thqbDCvtgBe7kDjiVOOJtdMEwxorJmDk6cfFf0Oc+PHj/AUfnnzp5F4cwiuEs9sMy2QJekgy7RAPcqNyyZVlRUVeDy5SsCBHt78PyWLUgoSYR1lhWOuQ6EDwzH/v37sH//XhzcfwDHj5/g2PtinGjMenH5yhWsaWqAerQa7jUuGLNMyCrLwu7db+NmTw++dfMmdryyE4ZoA5wrnfCsd2HLa8/i+o0beHv3bqROS4OlxAL7IjsGFQzGsmXL+DkBzL3Izs2Gu8QF93I3HDlONnbs7hTtpDZyP/I3RvPnzrkTfI1U5t4yL6v8RxeOZkmcAjJt2EAgnoMDBw6wcR3th98PxDnYS/5MREUNESBeJtTpJAiwmppV4RKINwbWJpG8hNYXsUb1tW8upHOKtkb36xE6Qgm1IRQpU4Zh2BAPFAoFhg+PwbJlC7BsWY2fli6txvKlNZg0KREGoxEOuxFjYiMwONKBAZYBUrAXAmpa74TE7Rdi5HWT3tkP4g8Fx77RL3kgEJcNPWhy8h65ZLHOk1eS4Ol/zDFLIE77SU1aDOAEKEOQnVsGska/FcTFnrheb8DAgQNZ6v71f/waP/vpz/DKy69IIH6d1X2XrlzEpcuUw/synnt2CyYUTYC1wgLPRg+sj1gRPTwap8+cwWXKsXz5Ms6dPc+Ww6QqZKnj5k1eMMWC9C309n4LN5l6cbO3R9DNHgaQygVVMKSbEPaYF2GPhcMwwoDk7BSsbFyNN95+C++dPcN12btnL2JjRyAqIgoXzl/gBfAmA7AAFdorXNawDNo4PcI3RrI0lJSWhOioQXBP88Db5GFmITkvmd10qJ7dQYtpcVEpvMVeeBrcsE23YXx6At54/U1WU1++fJX74tLli+ySxJoEerfEmMggSUdq8+TJk+Ga7oa32QtLgeVLA3Eqm/bEx2SOhmOeDa7VLgbx5g3NnD6T/h9cl9vPV6xYgUE5g+Ba7Oa+rt5djZfefAnzF87DS9tfwJnTZ9nw7Nq1FhQWFmHY8OHYvPlxHtPemz0gunmTmLHuIAbmJjNQj656FKY8M7wNYXAv8sCV5oXT7YQ5ywzPajeMU/W8J37y5El/HWkMGNR6utDR2obaRdUYPC0GjmoXXNlumKwW6Ebq4W1ww55jxayqClwiEJfGjVythmUPg2uBHa5ZDngjvSitKMXwccMRmzAKGfmZrNq/dv0Gawuo7jRPZs2tgDnDCO86F7QxGhSVFmP//gPczps3v4Xdu3djZNJwOBc4ELYpDKH2ULyy61U88+yzSCxNhKPKAcd8B4ZnjsC2rdu4P5ip6+nF3LlzMbB4INzL3LAUWpCak4ar167j5k0B2EKL0BXUf/cGchnE7bPsGFM0hsH7jwHxhVLEtmhKgBKth7qMkpQQWBPwibWDI0A2y+GgZSAXgoWImEYS9v22+OT/Gfxrkyo9FK5BBiSPH4RBEXYoBihQWpqOv/qrs/joowt++vDD8yCqq6uCzWZHaGgIksZGYeWCFAzwEIiTkCPKJy2AhvJGyPvu/SD+jcbUh974BwNxWZ0lQJyCINCeFRl+iAlM4Qw17OJBUjl/hJKRXAiDeAxycsuQSsFeEsmwjfzES/yGbUajCYMGDWLL4l//+j9AFuq7Xn0NmWkZuHGDciVfDrhUlRSiuKQIw9KHwVFpR+TmCLgXu+FM8qC4tBTFpeRWVYTBQ2Kw8bGNDOQM3DcJrAUJoKOF/yaDgJBGehkMKIzl1he3QjdQh7ANYQjbGAZPcxisM+zQx+ugtCvh8nqQm5eHTRsfYwtskmpYepakGCEJfgtvvbkbU4uTYauww7suHNp4DZauWop58x/F8KJhcNXa4ax2ILZoFNb9P3UkSWdCqhTSZ1FxIcJKvPA2emGvsMM9woPU9FQUlRSjiN3L6FiEfQf2s6sXMyxyHW7TRJAk7ip3wdscBkuh9csH8awxcD5qh3uNhyXfu4F4MKDzmPT2gtJYjkyKhXOOAxGbwhHxWDiPp2GqEaoIFdRqDZImTUJdfR1OvvsuM3q8h8taCJK4aQx7/URjTIBOxoQlc0pgSjTBMtWC8KFezJ07B+XTp8Od74R3tZst+CtrqnCSJXGxnUFMlFy3559/HoNTY+CsccGSa0V2eQ5mPTILmpFqeFd7YMtyoKKSJPGLfiZi0aI6uFI8cC92wT7NCu1wLcw5Rjjmu+Cc74Ct3ArdSC3qV9Wz/QQxNWRISZoRe7kN4evDoR+jwcqm5bh05ZLEoNzE/v0HMTVnCuyzLAjfHAZ1jAaPPfkYli5dgjHFo+CqdrHkPzp1NN7ZvVvUh+f8TSxfthzDSoZxnWwz7ZiYPxmHDh2RGD7pO7iFCeobxMn4TpbESZ0eLInLhm33k8QXknV6wXQIENdBXaaBnqVvAm1J88caPWmN8e+XkwFakP1NHyAutIKCOSAGgfbKQ4aHIm50GAaFWRFCIF5CIH4OH310Hh99dFGiS3ysq5sLm92BSK8VY0Z6ERI1AOrZQgvg38PnvfFgVbqkweyXxB86nn0jX/ggIM6qKJKyJUlcgDiptIgD1UA1Q42Q0aEYMDwEyjw171UJFZMWfyiIU+zjn//8M+za9RqnNjx58gTql9TBMNwIR54LzmIXXCUueOu9iNgYgcjNkfCu9MBaYIWzhP7vhrPYCW2UBk0bmiUQ7+Y9595uktaIghcpAoGbYrEkaf1mD+9xrm5cCZVTCfs8J8LWhyNsQzjCmsPgWR0G90IP7wvaE6zwhnnQuKYRrS1t/nIJxIlBeOLxJ6Afqkf4hnB4m8OhMAzAoYOHcGDfAUzKnwzbDCvCmr3wlnuRlZXFDAWrxSUAJqAmVyhPgwcRG8PhXeyBvcjB7XQUO7md3mI3YpYMYumvaW2Tv323S7wE4k4Gce9DB/Hg/pbrJV8jS+it27YykJuzTQhb7UX4pnB41oUjbG0YPEs8cFd64ExzwBpuwfgJ4/DiSy9I0nIvunuCt0RkJo32t7vR2taGqzeu4ezFszh67AjOnj+D8ukz4M73wLvaC8NUAyprZoHmGKnteVtCYqSuXr6CQcMHwV3tgm2mBZPLJ+Opp5/CyoaV0I7UwrvGA1u2A7MrK1kjQowgxUuvrJoNS7IZEY9FIHxDJDwrPPwe/UQ9LNPM8K7yIKI5HN4ZXhRU5WP/vn04cfI4pmalgKTb8I3h0A1TY+Nj65hB5C2fnl4cPHgYGYUZDPQRmyOgGa7B+s3rQTYFscWxcC908dZO3NQ4HD9+FL03u5mxoefJVXFESSzcdS5Wg0/In4A9e/YIKZ+1N4LxuddWjDxWdJQl8T8dxINip0drWBJnwYCAe5UOmjlqhMSEQhEZAvUiWlOExk9o+0iNLfa4+5LEBYgHAJZBfFAopmWNQtLoSISEDBCS+IcyiAekcZLM6+rmMIjbzHpEus0IUSoQ4pYlcdkQL2DBHlCp9++JfyMB9eto9IOBuPwBBfa6ZYlbnafB+PxxeOypTXj1rV0oeaQUoeNCJX9LDUKHDkDkEKFOT5XU6SSFZ+aUIiVdqNNlSZz8VH/7n/+JX/z8F9i161VkZKSxpLZg0QLokwxwr/QibG04wpvCGNSiNhOIR/A5Lfhha+n/dAyDbqgWTeubeSGkBVqoSEm1K6td5eO3/CBOasubN7/N6nsyKFq7thFjp8bBEG2CYbIB9gobvCs8DMr0DvdyD1zzPQifGIWpqcks/ckL4bFjxzC7djZM6WZ410fAVeVBwsQEtuQld6fpM2cgrCAM4Y1hcM9zYUzaaLzz9m6hJiYjo95elrjdxR6417gR1uQVgFbrhrPWBedCJ5wLHfDUuuBe6IY5zoLFSxb7VaIyWMpH3hMvc8K91gNzgfmrk8RXu++QxGUQkOsi/5aPN1pb8Py2LcguzYYr1gXtGC2s0ywMOuEbwxDeHIaw1WFw1Tlhm2RF46ZGwTCx6lswTKQGF1sZgkEjwzahGif3MxFw5uqVKyyJOwuccJM6PdmAytpKP4hT/ahOlLs7JSUFnukuuKqdGJwxEOs2NeH8+XNYvXYNtCN18Kxxw5Zjw6yqSo7mR8zXqVPvoqiiENYcKyKaIjB5/WTsObUHsxdUYX7dfExImwDrYAuclQ54l3vgzfRg+owZOHr8BMZPGQ/3oy5EboyCdpgWGx/fwNnJbvJ2QS+OHDmC7Gk5sJZaEflYBHSjtWhY14A5c6swrHgoPPVuOGbZETdlLE6cOObXTFB71q5txsiikXDXEtDbQSD+5ptv+Bk+MQ7U9oAWQh6b249fBojf/O6nqK1fi9z8GYiKHgpdtB6aMrKrIZsaHcy1ZoxLi8c7B3bjxOnjqKibCc9sD7SLxTpEa4+sen9QEJezKyqzVIgYakG4ywydRsV74qWlafirD8/h4w8v4uOPLjDJqvW6ukrYbTaYTVrEDvFgzBAvQmwDJCZC2AJRncUWQEDilw1++/fEvw5U+4a980FAnLlLyX1DWIsKIzeKchSdNQjbtr/IAVo+/fRTvHfmDIYkxkBTq4amUY2QoQMQPSQGuXnTJHV6MgN4MIibTCYMHjyY/XP/8z9/w5L4q6++ivSMdBw/cQLVddUwTjLCUmCFtcgGS5GV91BJIiFyL3LDMEYPa4GFfYDp/4bxRqx7mhbCtgAwsuEYWaIHiBcp2lPlfVWhWqRkFiTNXL50Ee/s2cvW35U1lZhcMBHecR7oxupgLbEivCmcAd21yAuj14innnqSAYDKJFVsfH48nI864V7hgW6gHlOnTuUgNrte3YW1jWuRVJEI1wInPMs8GFg0CAvmL5AWUsF0FJcUw13shWu1G/YqO6xxVkRNiEZUIlEUIpOiEJ0YjYFJA1GzvJbVzbcvuvLve4G4DKwygMn3/yFH3hOX1el3AfHgd9ztPafePcXz5vDhI1i/cQOmV81A9owcDJkyFJphGpiTTfAs9bKq2bPUg9iSkZhfswAHDx4UwC3vu3eTkZbQtBCIk2q8u5cMBYXF/9Url/0g7lrlgn6qAbNrZuPkiROScVcvLl2+ylse7hQnPCvd0I/TYdGKRTh79gyD6u0gTup0stUgA8O2lhYcOnIQM2tnwjnGiWnzStn3/PS77+G902ewb+8+jviWvTaTtUe2MhuSsidi67ZtiJ8UD+cjDkSuj4A2VoemTetw7do1/1794cOHkVWaBWuZFeGbwqAfQfc045F5j2BY0VC46128vTR26mgcOiT20tmwrbsHjQ0NGF40HI4aJ+wz7UjMTeQ9djYWvdnN2qcHHW8ZxO+3J96XOl0G8bx8UqfHQButhbpMyVo9da0Gg6cN5sxkn/7rP+Ozz36Kq1evIKFoPDSzKL767UAu73vf+yj2z0kFrkPoiFCMjo/AYxvLkJM9mkG8pCRNUqcLKZyAXIA47YnPhs1mQ2SUHQUFY5GVPoIN22SQliVv/z4+74f3q9O/YTD69Tb3QUCc936Y+xWcsuwjqanRYGjmMJDUKZL5/h7f++73EJ86Dup5amgaSBIPxcChMZyKNOW2PXFZEr8FxH8rg/gryEjPwMULF/H27jeRNzuPKb+yAAk5ExCeFwHnQhcb+djnOmByGP335M0uQG5lLna9vYuzO/V0kwQuXI7I2IfchgQJ9zI2JiMVNl/v5ihqKWkpKK8sw8lTJ9nP+NixI3ht1y5Os7hs1VL28XVlulj69270QpegxdzquSAjKQoVu2hJHZzJTngbPAzS6oEqRIyLQmLeBCQVTWQaUjkE7hUueJvC4K70YsyEsbhCblk9nQw8FFrVU+Rhi2/LNAuGJQzDqlUr8dyzz7Cf9LPPPcuWwM8/9yz71cuW3KRKvh04bwHxfDPSCzLYmC7YJ/j2Zx70N1mnBxu2kTW4bJ1+r/Ll6/SOqjlVyCvOwzYyZDtzFocPH+LQsVu2bkHzumZUVVdiw9sbkPDceIRt8sJabGYgeuGFF/3tZFezbp/k/yypxiUVOUmYNO5Xrl1BaXkZ+94TiBum6lBZO1uSxHvY7/qF7S9g0JSBDIqGyXpobFpMmjwJ5dPLMW1aKeLHx7Ok7FzjgiXTgqHDh4Is7E+dOsV16e3uYVc/SqX75ltvCKt1mn/swtiLN99+CynVKXDVOmGbY8fonLFY09iAqdnJsE63ImydF7pxejy17RlOckL9RK58+w7sw+ScSbBVWOHd4IFumA7rN29A3aI6xBaPgL3GDnulDWOSR2Hv3n1+1z5iWI8cPozU+lQ4FjlhK7NjYs5EtiInkCcXwe4HdC+jsZJB/A9Tp6/2pyKV/cRr6xvAIB4lg7gAaNU8FYbnD8ex48fw+Ref43dffM6piZMLk6FiX3JJNe53O7s3eJOUTluBZHTGaxaB+KAQjBgVht27F6KqaoqQxHlPXDZsI2n8Iv6a9sY/JnV6JYN4zBA3SsrGYdLkGAywhPD+Pe3hCzCXNJR+AO8H8a8X1b5hb38QENc0q6FuIutRMnCjCSups1boYE92YPnq5exORGkTXzv0GiLmRkG7REzskKGhkiReDhGxbYrfsE1ORWoymRETE8OS+G8//w1+8cuf4dVXX0F6WjquX73Gxkxvv/UWmN7ezWFOYzNjYZ1hhWe9F7ZKOyKiwtmX+80338Tbb72DN958HZcuXuDFjCKnicWKwJvUqyJCWkd3OyhgCV0Ti2w3qy2nP1IOMqyy5Vlx5PRhTjpBgUA4GEh3N65dvYYtz29FQkYi7LMccKx3wFhoRE55DvYf2I+33n4b2RW5rLamBZf2tMmv1jLDCmu5DeZyKyzlVjjrXfCu9zI5au1wj3dhy5atnJWsq8fHcc4JxF2rnLCWWzEhOxEU4pR8oaneoj7iSMFKKPDKvaJtTZw4EQ5Wp7thyjMhPT/9DhCXgfVBj/K7ZBC3z7Mxw0EgTsFeyJNADuV5rzJXrVqFyOwIDtmaWZGJ119/TQqcIoKQUBQ18vV+eddOxC8eC9cKB+yVFowrjuOIfcK/WwQr8XW3SX7iNKZEIngLBXCh/e4rV6+ipKwUtjyqJ0niepbEybiOAuycfvcUFtTNh2aSEp51bhgpDkGqDdY0OyzpVljSrLCkWGAussDeaIdtrg3mFBM8yV6QR8ORI0ex/aXtqF5Ug2e2PYPO7o7A/JMCFT355BMYWxgH2xwHu0aOzBmJNQ0NmDazlF3L3I0u6Cfp0bCpgV3XaEwpMt5rr+9C1MhIWGdYeL6owlV4butz2LB+A8YWj4W50gzbHBtGpo/gUKg8F6RgPI9vfhyjZoyCrdYGc6GZAxedPn2a6+br6UYnAbnEwN5rnOTrZLvhmeaBtcLKQYYo3Or58+dBRwL4/fv39+knTpJ4df0a5OSXiYiNA3XQlBPQaqFeooZnpgcLF9bie9//Ln74wx9i586dGDE7FpoayZVLVl+znc79QZx9ySkgDLuYaaEco8SYseGomJ6EUaMi2E+8tDQDf/nhWQZtGcD/JwH5xxdRX0/W6TY4XAaMT4jC6NgwIYlT2mVOvSztzZOmkkFd3n/v3xP/hkHp19dcGcQ1crAXabILy0vh6kGhDQnI6UPQNRqgJc6WrUV1zB3HFMQge3oWSiqLMaV+ihSDWHxcoZJ1em5umRTsRQLxrBKkpAbyiVMwEvLB/u3n/4lf/PLnIHV6Wlo6rl29yhGtaJGVadsLLyChOAHm6SY4m1ywzLIgZsggjmFNwNLd1SPAwx8LWg4CIofnFGDn6/bBR8DX2Y2eTnqOQohu431Zx1IH3M1OLHt6KfYd2ofrLS0c05zDeXZ2Yf++A8goyoAh2wj7WjsHnsmbnscSzuqGNYjJGQJbtRWOFQ5mNihAh6nIBHORGSaJaEE1FZhhqbTCvtwOR5EN2VnZuHbjOkcNIyt7lsTZT9yMCVkTmEmgNgZis/tEyFBmTqgtEt0WLpVA3FZqh2ONE4ZcA4M45YEWscflEKUiXCnHo+ewpfdmCmQApzHZtnUr+4lb51o44Ih2lA6NzY2swbhXfUQkt25ERETCXGaEbZEVnkwPqusW4NKli8yQBNrYhR07tyO2fARstVZYZpkxrjie09V2dVGkO9EfPgqjy4xMUHuC+uPK5SuYVjYNthzR39rJOsyqns1bNlQG+aavaFwO1WglLHOssM61wjaXwNrO5/TbXuPggDn2Zhsca+2wzjGzG1vMuBisWbMaOQW5UA5UY2xZHJ7b8gyHEva3o7ML69Y1I7ZgJKzEAEw3IS5rLJ5//jksW7kE2rFaOFbZYcwyoLiqmGMR0HyjzGVk/Kdxq2CdZ4Wj3gGlRQlKOvP6a69jaslUGIuNsC2wYXDOYKxcuUrkFODcAl2YOHESG9dZaizQp+uRlpXOWge2FZD6Th7Pvo4E4u5SNywzLBzs5XYQp/gJsjo9EHb1Vkmcg73UNyK3QALxaLJOFyCubVJDV6/hfAHVjdWoX7sYcaVxsNZbJAGCLNdFiGhal/rcE+fQrCLmBe1Pq8s1GDTOhiGDHDCbdBigGICS0nT8JRm2fSyr0cW++McfX2AQt9ttMBnVGBRlRdQQK0Inkc2P2P/2S+P9IP71gdg3/c0M4mOioJytgaZaA3WNCrQvxXvaKwI5c0VQAw30jaRSFyDOUZIoDeB8FZQpSqgmKqGqlMBemuSkTo8eMpiDvVDqUb+LWVYJUlPJsG0IyE/c7XJxiNXf/e53+OUvf4lXXhF+4qSalpM10JESXGzb9iLGF02ANl/P4Ugp2cPgmIG4cf0ap3qUk6IEP3e3cwJvH4XZpAxonAmqA2+88ToSMiZweE9bgxn6DD2KZxXj0OEjeO/sWRw4dBC0P/nE008iIiGCQ13a1zihGa9Fdf187N3zDkpmlsCQaoBtpQXmKjOsMVZMTJ6IJKIUoiQODpM4JRHRY6M5RKdttQ22eRY4Iuw4cvQwR6wrLCqCK98F21IbDCVGJGROYCbhbm3xX5PSsYq0mVLqzM5OTJo4CRYK6bnCCkOWHhn5aSBpjNNadlLqUJEAgzKndXS2cwY1f5n3SGBCcbsJpLdu2YqR6SNhrDLCssQCzSA1ZlXO4kQYO7fvxI7tO7B9+3YmOicG7ejRY5xXe8KEBNjTrRylzFhmwoTSBKzfuI5TWh4+cggU1WzHju148Y0XMKp2FCz1FugL9EguTcEbr7/BcyPQVtGGe9WbgvWUl8+ALdsKy2IzNBM1qFgwC8eOnZCYIp+wFE+dgmGZIxCTPQRDcoZgaK440nlEUQRMj5hhW2WFZYEF9iQrhqYPQdX8StTX1SF+ajx06XqYKs0YmjKUcwBQH99oa2F//sq5lQgviAABqrnAiJTsZBw7fpT3yg2RBo6mZ6oyYURaLDZs2shjRH21rGE5VCNV/F5jjh4xsYNZ6j1/9hyWr1mOEZWxsNRY4S7xILsg159djjQZ4zMSYJpu4vo6kl2omD2bxz04+57I4iYnALr3kaRt8v4wlhsRmx+L5uZmKYtZM0vit4P43cKuEogvqm8SEdt4T5zAlUKjCtct9nhZpoYyXQVlqhqaeRpoV9NeuATgDZTPQctx0/sCcdlYTjbEpaxk5EUzIT4SMRS4ZQCBOBm2CXW67B/Ox4/Oo75+Nhu2ee0mxA50QxuthmaptC9P7m2SWp/33Vky75fEv+mY+tDb//777yO7KAcRGZGIzItEZL6gqIJwOKvsMC7Vc27dgEEJqbSEOl12I5M/EL+VZpDxCbuYxQxGbm4p0oJAPDNbgDiFXTUYjBg6dChLVJ9//jkoCQql+ExLS2M1vZyZio6UV3rXrteROSsH7uQweNO9cE9wYdz4OI6E1U73UF7wPvIiU1kiH7LIzUy5yTs7OtjCuH5lPayJFljrzLCuskE5XIXVj6/CsvUrkD+zEKVzpiHrkSzosrUwr7DAvNCC4VOGcTzrp595CuMLx0NXrOP42rYSKyZPmohLF87jAtF5onOcJY2OK7Yvh6vGCdNiE0yLDNAn6rHlhedw9doVFBYWctYy0yITdIU6jMtIYOmM+oAs3GWSc23TkbQZRO2cw5vyWbcxTZyYBDNpApaZoU/XISUzhW0ZOjrapfzSlHPah/aONono2Y77EsUUb+9oZyO+2PRR0M/Sw1RnhCoyFLYYG+xD7LAPdcA+hIjO7XwcOCYaM2fPwLlzZ/DEE5sxPHMYzLMtsCw3c4IQb7wX6UXpKJldgoziDLhHuKFL1nESFCqfwrQuXLyQJXYea2oDk2hD8HyR5wy1hfyZy8qmw5JlFQlQEtQom1OGg4cOSrm6RQY0yhW/+bHH0djYhIbGBjQ2NmBtYwPWrFmD3KI8KIcrYa4zs3SbmDgB6zY049z5c8xg5VXkwZRlhGWZGZYqC6Jjo7D7wB68/Op27D74NuJyxsIw3QjjfCPHrK+prmXAPX/+LBKTEmEtMcOy1MyJTyYVTEbN0oWorK5CXHEc9NMNMC8ywhxvxJrmNbhw4SLnIm9rbcXiZxbDMNMAw1wjIiZH4J2Du/HOnt3Y894ejF0UB1O1EeZiI5LLk7Hz5ZfRRjnQ26Vc6JwP/e59d3tfkiRuL7JDP02PEXkjGMRFPvEmdpOkWPjPPPMM5xK/VxYzUqcvrKOwq+VCnU6SeDlFbNNIQC7U5sI9TOxrszU6AaackIlV6SpN8hEAACAASURBVCQN31+dzmsSx7MQqZbVi9VQD1EiflQ4BobZMEAK9vLRh+Qjfl5I4x/T8SI+5D1xMmyzwmHRY1i0C85oI5TZpJ4n6V52LZP3xmUA798Tf+hA9o1+4RfAp598ip07dgjauR07d2zH1i1b2GBnUMFAaBZKXDDvRdFeN31Y4uMiIOeALzypA0EQhNUmxU4nw7YhyMsrQxobtiWLPXFJnU4gTpL48OHDeY+OQJyCvVDY1dTUVN5XlcEq+PjCiy9gUX0d6uvrmUgioD15BpYggAt+5u7nBIgd6GjrQDtRewcOHzqEKWmTYJxihKFGD329HrqZGmgy1FCnaKAt0kL/qB6GRQYY5uthSbLi1NlTDH6Uu3lgZjT0VXroKnUYmDkQa9c2SXVrRVu7oPb2Vr724osvIalwIpdJDJN9mQ0nzhxDa2sLCotKOO2oYaEBmnw1xmeMZ4vsu7dDgDppVohEP9CRQLkdSZMmwphvgbHeBM0UNZImJuKdd95hRiAYrKnstvY2pvu9h++jd7W3s6p3TMZYzmxlrDdA/yiRHvr5ehjmG2CgviKar4d+nh7aUjVMA02cdpMsj2fNnoWIwnAY5xlhqDPCMNcATRZljlNDna6Gbp4O+kV6GGp1MGUaserxVZz5i9tIjEdbe4DuM/a0d1tOIJ5qhrHGCOXQUGTkZLAthWirDx3t7Uy+9nb42ompafcTSfLLVi2HcngojFSfKTpUzK7g0Kwd7YLBbG5uYp99U6UJhnl6qKYooRymhNIyAMpRIdBVaqGv1cOcbkXZ7DKcPnWaGaUbN25wZr6Y+IGs3aF+0OZpoRqjgipJBd0MLQzVepgKzUhOmYqz750RY9vajrNnzqG6fgGsky2guUJ9rRquRIh9APSP6GBcbIChSs+ucg0Nq0V7uJ0++Nra4KP+42+H5kuAObzbeUZGBqz5VmiKNdzOtWvXsraAjgTw5H9OedIpl3hfIE7BXqIk63RVmQyMsupbCAtCQKAALwGjWgJPyjqm46xjfYG4/JwIWEWq8IjBFowfFYmocBtUyhAU5E/Fn337CP7sz47j/feJTuD990/i2+8fw/z55bBZLRyxbfQwL+YUxUthVwNrHa2BLJH3G7Z9o6H062v8F8AXX3yBL774Pb744ndMv//97/D73/0e//CP/4iV61fyHpDgiiUrzLX0ERGIi7R+BNiUMYgtQZmbljnTAIjn5E2DUKdLIJ5dAjJs++NAvJX3GltabrDbD+VEDyxCAlgIXO62CN15TZJqZSAgEGtr44WJQpWqB6ugmqKCdpoaujkaaKo00EynnOJqKONU0Dn0bGhHbkYEKnV1ixHx//JMqwu1UGdpkTA1ietK4E31bGUQb0O7BLb0rsee2cyuL+rZamiSNEjPSmcr90cffRRhWeHQzdZBnaZGak4qt0kGagHWt7azra0VbW0tovxWCYw7OlBUVAzbFBu0FTpokrTIz89nH/o7+0O0/25l335vWxvd287uSgXT8jmVqbpQCW2JGuoSNS/0qiIN1EVqaIsFUT522npxJNr9729tb0F1zQJ4R3o4xoCacrbP1kI9T8N7mJoyLVSTQzHArkBRUQFHJGtlRoPGzseMBI13X2NO4UEX1tTCNMIIzUwtlLFKzK97FKffOy0Yn7Z2dDCgdfrnTluH1B/tbaB3rntsHZTDQqB9VMf+8POr5+P8uXMSUyEYqM2Pb8bAsQOhGqOEKlkJ3Vzd/23vS+CrqLK8Je+9qnov7GEnLAn7EhJ2AiQQCPu+b0LYQiBsYV8FRQXBDVkEUSAsgiyCKCAQsKe7Z2xtu+2eGVtnvrbb6flGBXugZz61uwWS//f7n3vvey8ISTQJuBT+jlWpV3Wr6tS953/Pcs+Bf6wfFu+Z5EWZqmUwZcpUXLyg+gEndORjzsVLuHDxPBo1aygBWNYAC/ZoG85IB1aqDbuxg3oxseLP5jfmtzYTGF6/dPkylImKgJVswxrogzPZD7unD97WPvhrBMAUt+x3we8o76snsN8AxCv0riDflOllCwJxAvntSpEaTbxwEDcpVzWIUwunIsGIc600FK6JB+CnC3AhtXgHnnpl4PN7MGp0Ijp0aCSBbdWqVROrHy1/rNdA4n5SchIaNGwAfyCAKlHlEVu/OmzLFwbiGsh12/mB3A1su3eg9iO9swB57g0B81wB9Tx88cWXktrR09qjAJtmdA3cqv6u9glJgIkyLylgNwBv64xtDSTtarhPvFuPAeiSxFKkyifepEmToCZ+7do18Z9SE6f2Ew5aav8ScnIuKnAUMFTAZc4TsMzhMSVUC9pScFIAXtLtXbiowJbpXo8fP4FVax5A30ED0KRVU1SrWwX+yg4q1aqEtl3bYeLUSdix81m89toZ5OScl3YYlJWeMQ11YqOR2i8Vx14+jgsE75wLmtRzmWc8n5ODU2dO49DRQ9i+ezuaxzfF4RcPiWvglVOv4uiJYxg5YQQGDB2Al0+c/No7mXbyv6MGHoI46eIlnDx5Av0H90eFGhUwfMwIVWCkiDzK33Y4T3mfHKmjvm37dgweNhTx7VshvkP8LcRjioaPG47n9z+PrEVZAuKq7RwxDbOa2/hJ4yXxSfWYGmgU1xjZR/bJGuqBwwbhsY2PyVKuc+cUr821F4W36rvd+VkvShW6V185hV59eiIqujKWP7Acp149JYVEzgf7iulL5judV99NJkc5OH36NRw6+iK2PL8FrVq1wvHjLyPnfI7wmRniyI8zZ07L6ohho4ahfJWKqN2wNnYf2oPElERxXT2y/hGcOnkKF3MuSaa/C+fOS3Y58y2PHjuKqTOnoUW7lpgyazKWPrAUnZM7I2thFo4cO4qcHMV3mtFD73sJZ06fxdNPP4UxE0dj96HdqFS7EiIrBNBv8AApxMO+yfNZuZATJz4v99nnVR8Nby/8O4f2qYmXSy0Hb18vGvZo+DUQp3VnzZo1Yk4niNeqVeu2pUhpTi8YxEMKg2jjBG1TaER84wT4ogW2yXU6DbQzy0JEEw8C0Q6sGj7c5y+DiIgIWJYlKX7Vlvvqb1YwY5EUTyACvqoeqWDGSZh5Fio3nFiI792NTv+Rouc9f22jhXNrSGnnX3zxBVatWQlvgjeUoUiWVqhOa7TzAHOpS8AbB57xZ7ECkS0FUOo0iEVPliJN7o3W7UKaeJcwTfybgLhoH0GAUoIzJMyo3WgQCwrmkBAKP09prTxXn0+hSMClcKPmdfEiWOeZgU8M2Hlu53N4dvuz2LHzOezN3if+cybkoBk+vF0GjO3a9TwOHjyoNe5bn8cIS6V9GWF67vWzEqx04cI5ZdrXz89SmaxVfrv3MoLf3F9p+DTZKy1cbamt50gbO3fslCIvwkNtdTDXmu0lgoSA/534Fn5cvRuXbx06/BL27s0W3zCrWe3NzkZ29l4h+XvvXlmTff78OZw48YqAo9Em+Q3OnjmLY0eOSTlLVvDavfsFAZfde/ZI5j4uWWOpVPWc/E5mP+wbFvbNcy7iwEGuQ98hEwe2pfgf/k78Phe06yN03GiwvIarJvbu3iOWIOFVGL84IeQyRFZH27Fjp7gtzp+/gH37syVokRMB0Yg16F+U/qN5LpNJZQnau3c3jh07Kku4DuzbLxOv0DOwzykrTOhbX8LZ189K0p9z53Pw3I6dePbZHXjx0GHJXWC+r3lnuc7wK994Cr1z+DXcJ4iX7VkWnj4eAfHFixfnM6ezUAvXyMfHx8skp2bNmkUCcRPYpoLbVP504/8WOSN51RWwEzBNhHphmri4/riiRiLaeb0Ne7oFX5oFizTRgm+CDWu8DWusBXu8JSlffeMsOWZP8MOZYMNh3otJtpzP60LtKQukSfoS2rqa+D2Hth/LA+QhD7k0pecqAOd752kTu2jia1bDk6DWWbKDmvWWIbC+xYelZ8xqdupHmboRiCxfFp279JL64QltE8GgNpWxrW9QE2/UqFEwsO1WTdwILrOlSdqQEmAELQOUF7RJNL+Z2Vwbvr146ZyY4ZU/XPlVKRgp1BWwU1BeEGA3ZsiQ2daY4XkuBX6Y4AsTiGyLgHnhkjqH91eTB4KQIhGUfKcL54I+cxZioYtA3U/5ttUzqfuY97hVyIrZXu6lzMsi6MMmGWoioDSxr12rBbrEBmiAMPe53VY9P5/HPCvBT4ORdhtclGcxkxb9PsITxiBclG+lnkO5RILvK+co3vGZCdj5QFvMv7yGZL5d2DcINxtr1wrvc0GAX2nO/Nu8l+LtT+RdjKla8VJPiAzYGTcN+aOfMchHY9LXk0JquIr/epIh317tq3e6iAvy/Ip/qj01kWSb9M/z/chn9Xzhz6t4w75rtGl1ziU1ARX+sF3GDPxETPWqX5tvofuHeWbpb4WPGYJ4ZI9IRPSOQIMeDRAO4vyNteBXrVpVJBDv3W94KGNbWHS68YMbGaKCyJScCUWbMxanEH84XX50/elYHm7VihoqGlqWMaZnIY+rY+aekqY1qJAo/7w6hxMBnyrNLLFBDpwlWht3feI/Ftj8br1nHnKRm3cDyM0F8nIB5BLWhb788gs8sGYVvPEeVdREOil9UppkcNDErgqhWLcpxxdRKwJlPGXQsUN3MZ+3bpOI7ikDwqqYKXN6gwYNigziFMQkassUhkr4mS2FX0jYGSF9u+35S6+LNihthAlYCm8Ws6BQPH/xde17VAFpIvgF4HgP5U88f5HmXQKIEpDUxIKarAYY1U4IlNX5+f2azCHOe4cmJGGgJM8X0vhv9z48poDnvJ5UGJ9p6Dr6fAmG5y+dCzOtKqAKtilBfoUL9JyLNAPzmXku+aH5Hvwmb8jkRcUBhPuszXNdwk9y3ghp5JpXoe/B9yePLuGcvpf63pwAhN1TP6/iaYhnwfeR51OTPPqcJSAu7B0N+KnJC0FRmZrZXkhLV99f3lEmX5rH/F45dMeo9jmZk+8gZurzun+qSQafWU1S+OxvSP+9cInnsB+bvqz6Me/Ndsi7UP/S1hX2Nd3H+MwKxI1VQgO+9AWCOFcrMG5AWS4EyHMuyvMKHzRvLl1iHADPL/i7B0G8V+EgHhcXhxo1atxWE58ybQF69TGBbfmXmJnIbwXmZjmXDZuVErVfXLn1qO0WDORM9uJlngsdDBdUPijLJNqdIO7A0ktig0oKFZYgsKvgXZ6jNHtbqqEpSyRX6vgRkAmFG53+3UK3H8nTMKBNQFzUbw3k1MyRiy+//Byr166UYCMOBnZwM2gkOl1AXHVcdng1y1V+c2NWiqgZgQiCeMfuSErug9Ztu2gQHyDmdfrE/f5IxMSq3OlcJ16oJh6mwSqhHhKSSrgXLIiMoKIADfoVw0DcCGoKUgp9JZh1UJoRuGEaoNK4KHR1gJ0xz2tBTJAg4CmQCRfkBDMtvC8prSwE4kZj0tvg8ymQMu9w61aB+AUFqGGBT3KeDtziZIOWAR7juymQ1QB8C5De2n7430oz1ppwuPAXEOc3IYhrvsm9zHcJgTjBj/ECYla/5d5i3dBWhfPGksG2c97QIKTbM4AswG7u8fVt6F35WwiwgiAu70Cg1JMa+Y4hcL6ol+vxO3Nywch1HhNLhJxrJkOqDYLrrf0zHMTV8zAIUQfUGb6F8ZLnGOuB+V4h0Oc3eyM4YZP+dUlZN9T7aRB/g+eoSYjpg2yD4B7iA/e/zrNbjzEgr3q36nDa+NFrdG/RvBkYuHDxQnTr1l3M90YTb9myJapXr65B/Bp++c+KJNnLdO0TZ9rVOk5wiVlI61ambwXkSvYQbAmcSgZR+1UZJNXWgT+L68f5uzK7G5lE2UXideoYf1eBbgx2E22da9T1OvXgM4SBOO/BawS4Gcim762O6eeQexggd83pPxIIvfevqQLa8lTuc9COzl0D4l+owDapSlbwjFcGlvFVsYPrtIQEcY/Pg46JCsTbiE98ALr36I+kpF5iTnf8AdSpV1fWvObm5so6cS4xY4Qo/aDhS6C4f6tgcf8uXPi6PCo6j27tb+7foXwBzMt+f+YE9B/eT/IDcCLD4E1m6OvWLVkS8KxcqczpzZs3R7Vq1ZE2JQvvCIBfxS//+Sr+8Z1PoOqJD0edOg3g1GHGNq4TD5m4Q2BdgNyh9rswAGuWD9ZgHyL7B2APsiHZJ6l5S6lkFfxmTPQ0iZMsJrYabMPuZ8MZ4sCZSHO9dg0arZzm90xH2vPPVnFAcr08p4qS5zMrLV9db5QXk4KV7+Ht7kV6Vjo++OCDey/wS+kJ7iuldt1mi8ABBeLGhB4Cc/rKv5TAtlW6tGgBg8mYtLTvSWanekCWqVkGET4POnTqJpq3ytimQLyrgHgsHL8fNWrWFO2xKCDuCtWQUHV54fLirvaBS29IZsSTJ15WyXbeuITjx49h8eJFUjqYqWCXL18uQW0KxKspEP/tNfzqn/8iYP7zdz7B1BmLQZ84QdyuE4DFUqQS3a00aWPxK3C7KIDA/IDUI+japwuGDB2CHv17IHZUA5SbUR5OFicFOqpdTPEqYM6Z7qBq72pon9JeEip17dUV0anRsCbnr5LGzJVWHwu+RAtWHxvONN2eyZEhbbN97Xd3NfEiII57SolzQEWkc404ScLcwP8rczo1cQa2+YJm9IIHFc1NqlOL2YkpDgni3gh06Mh1l73Rtr2JTu8v9cRNxrYqVWtJ8I0L4j8sUCqqBeCuAlEhmejcZymgDxrXhTG9E8RfPo5Fi5egW/fu2LJlK5YtWyYg3qxZU1StWhVpU/PnTv8ZQTz9VhBX6ZoV6CoZUqCsIZBm+VFuYjl06pSIj/7wR9y8cROfffYZNm3chJZj4uDPVGZzyiQV1OaHnWXB6Wxj9LTRePPNXzAESDTkrKVZKJsQCXue8pHbcy1EtPagXrN6SIhPQJ0G0fC19sKey8kGl9AazZ0+cS61pZJjTOncuub0Egcrt8E7cCCY7EUvL2NQGwPc8vLw5ZdfYtWaVfDEM+F/ETRx8TmF/FHUyMvUjkAZAfEkJHUzudP7o3vP/jBLzCIjyyElpR/eeeddfN9AvKgg5Z5XdHO2y6v8vPpOTSrov9dpbk2KXhbSWbR4kfjEN2/eIqlY4+JaokmTxqhSJQppU+eJBv4ONfF/uYZ/fOfjIIjXrdsQTl0/7GGWuOBYNpRUFHO6nWYjUCuA6VPTce3aX2RVDd2BBPOHzz4CZ0FIqTBR584MH2q0qiFWBCXnJJYXv3rnV2jTrQ2scT4poewb5JF15IcOH5J2d+16DpUbV4JvABWayKDp3/jjjfUxBOQuiN8BcdzDJc6B24G4RKoTxKmJq8C2wkDcpEI0GrjJ5lamTsEgzrSLzJ3ugnh+we0CmcsP0we+cyBOINdBgAwCpTl90aIFkumMNQ9oWieIM5VyVFQU0qaEgfg/3wrirCceAnFjyStKSlWmg67UtiL27tsjiakYm0sQf++995A2fzJ8PWgeNwWZlJbsTLMQ3bqWJOSh5VFigHKBX//q1+iQ0gEWMzIusOHr7UFUTGVwgsLTsvfuRe2WNeFLVVbJoP886EJUPnIXxEscodwGC+VAyA2uOjR7tUSs38T//r//xYo1K+BtU7gmrnKphzK1mcA2T6wHNetEowcLnnTrjTZtO6N7Sn+YjG116zYIA/FfgylfmTudVa9MxjYjzNytC2xuH7jHfUBH7KvvwOj4izh2/DgWLmJgWzcZtwsXLkRcXCs0btwEUeGa+L9cw1v/chViTp+xFL36jFCBbXUDsIaGzOkKCAu3/DmZfpTvVxFpaZOUJp4rGgnWPfSQpPD19SLgmih2mr1VBLvVzIf1j2/Ax598Ki7E619dlyQ5/joO/Ats+Ok/n+vAW9eLTomdMX7CRHTs2Am+Jj7QzE6tPqis5MvY5prTC8Ub94SS54BZJ67yphPRAaZdJXHZz4AJ/eHrUXh6QxP1qTRwVY2IQO5p4EW92Fik9hqEpORUtGWylx4DNIj3Qr26DUFzenJKX/zynV8j96YL4i5Q3WOgMv5ed/u1lSDBJZCGNxcv4dhRZU5PTu6Gxx9/XKq9xbVsgSbUxKtGIW2a0sR/+S/X8LaY0z9V0el9hoHmdH/dSAlso0laJv9B33LBQE5zuT/TRu050ZiVNROTJk7CxPsnoWX3FnB6W3BmqnXllqwT96l86/SPT7ER0zMGadPT8PC6dch8dBYSHk6Adb9edqaXjzF3f7muZVE5PgqRSWXhmeAV33c4gMszy5KzAPxM+hJ8dtecXvJo5bZ4Ww786te/woSJ4zEzcyZmZs7CrFmzMHPmLMyaOROpg3ugZv8acKaxQxY8oBSI66APDgIdacp64lHVq6FFizZo1Lg56tZvgKbN49G4eTwaNGmBqMo1YNt+JHcniL8Ls06cwsBo4mptayiJh/u3ywu3D9ybPsC8CVz/HqQLOTh65BiofScnJWHjxo2YN28OWjZvjsaNmqBd20SMv38m1jy8PUir1m5Gl2690SyuNSpHVYEVbcEaYvzg4UBesMzh8i7fYgKrgxrDaqJS6yhEpUSh7OiysGdSY1bruX30s3O1jFnrvdiBNcGH6kOroeHQhqhxfw1Yi2l6N+u/temd50+1YY+zYU3zwVrg1YG7apmayYvB6wIi81xN/LYg4x4sXQ4w9zcLJZRPLo8KvSqgYq+KqNCzAiqklkdkPz+cSSojUWEgTtA2fnCVFEYBv2+IBbupH+VqVkRk5XIIVIpEuagKKFulIiJrlINdy4G3oRd1Osfi0ps/kaCUv7AAigZxVp4y+cFNERGTGa24gjzUrq4wJoVK1D5zdJNYaOVCzgUhnq+OsygGi0ao49wW1Jb729f56/Lkm/FE9UXT/1TfDPVRtmUKAnHfVPe7qPur6ct3vmfRx5JKPiQgrscLixTt3LkTK1eswGMbN2Du3Nlo2aIFqjergZiODdG0Uys0adMKTVq1QpOWcWjUvAUqV6+GchUrwqpmw5fkhT1Vac0KaFklsXDrn4rD0Uu8Ztiwxtiwpzpw5inAJogrH7taf27M4FQ4eB97pgN7itqKzDIgTm1azOSmOiOfxyxX4/1CEwLVJsGbgXlUYgyQu5p46SKX23qQAxy80XHRUgzAnqN8Qc4cBw6XUmQ5CNBUJB2z4FmxAnk1+Bj0oQaByilsjbDg7eaFr7MPvs5eeDt74Ovig6+7B1ZfCyzBGZEYgdM/O42bN3Lxl2shn/iJEyekctXRo0dx5MhhHDn6EljliUVGSpN4P9KxYy/j7LnXFYifv4AL58+BBUpEgOZcwPkL54WMQHW3+QHG5Ufx+SETRj2pvB0/T7HanYyPI3qscEs6hiNHjgTJ9OnbbYs6lo7LuDseGnvHj+HwkZewc+dzWLViFdZveBRzZ89Gy5bNERkXgK+7F96eXik/6+3khbdjiHwdfPCmeqUgiQHDEIgXcVkrI8VliRdBlr5qlZXNtMNtYHEgmBudfysQV2u7uU/5xnME9FkoJehHVyAeyvimJgVGw+czM92q3GuxBccF8SCuuDt3kQOcwUe3igYTIKgUhDrzkKQgVDNO6bSFmNMFxM3MV0xXfjim/B+3kvOYA0UHmshslzNedczTLQJnfn5azOlXr14T3xpLGbIi0syZmUIZMzOQQXP/rEzMKgnKzETm7NmKMmcj8xbiPXjvJ556EidPngRLRp4/9zpYpvT8+fMuuTy4532AlfIefvhRzJkzDxkZM5ExMxMZM2fKGOE4UWNHucky2d/D6NuOocxZsyGUmYnZc+ZgflYW0tOniTl9HX3MMzPRokUzRMb5pTKYAlST99wEvyrt2ER5m3XVBFRqxcqaV5jiQG3XBK5RVoWyqEk7koRFtWFM30o757nM9qZlFO8XlHfaosiyywLwobXm6llpIcifmEYqmvFcZql0NfG7iF7urYQDBPHarerATld5h8X8pDuiGnwayAsBcTUL5oDiGkp2fJqdSGam6peBYgYXf+MsVlUYcuBN9mgQv4GrV69i06ZNqFatGpq3aImateshpkEzxDZsWmSKadAUhVMTxDS4M9WPbYwKFSujV69eqpzk6+dw7vXXce4c6ZxLLg/ueR9gnvK+/YYgLr6jjBH2efbbUN9vJn08tkETNGjYNB/x2DenxoiJaYKYmKaIiW2KRk1aolNiEoYOHYyuXTvjwQcfxIwZGWjRvBkCrQLwjVcBZQpEtZar42VMnnMJCNOTeZnka9dcYS48I2foj1ayRm+ZiEUAVZu0g5MCnbGN4K0B30waaL63JYGLnkSIaV1NEoKBbCIXGbRrISDvQCVEyzn+5oK4i6r3ggNiTm8VDWs6O7jRxtmR1aw2NLMseFbMWSoHgS3ZjBSIB7VuAfJbZsnBnMN+MWV5k704+/OzuHHjBv785z9j42OPoUpUFTRt1hJNm7fG4OETMWTEJAwepmjI8EkolEZMkmt43W2pkDYGD5uImNgm6NOnL1gnmfEDLrk8+C71gZUrV2LU6IkYwvEx/H6wzw4exq0idZy/TcLQEWlBKnTsFDA2Bg/lGJwoY3Lw8EkYNvx+DBkyFF26dsUDa9di6vTpaNasGQJxfvjGqYAxatYS/Cq+bqXNKj+01qR1ve+QiVoFyRYI5JQrvI5JXebbsGfbcOaoJWIitwjuOrOa0fRFy1/il4pokp1NXIcWnCydctUUQlmiNXJOALQJ3pjhHXmHcIDXOdddEL8XEObeMx+Ii/lIpxPUM0zONBWQFwbiLARgwZJZsdHEVYCIaPRiUjdavZ7thpmlvEkKxK9fv44rV65gw4YNKBtZFhUrVkLNWnXRqlV7xMV3QFxCB7SK74D4UqaEhI6IT+iA+IT26N9/gATunD17FqQzZ84InT1zFiTzd3G3pn13q/j8feVDcfvBrdcXxIcVK1YgNbUPWrfpiISEDkhI6ISEhM56y/0QtW6dCEPhx7/RfmuOi/ZIaN0B8dxv3QlduqRg8OAh6Ny5C1atXoMpUyaDKVcj4yJh0OUZvAAAIABJREFUjVOBYFKMRDRiA46Mn1F+aaV9K5nA/UjRyguWN8p9F4CzwA9nng1nuA1/Fz+sXgxuo+neB3uRXlYmJnd/viVgVoYDe5AfNq9JsWCNU9HsQeujTDosSfzizOf6ccoyRSqBDNe105qo3i9cs1fyUlsB3AIoLsiWNgcMiNMnLpq4+IK0iUjvq1lswYNKmZwI0tpUJWCufEQy+zX+cW2SCs2QeY4f3mRLNPG/X7+OT65cxvoNG1C/Xn306d0LUVFVEVWlJqKqVheqUrUGqlStWQhVR5WqBVNUleqIqlJD6HbtRVWticpVa2La9HTs378fp0+fEaKQZXU10pnTZ3HmtAL1W4Wv+3d+vhieCd/0RMjlUX4e3Ykfd+IZQbxvv0FI7NoTnZN6aeodtm+O9UKX5BB1TkrF7ahLUi8URKw82JX3kvuloktSKnr07I1Bgwahc+fOUvwkLS0NTZs2hT8uEr6xlsgVBeK01KmqX0qmMCgtFCMjckKbxlUu8oJlDs9xZvvhaelBz4E9sWLVcowcOxK1WtWCt69Xaf5sj/E4YXXIee/qydUxZOQQLF21HINHDIXV2KcC24z84nNOs+BpF4Eyte6TINwQiFPR4ZI4bb6X7a2WSxfESxu73PY1B7hsq3ZcTfinM5AjDLxphjJ/C/AWPKBC4B1AICzARIG1NqWHB4tov5cy2xPEfTjzs9P429//ho8/+VjKHMbExGDY8BFISR2IFQ88iZVrnsbKtZuLRjy3KFRAe8sfeAqt2nSQICGC+Guvndb0GrishnT6tTPBfXPs22y5lM6lHwYPvs33v9M1pk/wd7PP7alTp6TfsWLYwKEjkDZ9Ptat34l165/DQ4/uCNK69Tv0cf5WfHpw/bOQNjeotqZOX4TOnVMwaNBgdO6UiOVLl2HChAlo0qQ5Ai0jQ4Ft2qwtQB30eStLndLEFegpoCSwFyxvqInbsx1YAxx06p6Id3/7G3z66Sf405/+hG3Pbke7Me3FlG8tssOsg0rB8DT3YO36Nfjd797D5U8v46P/+AjP738OvkaeEDCnO4ho5EHfYX2wePli9BrSG95WXlhTCN7aWhnmQ8/3DiIvXRB3QfYucYDLV2rF1YKf0eli7lIdVExC9PEE/TwFDyoF+KomsDGPyZYzbenU9IlZsBeqmbmYosTMpSoA0Sd++mev4cu/fo7//L9/wiMPP4LYmFiMGDEaAweOx9PPHMbmLS/hma1H8PTWl/D0tuLTU1sP41YKb/fJLYfQPjFZon337NmDV145hVOnXgOX9LzyyitCp14J7Ztj7lbxxuVD8fnAVRGkO/GSID5o2Cikz16hx8SRr42NzduP4KlthxVtfwlPFYOe2PqitGPGycy5q9AxMQkDBgxEYqdELF28DKPHjUHjJk0QaFlWa+La5Ez3mY4CV0FknNwzWv02skcCxwqWOawbXj6xPJ58+kn8v8//V1VizM3Db979DcZnToCvJ+WRDR8TuYgl0BLtul67+jj1yincuH5dUk3n5uXirV+9hbbd28A33hLTuW+Ajcr1K+HZ7dvx0R8/knSy1VpUha8fNXZtPRDzuo5iD5Nzrjn9LoGXexvFASZtMEvMVEcPgXgwAlPPLGkKM4Ac3ErQhy2BIlyixg5OrVwNUr1enNeFB4do/zjNWibnuqebF6/+w6v4/PPPZTbNdIgNCOLDRmPAwLF48plDeGrLITy5VdGt4Fsafz/xzIvomNgdM2Zm4IXdL+DEiZPguvWTJ0/gxMmTOPEy6WVFJ07Ib/zdJZcHpd4H2P9OnMDipUswaOhIzJi94msT0vAx8eTWwyCFH/s2+08Ex98hPLX1EGbOWYFOnQjiA5CYmIiFCxZizOhRUvwkQJ/4WAKoyZ6mtVMdLa6scGrJmZIF2i8uAM5zCwNxB5U7V8bOHTvw+RefSx50ln749a9/jXGZ46RYifFxS2wPNejZNmrE1cBrr56WwiYsgkIQf/uXbyO+Szys8UpWWZMdRNYP4KXDL0m7zz23E5UaVYRvoAZxeUYtD0XmmWc3MtLVxF2MvUscuHjxEuq0qqfM6QtVEJvq+Ga2qY4xGYIkM2BCAyEVpMZzVelAYxrTQB6MCjUdnZHvYcvYxFTPAaxm4mXaeHDy/En8z//8L/74h4/w0EMPISYmFsOGjkTfAWOwafOLePyZg0EiwJY2bXr6ADp2SkH6jAxZYsYc0ceOHsXxY0ck2QWTaRgqarIM97zSTdLzw+cvExBpOn4MCxYtwoDBI5A+a9kdx8Pjmw+CVGLjZQvH3iFpLyNzOTp27IJ+/fpJkZB58+Zh7MiRaNSoIQIt/bDHqoIhIasc5Qmj0wsH6cJA3JnrR7nh5ZHaqyd+9rOf4s9//gx//MMfsX79erQY2gLWJAafcfVLpFI+9LIxp6ODGfPT8fZbb+Hqtav4zW9/iwceegCV21UCi6qYZ/XEezFkzFCsXLUSfaf0hTPAgTM9LLMcJyO0LBjfuATquiB+l6DLvY3hAEE8Or4enHTdGdkxZamZBnGZNXPAqZmlSnTAgahNZDILVfvS+bXWLZq6juakFi4d3YA42xQQp9bOdeQ2yjSOwInTL+Pa1Wv4/e9/j7Vr1yCmfn0MGTIMffuPwmNPHcDGpw9g02ZFRjCV5nbjU/vRoVM3TJ+ejh07dsisnDPzlw4fxuHDhzRxv2TopZdegks/DB6UVJ9gOy+9RDJ80X/z+OHDyMpagAEDh2P6zKUC1LcbD5yMkm732zc9Zsbfps0HQZoxaxk6dOyMvn37okP7DpJMZvTIUWjUqBH8Lf066ltZ55QMUbKjJEBcrH5zHHjaeDFm1hg8uH4NFqxegPjB8XCGK5mjfOwqG5vsm7zpKdUwbsY4PLzxEUydNx2xqQ3gG87c6PpZF/rhG2HBk+BBRKMIePsy2l1p6cpiaVbYcKvih4LWSW255N9sz9vdi/SsdHzwwQdG7P7gtvf94N7oe/RCEp0eXwf2DLXcQzoxNfKFypTlcE2lBnDTwWWJxaKwJRliHmfnN7NQ1anVDFWv5TTRocGkDmpAmIEVkeDB8bPHZY04O/sDq1ejXr26EjDTp/8IbHgiGxuf3I/HntwnRIAtbeI923VMxpSp07Bt2zbsP/AiDhx8EQcPvogDBw7iwMEDYMYsl1welF4fYB8jsd+F+PziwYMgzZ83D/0HDMO0jCV3HA8lOWYee2ofNj69L3iv6TOXoX37zujTuzfat22HGTOmY6TRxNsElDbMSTzHv8iR4mvgRkM3uSyoBHh6eOGJ98DT0QPf/bZKIkV3HUE5qJRoRWSJA2uiDW+SD544L7yJFqxRyrct54cpMk66qnrGNeh0EfId1H1NcFsIxI1vX4G5uhfbc0H8ewSI38dHVSAeDQaJSFYl0+Fl0BlQ5hpLZTpSS0SY3UgnbDDLK/RgkY5szEuibavZqNLElZYvYB+e8nCxA28fD7Yc2Ip///f/g3/9138Fl87UrVsPAwYOQa9+I7D+8b147Il92PD4XkVPZAuwE2hLix7dtAdtO3TDpEmTsXnzZuzZuw97s/dhX3Y29u3di33Ze5AttBfZ2dkuuTwo+T6wNxvZpOx92LsvG3v37kW2oew9yJwzG336D8GU9EUyRkprLNzaLscjaWrGErRt1xmpqalo06YNpk2bgpEjR6BevXoI9PCrcqDGEieaKWVKwb7uIv/OYDIdsKYse0r7lqQyQYUiTFmQiHcl09SqGQKwisuRCUb4c4ocVO0RiOV3KTVqzO1aK9daOO+vrJRhMtPVxL+PkPj9e2a1TrwunGnKZy2mIhkYYUvOmOxgth9Opg3/HAe+ebqggAA5O63p2Jz1KmI6VZVSVZunOEBkjaguQMDBI/dRA8Uab6NV33js3rtHAlOWLl2KunWi0b9/f/TuMwyPbNwt9OjGF/CIkPrbHC+N7boNz6N9uySMmzABGzdtxHPP7RLatWuX+Mh37dqpt+ZvdxvijcuLkuAFMwWSdrHvBfvdLuzctQM7d+2UFKe9+wxC2rQFBYyLkhsz6zkOH3seDz/2Ah7e+AImT1+INm07IiUlBQkJrTF9+nRJwVqpWkUpLyom70UOrMU2LB2ZLvJCtPJigrmYvrUmTC3ZACkBXJQQtq9kk7NIZ46TyHICtwZogrWAt8r8Zkzi8vuSkLZtTOMC6IvUMlopPyr34v1cEP/+od8P5InDQVyBqvFvE5wt2BkWvL19KBMTgTJV7gPrg3t6WLCZrpBVfBZHInJxAAETuS6zY2VykoxM2nfOgRIw2nzQH65M8GpA2fCleLFuyzq8+eabUp+4dnQ0Uvv2Q2qfYXjw0Z14iGtgN+zCusd24WERJBQmpUe8X/t2XTBu3HgJltm6dSu2bt2Crdu2YOv2bdi2fTu2bSNtc8nlQen1ga3bsH2r6mPSB7dtxTNbtmHrlm2YOnUKUnv3x6SpWVi3QY0LbhWV/NhY99hzeOix57DusRewbsMLSJu+AG3adURK9xQktGqNqVMno2HjRgik+GHPMFHpjHvR7jZZtqo12+Jq5JQ/C5k8hmDLNgPBJbFqZY2eJGgXnjwD5dQSBumyAEoAASodWmNWFgC2w6WwlIPcD9Osdfponse6DyT5XZbhhp+rFRtXE/+BoOR3/DVyLl5A7VY14J9GPzgHmooWZ8f2jbYQ3S0a4yaPxZ6Du8HEMHuy9yBtRhoqNC4PO42FAFSH5flqCRo7c5iWLQNMDQSasEJrxU0WpZC5y5nnR8WRlZC2LA0ZGRmoXbs2evZMRUrPoVjzyDasfeRZrH1kB9Y8/OxdodUPbUN8u0RUiopCxUqVEBVVBVFRUaisiftVoqLkGPdLnyojKorPUTyqXLkSikaVUbny94WK9k7F5V3o+rvxvaOE/5Uq8RtEIYok/ayq+i5RlVGufDk0aRaH8WmZWPPI9q+ND46Xkhwzqx/eqsbio7zXdkycPB8J8e3RpUsXAe/IcpEITHbgn6v84JQLISBkaWNqrAbkiqeJK5mj1oJTtpiochNnw/uIuZzasonF0e5CMb8b16FeJivXUYM3JNfxeek6JClromyN6d1o9lRM3Oj07zja/UAf70LOBdSMqwFbSpGGNGN21KQFydiV/Tw+/OMf8Oe//De++OILXLt6FR999BE2P/M06nerB4vJEZgDWSdVEL/63AAi+pdBRKsyKFO3DDzREfDEelCmbQS8w7zwz1G+LBnQehD4ZRlIAL45XlRbWBW1ZtWG0yOAGgm1kdJjIFau2YxVa5/BqrVbsXLtM1j5YOnT8jVPo2VCezhNA1IH2erqg6+rD15NdlcfzDFfkg/FpmQLvgLJB1+y9ztFVjcf7gZ919674O9kFb8v6P7k6epBRBcPfF0tWF290v+sLg68XT1gvQFvMy9i4ptg9IQZMiZWPbglbGxswaoHnxEqqfGyfO2TWLn26WC7EybORr2WDVGxc0WUHVUW9ng/vFneEKDp8S2mZ4I3gbHEQJxyR8kftpk/r4WaKHAJq73Ep5aCGXO+1rBF02YAr2R184l/XczieqLBzJPBLJZMUrWINc75DiH3oZoc6Oh3ea/w91PWSjew7QcKnt+V17po6omnc/2jWfNtSWnQlRtX4r8++QQ3dUKEPORKYgQmR/j440+QMXcmag+tDXuGzok83xZQDySURbu+SRg3PR3zlzyIhcsfwaysFRieloaWPdqhbMfysMfqCHbR1DmLNYNOmcfsLBvWBAcVOlRGcre+WLxiI5as3IQlKx/H0pWPY9mq0qclKzaiZXw7BJIjYU2ka8GGEyQLTgbJHHPgZBSX/HAyCiIHzkyX7jkP5DsX9J34W3H7grqe7ixL9zN/hgV/hgN/hl/3RQfejj7Uj2+GUWOnY9nKTVi28gksW/Uklq3ilvRNxskTMraW5mvjcSzjeFvBtjdhySo1/jgGORZHj0tHdIv68HbzwhHtW/uaRYs1gKd9yIyBmevAGuGB1cuSfOTe7h7cjphtzR7K4ibaOrhEyRjKCWXRU+ZuZSLXpnrt3xZLYLimLKZ2Da70m8t5BogJwPr6cHAO+tL5m/pdrb7hdbxGU9AloC2Q+vnUyhwD4hbS56fj/Q/eRx6z0fwA/7lLzO7hRyWI12lVF6YAipiZZtiITozGvv37cP3mDeTm5UnWIoJ3LgjlAud48fCLaDO8teRHthc4CIwNoF63RpicMR8Pr9+BJSs3IHPuSqTPWoxZ81YEZ/Bjps5Aw+HN1fpKFhLQfvPgINFmK2eqgwqJFdGxQzK69xyAlJ4D0b3nIKT0HIQed4FoAWjaNA5le5WFPYs1itVAVTNxo1UUzyRY5EjcoLBw7/fj4pn22YoGSABTZl2leTrwdvaiflxjdE3ugx6pg9AjdbAm7nOsDNRUtDHDsSXji231HISeMs4GyzG2pdofJOOQY7F9x26o1awevClmjbUBbgOSCvQIhKwuVrZDWXQd0wVjM8ciLSsNUxZM/hpNzkqTjGup41MR2S4AeybHnTJl3wriYgXU2SAlQlyDtFQ3CwNfkTEiZ3SpUjF/mwkH2y+JccWCLlxSq5+VE5kFDnzdfS6I30OM+8HfWmnideBM1zNO+rbH2Wg3oK0UXCCAE7SZnjAvj3uSbhi5eTfx83/8GZJHJMMaqkr5xaQ2Rua81Xhuz6tIn7UUnQelokFcU9RtFIsmbVqgx4ABWPngU3h+3xmkM/p8QizsyUzLyIHOAaXWahqTG6PhI4cHEJ1SF5U7VVWUyG0VRN0lqtq5JgJjAlLuUASJCIYwAVUig78kBIjbRskI4u8aHxWAGW3RgBH7IseJNdpCVK9qqJlcB1GdqiFKjw+OEVKljlFClTsWPmbMNV/fVkUltptYVbevx2In/l0NFXtEwRrP6G8GsKkgNvW8epws9MOeZCOmf4xkP2O6WAavMj3qb37zG6Hf/va3wf13330Xb/3iFzj92mmsW/cQmo9pgXLTysGfxXcOWfBE46a8CoI4tW1Lm8XDNWgTZa4j2ClrJIZHL6sVE38JfHfjd9cuA9HGFzpqnfh8N9nLDx5M79ULsgBK7Va1Q+vEmdFovIXWfRNw6pVXRAs3mjhBXCccBnLz8MZPLqHr8CT4Ui1U7lkVQ0ZNxK69p5E+Zymqt62NlHH90bhdKzSMa4HaTeshUDUSrTq1x6oNT+GprS9i+P1T4GnvFZOZAkg1QA2Iy3a+DTstRM5kG/bdIn1fP5fYyQSDz6fXutMkF/SBldRMvgQEiTupKCGt6rvxLZTmaVxNDLLSoE7NVEdW2zMd2GkkG2p8WBJ0ysBTkpXmg8X9Io0bCw7bYXs8X48BS1/rTHbgpPn1Ofr3GWp5lbM4UqVRNuZpMUkHwIQp0YNqgSlZWRshL0+JEWoESjlQSoLIQGoJuXlC5rd1Dz2M+oPqhyqIBbVoArXxiasJg1jztCmfvFNWszDlQEzmWgPXrjw1jov/vUUDl6h2dT8+C2OExCdOEH//fXnfeyXrS/O+rjm9NLlbSNsXc3IQHUcQ96llFRQOGQ5qdq2Fnc/vxJdffqlN6XnI1YNLRiGA7c9uQ/OhzeFt60GbfolY/sATWLJ6Ayo2qITyKeVx4PglLF/9OBYuexSTp2chrk07+KpYiGnTCAuXPIRNm/ehbM0KypS/QPmPRBsXcKQZ0firDLiHDUYRZhRopUhBH5kj5VU5qTCmf4lg1TNu9QzFFwI/TE3S5UtxvqtMGqWfEaTC+78xBZt4Et03BZi4r5Z58t5Ke1cTgQLHiwFfcx8B4ZBGy/tzSaksrdKWM3G/Ge1YtHCtKbMNiRh34OvvRa/RPfHuu79SdjxjzgsD8Xxiiiifa6x/efiP//gPpA7uCf8gruU27fO5tHwQU7ua3CgQN5MKbd2TDJQa5A0/9KQ8NBEvfj81pn71zch/tRrHl+KTtKvvuyCe7zO7f5QQB9Q68Wg40ywoPxI7cyS8PSzcP/9+vPmLN/G3v/1NmdLzbsr2+vXr+M///E8MmzQUFYZXgKcN6+6OxEMbdiC5Xx/4GvpQt34sDh79CV5+7Rc4LvQW5i96CDGNGsMu76BDl+7YsfsUEtp0gH8I151zcGr/n8ykOSgpgNRg4ICQ7Eza38QMcqVO2mSpZvPkC5M66KQ4nGWLKU8JueIIavfa4gvQHzYP9bggWAlgEpBUfwytkaYWHA7kCtzV+mmVcbGw8aLAx2iRfokBkTZl8srxaOvJrNqnf16eR3zNXFaqzenhz8HI724+TJo0ETdvXqeaXTTJpbV10dpz8zBtynRU6VcVDmNTBIA1D4zMMBMO4RGfS9NCHXWuLVQqSI3Pb8hY1EqiD5rSzeZ7qWelT3x61nS8//7vRH4WjQHfr7NcTfwefi9VirQWnOmm47NTczA68LSLwKjxo/HW22/j2rVr+J//+QuuXvtv/Ot772H8xHGonlkN9lwHgQ6RGDlmGlau3Yya9eqiUnQU5i9dhyMn/xEvv/o2jr/6Cxx/9U28/OovMG3GQtzn3Ie6CQ2w9uHt6DNgBPw9HBmcHFi8ryxTk5k+/6ZQUbNo9bvybxUmkEr0dxnwatZvniUo3ER7oUAoCSHgtuHyMX8fMKCj+psZCyYy2owV9j9W6jI5HkI+YAXiOglKIRNfBeLG2kQACu2La0ubqWVfrGWh3/mc5tuZiTfHCqPRK6ZWxJw5cxWAMa5GB8qa7e3En/lNtsjDkiVLUGdgXVkKy+cy4zDfVvJchFI7i+zIsiWeRaLc5/lFXtnzbDjz9fG5NlgNzfxevK25F7cW7LkWnDkB+JK8mDZ/qgZxNzr9dt/bPVYMDly4eAE1W9XQgW2qWIkIA2q8WQ6c/n5UaVQFCW1aoU+f3mjXvgP8UWUR6BeAf7YDe7aD8p0qYcz4DCxd/TiiqtdArXp1cOTkP+H4q2/huID423j51V8KmDNavVz5iqgRHY3M2SsxdNRk+JMjJfpbQFrP7kUAaM2D6zUNyaClAClEIJXE79T+LZnRU0CZGbs2ywUFmhGo+YWvEWju1uVLcfoAgchmylCdzIS5FYL5FdgnpR9q07VowARWDa7hPt8ijJfgxNSY4oMTaWMBYPpUC04+87SyoAXHpfjFGamuSpAaEJ8bBPGQmdwA9e3EF3+7nqdXxiAXS5YsFRDnKpqQWyESFt9fxqae6OtxKZOfeQ7sMRYiOpZBRMsy8DSIgDfWgrehF94GEfDFRsAX44EnxoOIBhHFpjINI1CG7cSG2mOGy/uiymBqRjref/8D1yd+u4/tHiseBwyI+2VwmMpkNI1FqkpmnKUyr/pYR0zngbFlYTOSnccZxDHfRqRo4lPwwCPPIKZpE5SvWwkZs5bjpRNGE38bx0+9jf1HLmLsxAyU8XjRoGlzPL39CHr0HozI3pHKnM7EDOJHouDSM3vxe1EDMaQFV9AcxvNKhyjUrMVhiSsoCEVwKjOZ0ghcEC8OSLnXFjzJEb/qYoK4ctsQ1EOaqAWVv5uaN6PD9W+0CnE5pCQ3sSXNaFHGCCesvgleSbPs7cbkRR54u3jgSfIiomsZSThTpmsZeLpGSAUwSW7UxSuapo/JZ7qo42WS7pM8E1ayF97OPpRrXgFz5s5R0Wxhvu4CQZzLWPOuIzfvhmjwShOvrep5i/VLyQFrkVeDOCcy5KWawFijfKjYtgISUxOxaPUiPL3tKew9sBfZ+7OxZ/8e2effirJv+dsc/2bbF/Y/jxf2v4C9B7KRfXAP9h7ciz0H9mDPvt34w4cf4quvviqesP4OX+2a0+/hx1FVzOqImcr41yRgZAFBXJm36Sv3M+kCi6Bwq83LktFogV+yU/UcMggPPboVA0aNgreejVp16mPDk7tx5MRP8fJrb+HoyX/C8lWPI657B1RoURm9+g7Bjj2nxEfOJVw2zVtaCClzXMjnlc9kFgTsgoVfSYCDeg6l2YQLwZBANc9Y+s9SEu/jtvH9+06mD/LbmXHBrUo2orRPZfamtqyAXn1nNbE115hj8jcnyJJaVGnYkgp5hg1fGx/ie8Zj9PTRSF+QjswlmUKzlszCrMVhtGRW8Dd1Dv8OkZzPa/R525/fjt///vehlS0msK0AuacAnjE4N2U5K0E8elBd2Ol8ZrOsLGxCE0z04sDb14suo7pg556d4NK1P/3pT7hy5QquXr2Ka1evyVb2r10TNyFdhSVBV6/+N0jXrl0VunrtGq5euyp04/oNtTa3gHf+Pv/kgvg9/HoE8TrxHBzUfjVg5RvkHDAhoaFMddRIlWbMAeUb6UPTPnGYm7UKazdsQcsu7eCp5kHLhNboN3Akho9MQ49eA9GwcwuUa1ER8Unt8ejGnVi59gkEYiLhzKBWrycMQfOYMZO525Ap3+WFy4tv1wcC1FL1Gm7xXwcju1UEde2+0Vj96GqcO3dO1m+/9957YDT1t6Xf/e53IPF6AihB+Rv9C0au04dOc/oS1B5UB/YMvr9SJKh0yORE5JOa0Pj6+9BjfAoOHNqPzz67UvRAum/0cO7Jt3LABfFbOXIX/5YlZq1qy1pO0YRlgDCwLTKYjlAKmxj/WNDPxkxrBH2/+LMr9q+EbgN748FHtmLJ6o1I6NYRET4PIquVQ8XoyrAq2ihXvyIS+6Vg1ZonsfW5I2iX1BXWQB+c+UaL+LrWG64Bu/ul4zZw+foj4GvYxFz50RXocbWFN9WLuSvn4YN/+zfcvHlTpA9BNzdXRZIbs7fZFkU83elcc5zbAv8ZbV1Oy8U//PSnSLm/BzxtPfAmeuFL9MHT2SMZ62iyF+roRbPuzfDsru0awE0jBd7J/bEEOOCCeAkw8ds2wWQvXCceik6n2c6YHZV2bDT0oNlOwJsgTuGn0gwyKUTVXjXRd9gIPPr483hg3RYMHj4enXr1QLuUZCT17Y1R90/B6gefwmNP7sbQtPvhdPfDZvAcg+i0FYATAxdUfgSgEnSLuO96V/q7jikJcMvxS9M73WRZAhqvAAAEkUlEQVQz/KjWrBou/fQN/PWvfw2KEYLstwVxA9TBxsJ2zG+Fg3hojZmq2ZCH7IPZyJibITUbZs6dJdsZ/HveTEWzM/Dszmfx4YcfKs2/kHlC2GO5u8XkgAvixWRgcS7PMQVQpoeZ0rVJm0E1QqKF64Evmrqu4SuCgeZ2S5aFWRMdVE6qit5jhknRhEc27cSiZeuRtWgdlq/ehAfWPY3Zi1ej67DeiEzmulYua9N+PG51267J9NuZTF2+uXwrtA/o4Eyp7pXlhzPGRsekDvjww98HTd7hQHvrflFkjbmmKOfe6RzVhjKlc595pj5nFUXjv756Tfu36eM2dBV//+rvwVoPssb8Tjdwj5coB1wQL1F2frPGci7koHbL2vCnB2CPd2CPt2CPs2BPsGGP98Ie55Nc6tZ4VihTVcqYllWd54M1zgufkA/WWBu+gRZ8jbwoX6Ei2nTojH4DRmHI8Ano3X8Y4lq3Q8XoKJRpHgFrhA8W25e2/HprScrX0L3MPd2tyxO3DxS3D9jjbTgc2ySO5dEWrCQL7Tp1wIe//zAYeGVAuDjbbyaFvn72rSAugBxmHVe/M/CNS9ZUAJzaGuDX69G/3rR7pBQ44IJ4KTC1qE3+9Kc/RZuerdFsRRPENIsVim1eH7HNYxHbLAaxTdWx+txvFoOYpop4XP5uFoP6zeojpimJv9VHfaEY1G8cg5gG9RU1ikVMExLbYZsxQvWbxsBQTPPQcfO7u1V8cvng8qE4fYDjlyRjlOPPjO/GDdCocWP8+7/9uwbE/DbobwvkRZU/dzqPJTtD9w4Ftgcred4S+CbFmSSRjAF0A+L53+dO93OPF48DLogXj3/Fuvqvf/8b/uvKxxJByijSK1c+w+XLn+Ly5cty7LPPPsPlz67gkyuf4MoVHvtUnXPlz/rcz/Txy/iUv/HaTy+r69nGZZ7P6z7Dp5c/xSeXP9a/XcFnl6/gymdXpP3Lcu2fceUy2+NzuOTywO0DJdUHPr7yMT69/AmuXL6Cy1dIn8n2ymU1VrkEKgSaIeAzx4olZL7FxQTxm6JhE8xVoRTuGHA3xVNu5HHplvGfqwJN5nwp2FTUNK/f4hndS0IccEE8xIu7vseB8vfcv0sQCwNZcm/m4iYp9wZyc2/K8Ru5N/BV7nU5zt/DSc69mSt1x7+6yXNugOffyL0pdPPGTeSyJvnNm7h+8yt8dfMr1Y6+V7At3u8mz80NPQvPccnlgdsHit0Hvsr9SsYfx2fuzeuKcm/KOL+ZexN5tyRhMYLoXoL4jXwgToDOhfxHlBa8zkMIxNXvAvRhWnrQR2BeyN2WCgdcEC8VthatUTW3DStKYCa1wcrhHAZmBqyLiRvflDk3OGi0Ccycz21wlsx946/SzxbWjgw2Obdoz+2e5XLA5UDROcAIbzX+wgZt+Djl0A7LaV70lkvnTKNxK/khDyfCxxwXTVw/vwJq815aMQ/+VjrP57aanwMuiOfnh/uXywGXAy4HXA64HPjecMAF8e/Np3If1OWAywGXAy4HXA7k54AL4vn54f7lcsDlgMsBlwMuB743HPj/lvjcuTURm+oAAAAASUVORK5CYII=;rotation=0;" parent="ot_2HG85SZWJpa_cD8Q3-9" vertex="1">
          <mxGeometry y="11" width="351.48198198198196" height="146.39189189189187" as="geometry" />
        </mxCell>
        <mxCell id="ot_2HG85SZWJpa_cD8Q3-8" value="" style="shape=image;verticalLabelPosition=bottom;labelBackgroundColor=default;verticalAlign=top;aspect=fixed;imageAspect=0;image=data:image/png,iVBORw0KGgoAAAANSUhEUgAAAQwAAAB9CAYAAABXhV1DAAAgAElEQVR4AexdB1wVuded9+gI2EWxd0VFrGtBEQt2ESsidrFhQRQUewEpSu9VUMGuCHbFXlDRtW2x7VrW3VXXtnYp5/tuZgIPRMD6R/c9fodkMkkmyUzO3NzcZAQof8oWULaAsgUK2QJCIeMpoylbQNkCyhaAkjCUD4GyBZQtUOgWUBJGoZtKGfFrtUAm+B+ATBHMyQQypWMWnn1awUeRFA7zKDTPi2WWKV2LXOana0h+xXwUs5XO55H19xPE655VIzFASRhZDaL0FJUWyEAmCPSI8s7PHtcCCSMDQEZWGk4quevF8xIJQ7paRkbehEFZin2FO1mEkjvf7+pYqnN2nSggQzkkyW4Qpa9otEA2XdAjynspSRYcFMb87DSPL1EMnciQwDJQqJXUCZjD/zGpgiQKiTCypAs6FsMyeBhdj/gog8dPR0ZGusIFviOvQltRc6ZnZiItM1NJGN/RLf4+qpKZCdZBScLgHTWXKxKGdD5r+MLjsx6dzSiKraLQCShvsfdTIP1yD01EVhKHKSIZseSSEEOMJRLKf4Ew6J5kMCiHJNLjonSKRgtQJ6SHM5ssFP2cFIgP0qU4ohDyzz//4OTJkzh69Cge3LuP1NNnkHrmDM6dO4fz58/j0qVL+Omnn/Drr7/i6tWruH7jBm7e/A03b97EnTt3cPnSZVy8eBG/37yJe/fv44+7d3H9+nX89ttvePzwIR4/eoyHDx9KeIRHDwkP8fDRP3j06FG+yE7H0/9vXWqrwuEBXrx4kX0voJQwikYvUZYiqwXYe569vemlzwmCXEloyHIzcO3qdWxP2oGgwEDMmOGAfv0t0adfH0xxnIyBkwdiwOQBGDRlEKymWsF6mjVs7G0w3H44Rk4fiVEOo2HrMBa2DrYYN2EcrIcMxZAh1hg70RaTHSdjwrQJGDVuNMY6j4G98zTYO9ljmuM0CeQnTJXAw/NxnaZhWn7IyjufPLKux6/7rjvVcSo+CxymYrqDPQ4cOCC2vTTMU0oYWY+q0lMUWkAaNTCxQSQJLvpz8sjAmTOnERu7ClMj7dHBzQyVxleC+gA1CF0FCEYChOYChEkChMkChIkChPESbAUIYwQIowQIIwQIw2QQjGQQGgsQuggQeguQWQoQBggQLGUQugsQOgoQDAUIvQQIfSVYCBA+FDzt+9wPzS+/+O+7xgeEy1oJqNyoMqKioxlhkF6IdDdKwigKvURZhqwWyJIkuFaBDU/S8frNK1y7fg0J27bCyn0wSvcqA8FLDvl+FWicVIfWOU2oJ6pDPkoGtXlqUP9RHRoXNaBxgaAOdcJ5dRaufk4NamdVoXJKBUIHAWquatA6oAWdszrQPa0L3RQdFDuhDfUEdcjs5JD1VIHKZhWo7laByh4R8j0qkNOxQhg/947L431LrqsK2o9rjx07dmSTt5Iwsp5TpaeItEDWjETWcCQD//77L46lHMf0xQ6Q15NDtl6AeooGil3UQdkbZVHlfhVUe1YN5U+Vh9YQTZTeXhrlXulD/215lH9dHuXJ/1If5V6UQ7nnZVHu3zIo+7Q0it8vAVktGfT3lEOdR3Vh9KIxGj8zRqMnDVH3fh0YnDGAxmwNqA5Uh85BXeie0YVuqi50zuqiGLmpetBNLY5idJwfUsV0lPZ90EktIA+Wvw6Knc0fOqk60C0U3l8WKqNmgAY62JlKhCENCZWEUUR6yX+lGFn6B8kjzZlmKzgz8VZSepIcnJGRiWfPniNxVyLqmteHYCOH6nF1FP9FF3Ue1kGLNy3QNr0NWqW1gnGaMaqeqQ7twToou18f5d7qo3xmeVREBVRCRVRif6JbGVVQNbMKKr2sAJWqqqiZUgtt3rSGabop2r9tB5PXbdDy3xaoe6kudOcVg9ogDZQ6XhKlL5RG2YulUeZiaZRmKIMyF8ui1KXS+UNKI6YrhdIX30Wpi6Xyz+NSaZS8WEoC+fNGKYVr0fXyQtb1L5RC6fdAJ6QYOkw2Y4TBZoOkqWTlkOS/0lmLQj05YTAFGp+flGZBpDEyt3Egwnj+/AVCQsJRqltpCIcEqJ1XRe0nNdAhvQP6pFvgh8ctUf4vfWjf1YLW35rQPlMM2tOKoURYcRi8MUDFTE4UIl2IxGGASjBApUwDVHpVGfJWKtDdrgftP/WgeU8L6rfUoHpFFfKLKhD2yiGfJoPQR4CQKEA4IEBIllzJLzsgoDCQH5SBUJi4BcXheX2Kq3JIzsrz3jw8VdB+PA1JtmfPkmQqDbeKQjf675SBEwbTSygSRgaTJkiiyGQWlxl4/foV3D3cUGJQCajtU0WJK8XR6HVjdE/vBuO7RihzuTS0UjWgelIFsuMyCCcFyPbJIHOVQdZJBtVUFaheVIXqZVWo/qQK1Z8JKlD5VQUqVyT8ogbZRAEqM8W0wgUZZKkyyE7KIByRQdgkQDZBgNBTgLBeIo2k/1eqbpdAfsVjHv4hLs/jU/P5kGsWJu4SAe1s22HH9h0SYRCxKwnjv9NZi0JNM9OZsZRo8CRKFqIVhfgwKg5N3N3dUXlSJagmqaH0jdJo8KQemj9qhnLnykL7oDbkiXII6wQIS8SZC6222qhnUR99JvXGoDED0W5cOwxaPAhWLlYYtGQQ+i3oB4t5Fujl3AvdnbqjywxzmE01g+mgdjAf1gVtR7VGsxFNUaVbZRRrXgzFmmujmLE29GrpoVG7hmjUtyEa9W8EowFGaDSgIYPRAPGYwj4GlN+HoGG/hvhq6FofUXERzL6EpD1+z5RDkqLQkf4rZZCsK8WHT1KkMXOLLNGDTeElbNuGNmZtIbeWQ+9ocVS/VwPVb1dnegT5Jhlk4TIInuI0aCPLRkwZunrtGiQnJyM19SwuXDiPEydO4MKFCwxkuEUGXGfPnkVqairOnDmDU6dOMUMvMvY6ffo0jh8/hiNHDmPvnj1ITNyWhaSkRBw4lIyDhw7i0KFD2Th8CIcZDuPw4Y9DjvwU8y4K/oMH8Pfff0lrc8h6lu5XunJa9b/SV4tEPZmRRW4TbG6QJZofb9y8Cd0iuqOERwmo2qtCb4EeyiaUhc7BYhBWyyB4C5ANEGA0zgiOyxyxZctW/HrlCl68fCEtWWPzsaLgwniIHnTR/FtRgiE/zcjQGgn6Q0aGuAaFRaWEvJOIlqeiuTqVVSE/lpKGVt/hT6HteJ2VQ5Lv8D4X9SplP3zU8RTWaGRmIuVUCroGdYfuTh1oXdJGia0loDNLB6oTVSHMFSC4yJgB1QC7gYiKjWIm3aT3EDuzpDxlUkw2afDrUbtwv6LLCIPSMMJQyENa9cqyyxLJRbLg6fn6ioLanMcn90v9Pvs1uBKa1V0idaVp+Je6fcp882oBWrSec50IrQdJR3paGm7fvoWRDiNRYkdJqJ/XYPYV5X4pB614LQg2AoS2AtQGq6OjhRlSTqfg5csX/Clml8o2KeedWtSLZIkauQokdjBOENKK16w1LIxdGKFll1dau0L5SG9fkTByZZzH4WfvzF/hGkz5LC35z25DpaVnHk2vDPpSLZBB5JCZLkoE0ls7Iz0NDx48wFK3JdAbqwP5XhlK3SgF/Wv60DmqA1m8DIKTAI1GGmjZowVOHD+BV6+fs+GHOK4WH2eSMsTOzSUJkYzY/hg0dJCGEopuemaaJJ1I3MOGTDRsF5fHU6dJy0zLUviJaaXWEUWPPPNVvMb7/B/Txop5fUx6nkYxH+7n57ibAWo/cVgmtqFIqkqlJ28hpftFWoA/kOTS3hHsIVQYHvz79F9s3b4VQhOyZ5BB56ouKtysAL1TepBvlEPwFaA6VhWGZobYuH4j0tMpj7fIBC0rZ9oH0fyLPdw0C8MJQyQJXinFcnA/EQbziwJF9ouUEwbREpM6KF5atkTDiEXUc/C8PtTl5foQV/EaH5Iud1zFfLj/3ThpyKS9Pqhd2fBMlMaUhJG7pZTHn9wC/CF8x2UdMfttnvY2DcdOHIN+67IQUgWoXdRAtbvVUOpcaahuVYUQJEBwFFB1WFUsXbo0x5v+kwuZTwa83CyKAjmIjCIOSUSWkvy58lJMr+jPFa1oHzKeYOwrEbJIwErCKNq37ZssHe8k77i5CONUyil0mtQJ8mMyqJyTo8q9KihzsRQ0dqhCFi4wRWeJviUxbtx4vHn95n9MGHy8oiSMb/KhVBa6aLUAJwcqFffndkmHwWZGMoHz5y9gfOR4aO3RhspZNVS4bQD9a+WgvlcNwkoBwlIBQicBA0cMxN0/7jL7DDE/cWblc9ResXz5lTtLmpAuqpiO+xXLw8MUXcXz34JfVNFIU8tZ91Rp6fkt3LtvooyKnYP7qeDcz1xSpCEdv9/8HQv8FqLsjLJQPaeKUtdKo+LvBtA6pCEqOT3E/Se6D++O/cn7md5CVGpyvQS97T/9l6NseShFxfPibItIdHkrTxXzUSwVD1cM+1b8ojylKFWJOhvlkORbuYPfQDl5B+Fu7iJT+LPnz+AX6oeak2pCZZMKil/RQ6VblVHshA7kG+SQ+QgQBgloNbg1Vq9djadPn0qKSdHASlRz5s75045zl5cfi64CYWTZJnBFoDg8UYyvWBIerhj2zfglrmBESXu4S1POSsL4Zu7gt1HQ/DoJibnr1q5DK8cfII+UQednHRjcrIiSP5aEsEUGIViAMFNALYta8An2wd27f7KhCBsSsKnR7Af3c7cGL3deLp8+4eeyCqXwAublyYqTS7ri578VV5o1FolCSRjfym37dsqp2FGo1HkdHz16BN0Xd4NGpAa0LmtB/zd96P9UHirbVSBECBAWCCjeTw/OHs64dvUay4OGIpKa/osqPXl5c7sZGRlsI9y7d+/i0uXLSEhIQFRUJCIjIxAdHY3wsDBs2LCBxfHx8YGXl9d3AVofc+jQYdy4cV0ykyepSmm49e30yCJeUt7ReDH5MXevXLkCa0drlIwuCfWL6ih9owzKX9GHxj5NCNEyCK4yyHvJMHTSEFy6fEkiHNEyVDIDkBSf4rQsv87Hurxc5NLvzZs3bGXmrVu32O7iKSkp2LdvHzZv2YioqHB4eS+Fh8dE9O7dAh3NysHSsiwGDqiAPn1KwdbWEJcvh6F9exW0bSswtGkjgMCPvzV31qzemDp1FLYr98P42EdMmS6/FuAdMKtXU2RSJGZk4O+//4aTixMMZhhAJUEVxa+XRLmr5aBzpBhkcXII7gIEKwENmzfEhYs/Ip0MvLLEYJoVEUmCXyOnm32O3oCK55hooiChkAk6bZtPW+zfuXMbV65cxYULF0HksGfPLsTFRcPHewkWLrTF9OndMHhwA7Rtq4MmTQV0Npdhsp2AHt0ELFokYHuSDDu3y5GUqIL4eBmWLxewbZuAxERZDiTlOs59/kscJyVSud6PxEQ5EpPyx4KFcowZ0w7bt29XsMxVShj59QHluQ9pAUUlGVOQ0XquTLx59Rp+/n7QH6UP2RIZdHfqotzFcpIlp7j6VD5GFWVrlGUzIi+eS9/BkAiDLSyTRiVZMyVZysecBEGKObImffPmFV68eInHjx/jwf0H+PPun7h18yZ++ukSDhzch9jYcCxzdcZ0++Ho19cETZpUQK1aajA2lqGbuRxzZsuwLUHArp0y7N+vgsNH1HDyhCZWxWrA0lIOHx9NnP9RD+d/1MXJFB2Eh2mjVk0Zjh3TwMkUTZw8qYWUFII2Uk5q4eRJKZzOvQ8nNZFykuJ/Ok6lFEN+SEkphpRT+SM8vBimTu2A7TukDXTY/VASxod0CWXc/FpA0pKJb3hSTmYiLS2NKS5LVC4BIUGAfKQa1NtpQ32hJuRb5KKS006GMsZlERocgucvnrN0ZI5MsyGShXa2oMCnPokwaGl6OpHDG7x+/Zrh1atXbFblytWfsHv3bvgHBGCG/WRY9O4GQ8OaKFNGCwYGMjRtKmDgIAGbNwpI2CZgxy4B+/bJcOigCo4cUcPxE2pITdXA5cu6uHWzIv55WBvPXxrht9+bY/AQfcTG1sWzf5vi3r3auHq1KuLjy6FuHRX8/HN5/HKlHK7+WgFXrhjg11/LM1y5QsdFC1evGiA/XPmlIpa7d821RZ+SMPLrAspzH9ICWftHUGcWCePu3T/QuVcnqB5WRbHf9GB4twHKTC8L+uaFjL4NMldA6WGlYTfZDq9evkK6lI4NZdjwQtJXiBbKOYYbdA3aIMfb2wf9+w+AiUl7tGtniipVqqBqZT00a6KHrl214eujgXVr1bF+gwo2bBKwlRGEDPv2y3DqpBxnz2nj6rUy+OtuVTx+bIgXL1rizWtTpKV1QFpae6SltcOLF03xzz91cftOZfTsroV5czRw5rQ2Tp9Sx4EDKvDxlaNmDQH7k+U4eFgFhw7JcJBwUI6DB1WYe+igHPmBxT0kx8HPgENUhvxwSI5DBcDXWw67iXxPTz47pTTc+pAuoYybTwtkWUkwKSADt2/fhtMcJ2jV1oTWr5po9LwRDP9ogOKJxSFzEiDrKkCnuQ4shlqAZiDICpQvJSelhSiw0IOabR369u1b/Pjjj1ixwgumHUxRu05NDLXWRz9LHXTrpomISA2Eh8sQHSVgzRoBGzfJWYc+dVoDly4Xx2+/V8Dff9fE48eN8OzZD3j5vBVevmiFV69b48WLZnj8pCHu36+Du3eq4vq1cizNxUt6OJeqiVOnNHHihDoGD5Jh0kQ51q2TY+9eAUlJAtzdBFSpKiCR9Bq7BOwi7BTd3TsFMOyWYfc3BFcXAeNs22L79iSF2SklYeTTBZSnPqQFsju4KF3QOpEKzQwgS5Sj4pPKaPOiNSpdrAS1zeqQuYq7ZrW2bo0Tx45nSSTZCktphTnTVWSw75vGx8fh8ZNH6N+/Dfz9asDTUwMenjJErxQwerQAy36qOJOqg19/LovbNyvj73u18fBhYzx63ARPnjbBs+fN8Py5MZ4+bYBHj+oy4rh9swquXy2HX34pg0uXSzKdROoZLaScVMexIypIPiDDnr0Cdu4UFZqbNggYP05Aqx9kaNZMhjZt5Rhr2xxbt3qgokFJmJkWh1mH4jAz04WZmR7MzIqjoxkdk78AdNCD2ddEAeVp3FgbNWqUQ0hIsHR/iLiVW/R9SJ9Qxs2vBfhUBjLZrIhPpA+E1gLkNiowTDBE3V/rQGe/DmShMvapwkZWDRESF4LXr16z3a4YWUi6CZ4VDWlWr47FoEH9YGnZFGfPDoGbuwr27lFFaqoefr1SHjdvVceiReVgY1MSf/7VAM+eGePZs0b4998GePjQEH/9VRO3blXGjRvlcfVqWfz8c0lcuKCLM2dIGamGI4flSN4vx57dcuxIkiE0RMAsRwG2YwUMGCCge3cZBg4qhUmTDLF4oRmWLB6MBQvt4e7hitCwYOzZswd//vkn4uPiGOLi4pCFNXGIIyiGfSP+VatWISYmBpcuXWTL28VhplLCyK8LKM99QAvQhisZpElHJo4eOwrT8R2gslIF5RdXQM05NVF8anGozFBhlpyqHdUwYtwItsUe+w4JJwq23V4Gnjx9iuQDB7FokTNsbJrCxkaGxYvkTG9w9VoF3L5TFX/+WQsPHtTH40cN4edjgBHD9HD6dBXcul2FkcNPv5TC+Qu6OH1GA8eOk15BjuRkGfbsEbB9h4B1awXMnCVgwkQBNkMFjBmtCwf7apg2tSkmTuwC+2lWmD1rMhYvXgB/f3+sXr0GO3fsYlOwV69dw/0HD/Dy1StWZ3FRHb2BRWWsuBMXH/dLUzwf0JZFISpfKCgOD6V9QaAkjKJwb76LMqTjLdKRhvsP7sMnyhs6o3Wg91wPHd50gH5Yeaj2V4NgLkAwFdCwR0NERkVmmWxIEyzs+Oz5VIRFBGL+vF4YMbwsbIbKEBikievXKuDuH9Vx/34D/HW/Hn6/WZ3NRPx0uQx8fbRhbS2Hv78cBw7KkbxPhu17BCRtF+DrK2DeXAHT7WWwt9fAnLmlsWxZDSz3aI7hY8wwdkx/jB83GrOcZmH58hWIXbUKu3bvxtlz5/DHnTt49Uqc5s0mAYkAJHIgRW32rlwKhCGR57d6c6lOVGeuTxKntJWE8a3ez69bbq6EZFeVDC54CaRDJmFkpuPAgQPoPrsb1OPUUe1NNVi+skTJMyUhj5FDGCmgRKMSmDVrFsiikr+RafqVjnfu3AkvnxGwGVYOfr4y7NyhhcVLdDHVvhR++60h/rhbH5cvGeBEih72J6tjx3YZkrYJWLFCgNUQAYOtBMxfIMcyV114epVHQGAtjB9njAH9TdDXoiuGDLGCvYM9lnt6IC4uHskHk3H1yhU8+/cZyARcHAqJnV70k6Up7e5FZmSiBCFGospTo9D5TKQxxaw0o8Pb5Rt3qU6MMKSqisShnFb9xm/r1yk+e9GILxvWeZgVpthlsjo9iQf00WRPf0/o2emi+LPiaPm2FZr+0RQaO9XF3bNGyWA+tiv27t3L0r19m4aHD//B2bNnsHzFQrT8oSSiI+U4flwNNDtx54+qSNpRFba2evD3L4HkZC1s2iQgfo0Mfv4CXF1kWLpYFXOcdTB6VFV07tQMrVr/gP79+8PBwQF+fn7YunUr+x7J/fv3mV0IJylylb8PbwHlatUPb7P/XIocb15mKyHqKthUKnu7ihr0gwcPoPf83lCLVEW1N1Vh8dICxVOLQxYng7BYgLqxOpb7rMA//zwEGVn9/vtvWLMmCubdGqJHLwE7dshw9qw2U1LSzMbDh0Y4e7Y8Fi1WQ9NmAkKDBbi5CVi4UBPmnUuggWFVGBs3gYVFX6agy0jPQPrb3Jv2ZhODkiw+/dFVEsant+F/IoccnY0N40VBnf0XN9nG4sWLoTdbDyWel0DTt83Q4u4PUKWVqEEyCJMFmAxpiwMHkpl0QeTS19Ic7doL2LtfjpQUVVy7VgqvX7fAi2fNcONaFRw+JEoUbu4CunQR0Lq1AP1yAjp37oSwsDC2ExcTlUU9vmTHQZsDiysreZkVb1BeYYrnlf78W0BJGPm3j/Ks1AK8o4nTa7Q4jBOGuKL06JGj6Dm7J9SjNFDnTV10f9YdZVLLQIhTEbfbqyvAN8QPWxMSMHToUFgNLo2tmzWwZ7cMFy/p4OnTRnj2bwvcvl0Dp1KKIylJFbGrBHj7CLAdJ6Bb1wa4e/d3bN++DTTdSnqH9LfSLuHS7t78Y865CYPKzn+8HvxY6X5YCygJ48Pa678Zmys9mUtKQXGLf9Yxpa+tz5k7F/qe5VHyj5Iwfm2MpneaQm2XpLuwE7AkaAnGjR+HAQOaYvZsPWzaJMf5H3Xw193q+PffFrh3rw7Ony+DfXs0sW6tHIFBAhYuEDBwgAbMuzbHqlXRTDH57JmooBR1jvTpAlpwJhqLZZOBKGHQzcoOy/YrEsh/84Z+fK2VhPHxbfffSZlDb8G3pxNZhDrf6dMpMLfvAs21mqj7pi7aPTVBubNlIZDuYoGMGXCZWzTFwoUGCA9TR/I+Ldz8vRIePmyEe/fq48rVKjh8RBtbtqgiPEKA6zIBFhYC+vVrCB+f+Thy5Cj+vveXgomyKDFwYyJOCowIFOdo30MY/50b9/lrqiSMz9+m312OWW9xblvAOqU0s5gJzJ07B5V8K6Lk1VJo8ropmt1qAs3N6hDsBKi0FDB6hoAFi0mpqYKrV8vg779rM6L4/bfqOH26NLbvUEdsrABvbwH9BwsYNLgaZs0eg3Ub1uHGb79JUkIG21uD9tdQtImggRGf8hOJg0/ffHe3oUhUSEkYReI2FO1CEGFkbWoj9k6+OoztTtV+eDtoJKqj7ps6aPFHC5RfXR7FRsrRsJ+AEaME7Nknx+WfSuLmnUq4/6AO/rhbGxfO67Phx9o4OQICBSyYR8OP4hg+qjt8/VbgwsWLePX6VdaQIssiNIPsHt5KCk4aHoltx3QqfPl7Hm7RbuFvp3QCzZ1/LaSn01iTnjVxzFlQM716+VqhbE/x77+Er1fe7+ZaT5+CPklI9aFvmWa/icVhRY43dJYyk7276ZT0RifTb/Y5ZWmPR0qbgblz5qCCW3nophZDg7OGMAqqg3pj1dB/qAzL3OQ4k6qFGzcq4v6Duvj7viF+vVoZRw7rYNMGOcJCRD3FgMFqmDm9GRxnTgPNnjx9+kR6NIgQFPQTkvCQhpyEIdaH4inEzUUaBT1rYh7ZytH3xefxyM3r9/z5c5DNx82bN/HLL78wG5Bjx46x7f527NiBjRs3gtZpbNq0CVu2bGEgWxHuL0ourThWrC/5BbKR/1JYtXp1Vt60kOXJE9oynhMGjYXz/12++DN27NiNDRs3YfXq1VizZjVWExTy/ZxlX7NmDd4H8Zr82vm5BbVnfmkVzxWUD5U1Lqt9822HVauwelUcNmzYhGtXr+B11ptb7GScMNjuVowwskkl5wND8cVeSztb/f77DdTpXBsyHxnKxJVB+TGl0ai9Opwc5TiZooFfrpTGn3/VwNMnTXHzZk2kpJREQoIqW36+ZAmt49DA6NHV0deyDzZuWI+XL+kjyzk7Ir9+7ieFh+fnvi/N+8LzyoviUjht1EOES2RAHenatWu4fPkyI4QTJ07g4MGDbNOedevWITQ0FB4eHnB1dcWcOXNgY2ODLl26oE+fPmjatCnKlCmDNm3aoGPHjgydOnVCUUPr1q1BmxorWuRSOwiVq9TAl0ClKjXAULkGDCpWg0wuZ41MTxy/MblvXO7j4KAQdOvWG42MmqFS5eqoUrUmKlepiUpVqqNylVpi/p+t/JTn50AB7Vm5OipXrlYwPqBe1DZ5olJ1VCJQXlVrom69RnD3cMe9+3+ze8B1AeyeMOkhW6pg/ZaROxlliWae6WnpbOu7fx78wzqLo9NMlJxaAuXbCajZWAWGRioYZiP7/+XeWrh1uzKePW+Ce/eN8OM50lOoYPUagVlozpmjiv4DSqFrt3bwC/DHyxcvpfIo7IkhdVR6VviPPzd5uTxOfi5Px+PQMe3aRUZkNPvy6NEj3Lt3j+3PQR3l+vXr+Ch2X3QAACAASURBVPXXX3Hx4kUcPXoU27ZtYzuFkwUp2ZzY2dlh0KBBrLM3bNgQ5cuXR9WqVVGvXj00b94cw4YNw8yZM9GzZ0/QeSIPKysr1K9fn4UvWbIERRXDhw8HkUZUVFSO/io4OC4Dx3THZbB3yh/THJehINizPN0wfeYy2M9wxQS7OVDX0GI3gPZdY+NRhQeB38DcLrG0SfuO6GM5DA6Orqyc02dSvq4SlrFr8PJ/STf7mvza73PFMlHd8wK1h/0MlwKRV9qcYe+7fnb4tJkumDpzKexnumD85LkwbtIS7p4ejLjJ2pLwkOEfPHz4AA8fPnwHD/75BwTaOJc60eGjh+Hv7422rY1QvLgcpcqQslLcXWrDBnXMmFkMLi6V8fhxC1y7VhHJ+9SxYb0MoWHi8MPOTh0WFjXg5OQI2kmcSEvsyFwtkv1CyauD87DcruKzw88RGdCmO7SF38uXL9kGwEQM9HEk2u+T6kt1OnPmDNvsljqHu7s7MysfMmQIzMzMWOcvUaIECBUrVkTt2rUxePBgzJ49G/PmzcPChQvZh6JJmli2bBmTLDw9PbFixQr2uQFvb29md0IkQZ8gsLW1hZGREYsbHByMoopp06ZhxIgRoGGU4k+YuygAXwSLAzFncQCcF/nDfuYyqKqqiRLGBxBGfHw8evTqi54WNpi7KDCrnHMW+mHOIj/MXfw5y0755YNFfpi3yA/zC0QA5i/KD/4F5kHXKeiezFnoj4LgvMAPzgt84bzABzMc3dC8eXssX+6JunXrQldXBzoMutDT1YUuQUcXejo60NMl6EK3mA60tIpBU0sLesX1ULZccVStpo7u3VWxdq24qQwZXtG+ErRD1ZMnxohfWw82w3QREamNLZsFRK0UsMJLhukzBFSrLmD48KFISTnBRHxSpIoLt0TlpThc/TyEQUMIIgPaEZx0BEFBQayDjxkzBt27d4exsTH09fWhra2NsmXLMsmgQYMGTGIgSYDIYP78+YwQFi1axCQBIgQ3NzcQIRAR+Pr6IiAgACEhIczyNDIyEitXrmQ6Chra8n0w7O3t0axZM7ZMnta4tGjRgqVZv349iirWrl3LSPEdwljiFgFFLHWPxOeAq3skCEvdIzBvgb9IGFeusq2U+BtAkbny8p89exbDR45Gp679sMQ9QkI4lriHYYk7uTnLrliPj/EXpt4u7pF4H5a6RaAweF96Hl6YclC7FgQX9wi4SvHmLPRFy9am6NxJH65L1ODvLzAE+AsICBDgTwgkVyb6/QTMnSugdRsBo8cICAsTEB0tYM1qAQlbZTh6SBXnfiyG367r4/HjenjwoC6uXquI/ck6mDVbBlNTAb5+ApydBdSpK4eNTQ/s37cTf//9F169Eocg/DkQXVHC4CoMCuPTufzZ4PEfPHjAZmdoZSw92DTWdnZ2xtixY9GrVy/WIWvWrMmIkd7mP/zwA9MjkFRAcHJygqOjYxZo9SyRxIIFC5jegaQDypP2wSAJIDw8HBER4oeLSBcXGxvLQHotIgUqAwcd03n6yBGlITKZOHEiI4wZM2aACKtx48bsOkRihMDAwCIHIjlTU1MQCfJ2p/sgeHivwheD1yp4+qzCEtdQ9pa6dOkSGzPyB6AglzTOM2bORJt2XeDqESmVMxae3jHw/JLl/o7y9vRaBXevGCx0DUFrk04wba+ONatVsX+/GpKT1XEgWR3JyarYT9ivouBXRVSUCrr3kGHhQjmOHVPHqVPauHi+BK5frcAWiP1+qxJuXDPAzz/rIyWlOHbv0sDatXLMnUPb19G3PNTRs2djRESF4sL583jx/Lk440KqTabL4ovYxGXipFT8/fff2RCBlrpTx6M3+dy5czF+/Hi2CrV9+/YgdOjQgekOqAMSCZCuYPr06Zg6dSrroBR/0qRJ7Jje6kQGNMSlYQEnA+qspKCkjk3DEZIOOCGISvY1ICmXQBIDlYfiUCciEiEy4J2dJA3SbRAof7rO8uXL2TWJyEiqIBGf9BokyVB5iJgoDgcdFxXwMtOanRyE4RWwForwDliL/ODlH4+CsMI/HisC4uElwcUjEhoaGmyvBBpLcoVaQYSRjnT4+HujZ29LzFngzfKjsvkErmPwDliXo+yK9cjtz69OdC53/PcdF5TP1zr/vvLlCOf3KiAeSz0iYdLOHF066WDwYHXY2Khh2DANDBumDpthKswdNkwVNhKGDlNFr96qqFVTjrbt5Rg2QhWjRmpi7BhtjB+ni/Hj9DDGthhGjtDCUGs19OsvZytOO3cW0M5EG82bV4ORUQ00a9YCo8eMxQyH6ZjpOFOCExydZmHmTEe2oe9vN3/D+PFjMWjQYPTr149hypQpbFhAkgCRABHAyJEjQboFWotC/nHjxjGy4LoD6nhEMLwTExlw6YAPFxSlAz4jRtOcucmA0nIJgKQMypMkDhqG0DWoY9PQhHQepL/gWLp0KVOIEiEQ0VFZaThCsyNEcqQUpeEfSRmkGC2qoBkcGrrR9C8nDHIF/9BN4PAL2YTPAd+QDfAJWQ+/kI0MHl4xKFW6LHbt2gWSGgpLGGlIQ1hkKHr07osJU+awcgaEbkagAnjZ83VDNsG/QGyEf2g+CNkI/0KhoGt9nnzyuk+524DfBwr38IpFe9Pu6NrVGAMGdMLgwV0xZHB3DLbqioFWXTDYqjusrOiYoxv6D+iG3r27oW8/cwwc3AVWg7vCyoq+CNYNAwYSumLAAHOGvv07w8KyCywsuqB/v14Yam0Da8JQGwwdagMba2sMsR6MIUPFDm9paQmTNiboat4VUZGR0NHRhnmX7rC07MdmEkgqoM7HyYA6KHVW6rRcb8AJgciASwjU8RWnwDkR0BCB4hCB0FuT0nIQMVC+JB3kJgO6PpEBlYVmNEifQWQwevRodO7cmYntNJvAYWJiwqZKqbPRvhy9e/dmwySSdohASJlI6bmSlPLnIP1IUQG1DU0Rk2I6B2GERCaCIzhiGwqFyEQE54OgyG0IikhAcEQCQiIS4ROwFrVrN2Afsn3y5DErAB+r5idl0L6Cm7ZsgmX/gRhoNVYq5zaERnJkl53XIW93G0IiC0ICQiILg4LyKahMBaXn5wvKp+DzwZEJCGJ1SoKX/1qYmvVC714WmDdvPnsw3d3c4ebuhmXurtKxB9zdOeicO9w9PFgcN/dlcPNwYyI2xXFz43CDOz3o7suwzINcDjE9y8PdHR50LTdXuLtTHu5wnDkTvXr2QqeOHbFg3nxoaWlh7px58PfzY292EvcVCWFl9EqsZvYkq7E6dhVWxYpSAScEIgMiDgINMSLCI1h6IgMiGF+JDNgwgerl5pbVUV1cXHKQAXVu6ug9evSAubl5FogELCws2CxJ165d0apVK2ZfMXDgQCYBEcmRfoSUpUQCREJUvqSkJJCtxs8//8wUsTRDQy9O+mwjuRx0XFTAy0TKY8WfEBG7C4qIjN2FT8duRMbuRkTMLobAsC1o1sIE0dFRePDgnjivr1iK9/kzgatXrmLGTEeYduyJ0KgkRMbuZIiI3cnKXbiyiml42ve5Uat24n3ITlNA+6zajcgCELVqN74e9iAydg+Tzsw694bVYCt4eXkjPDyCvW25yM46GXW0Lwy6HoE6KdkwkI0CjflpypIUj9FRUWyWgQ8TYlZGY2V0FIgwYlbGYOXKGERHRCIsNBTBwaQwDICfrw+8JH0AIzw3kRBcl7nChUkG4jCBFHnW1kNgNWgwqJMPGDCAgfxkH0H6BRq7k/RDQwVS+pESlc5ZW1tj1KhRzPaCFKw0HCGphXQtZKdBJJB71Sy9mb+3nxATvx+KiF2bjM+G+P2Ijd+P8Jgd6NLNkil3aC8DLuIU1Jg8XlBQMJo0bQ3foHVYtTY5C5R3YaGY7mP8hb1OYdruY67/sWli45MRE58MkjY6mVvA2nooG4+vWrVa6pg5RXhFcf5L+OmNS6A3PXVCsn4k/QApAklvERQYiLAwIoNgBAT4w8fHCytWkPLQnUknJKEsc3Nnb3BXVxcsXbqE2XSMHz8OtmNtMXr0GDZcoCHDqNGjMHr0KEYCEyZMQI+ePVGrTm0YGhqiabNmTHlKpEBSRN++fZlSkqQE0ktQ3Y8cOcJ2Nld8TvkzSWHcXxhXMY9v2S+s3XQE+WHd5qP4KGzJTrdqXTJsRkyGg8NM3LhxI6uhC2o4fiPoAWvT1hSz5ngqlOUw1m0+onCcfb2PKu/H1vMD0+XX1h9yLn7jYRQGcRsPI27jIYTHJKJLNwtYWvZlnYze6tQZfXxEewLSD3xpiNf0Ydeh8Tx1UjKZJt0AKQZJ4UnivJukNyApZO68eZju4MBmQKZNm4KpUydjMmHyZEyZPBlTp0wBDQ8MDCrCoIIBKleqhBrVq6N2rZpo0KA+WrZsji5dOsNqyBDYO0yHl7cXs8ug4QH/8eeMu7nD+TF3eby8XIrDw3P7efpv2RU2J53Cl8CW7afBkHQK67ceg5OzO4YMsWbz54XVevKGT07eByurIbAaMhZbkk5JOIktSSkKxzz849zNiSnID5sSU1AQNm47iQKRcAIbPwM2bD2OwmD91uNYu/UoolbvQNce/dDXog/mOs+Bq0u2Zp9r+L+GSyRAIJsEEvfpDU/TorS2gmYRSMpwcnTETIcZmG4/Hd26dWPGVZqammDQ0kSJEnoob1ABDeobwrR9ewy2ssIsp9mIiIgCLfR68ugxsyamjznzUYG0BEYMYIHvDhf481ZYV5EQCkrzLZOEYtm/CmFQB/ELWIvWbU2Qmnoma89FxYLk5RdvQgYzW/bz80V9Q2NsTjqJzUkpzC1qhFEQofDz+RHT5zy3SYHAYuL2wrz7AHToYMYWP2nrFIN2MW3WGYsVK4avAVJskmUlXYtMrMmegj6eTFPu6urqDHS+VMmSqFS5EhobN2ZTeyRNkL7g8sVLzJT90cNHePzoEdMb0EePyH7jxfMXbE3I2zdvpX0zxK+/500Y0iZAuR66gjp97vOUPHfY+45zXeqbPRQKK74rissFpVm7+SjWbj6CtZsPQ/Qfxeq1yahSrQYOHT6EjHTai/Fdhs/diuJbgRYIpWHz5s2oW68BXD1DsW4zDUe+zSFJQW33Oc9T28dvPoK4zYcRHpuEruYWGNzFHAtGjoL7+PEixo2H+7hxXwVu48aBY4WdHfzs7bF80qSsMDrX16QtOjVtgvEWfTHE3BxGdWqjTo1qqFWrBowbN0bfPhbMMGvp4iWIjIhgax3oA81/37uHtPQ08aOs4oPDHjEuTOTsyNlb+Ck+cznjcOOyd12eprDxKd738hMKq8zLoRgtQNkYE78PMfF7JWQrJhs1bo74dWvZm6FQ06rSDgzU4CRq9uzVGwMGj1DIex9i4/cWAhQvuxwf46c6rYzf8+mI24OYuH1fBSvj9iI6bg9Wxu1BYPgmdOncC7Z9+iJ+wSLsWr4Cu5d7YffyFdi1fPlXwU5PTyiCrsuPeRnG9OwBG/Mu8LKzQ6STE5ZPnAjXsWMxf+RIzBsxEkvH2sLFbgKWT58GP0cn2A0dip7mXWDepQubBh0xbDgcnZzg4emJVTGx2L17F879eI6tQH31UmFDngJWTb+PDKjj53WOE0J+53icb9kVImJ2giN85Q7kBj/3IW54TBLCYrYhjLnbER6zE+Ex29Gla1/YTZmKCxcuimqMAlqO7DD4akZadhwaGobadQ2lfJNYnhEx2/E1EL4yCWGFANU9X6xMeqeNc7f55zqm8oauTGTX8w3egE6desFhsDX2+/jhbFQUzkWvxLnoGJyLjv4qoGuK143GuZUrGc5GR4PAy2DbtzemDOyPtYsW4WhQEA75+2O/ry/2eHlhl8cK7HT3wGaXJdi4ZDHWzV8AHzs7OFtbY1r/AbDr1w8zra0x39YWi4hUHGdi4jAb2AwaDBvroRg5agym2k/H0iVLERIUzNZ/JCcn48KFC2w2hFax0upW6vT0Izf3VCkP58TAH2F+zNPy8O/NFd5n6EQ2D4SQqG0imIGX5GfhdO59IKMiyQCJpU9keYwYNQ2W/Qay6apCSRjsU3TiJi8ZGWnM+KVylapwnu+FwPCtCIkiQyu6VlKWURcLi0pg04g0lUjIUceIRGZMlh1G5UyQ6knllKBg0JYdV+E8j5fLDY1KRMEQ25a38RdzIxMRGpmIsMhEePutQ4eOPWA/yAp7vH1wOjIcpyMjcCYyEmciInCaEBmF1MhInJZwRiFOakQUzkREivEjKS6lD8fp8AgWnhoRCQbKMyu/CKRGiqA8WfpwikfXicIZBjHP0xGRrAzBDg6ImTMXBwMCJBIRiYURTHQMI5yTYeE4FhKMI4EBOOjvi/2+Xti9whPbPdyxbZkbtixdivWLFiBu/nwsHjkSky37YXT3nhhm3g2je/eBvbUN5o0bD9fpDpg4aiTsbMfBfvIUOEyfzlanksHVqlWxSEpMAn0+4fKlS4xQSFdCS+b5jxMKPcsiYUifU8zStvI9yr7dIYk4uqP/ot5HeMeyM3IbgiO3ZnWyoMitIASzcKkjRm1DcH5gcckalPLKxtyFfujcpRv27NnN25y5nJ1zBNJB1u5c4iYuly5dQMsffsAPrTuC1pGIhJCI4AiCZKVKJBFFFo5iuVnZ6TwvB/nDsy1VRTKgelE5s8O5PyiCrFZF0DVykMc7pMIJNR+XE2lBLifqT3HJIpZZ2ybAyzcepmbdMNHSEptclmC/rzeSfbxwwMcbB3x8kMzgi4O+vpLfBwd8vJDMzvvioLcfDnj74oCvCAqn9MlePkimcB8/lg/lR+f2e4suz3+/D+Xnw/I46O2Lgz50HQ4f7PcW4T1xMuLnLcCRgACcCY9gBPHjypU4H7MSF1atwvmYGJxfGYuzK1fix2iSkqKQGh2J1OgInImKwqmISBwPCcHx4GAcDgjCAV9/7PPyxi5PTyS5uSHBxQWblyzBugULEDdnHuwHDMSobt0xyLQDerRqBYv27THCwgLTRgzHrEmTMG3CRMye7oDF8+fD08MDAZL1ZkJCApKT9+P06dP49Zcr7KNKtLUgrZXKSBN1dOKGhuI37d95tot6AGMKSX8jbdtIpCHwzpDtJiAoYisz7SbzbuZnnU809Q6OIPIoABSH5bEVQeGUlwifwPUwbNQEwcEhePrkaVaTccJQdNlJtneG+Bk+Onf37l3Q9y9U1DSx2DUEAeGbs0zQyQxdLK9oDs2vKYZRhxfrxImFx81BNpx0FNzsdskmDZ7Huy4RT+HahrWj1E65/dltnk16igRYaD+1fZjY9it849ChQzeM6tEDMc6zsNVlCbYuJSxFwlJX1pESyO8i+V1ckLB0MYuTsNSFhW9l51yxdSnBJSfonCvFozzE+ORudVmKLS4u2OLiiq0sXIyzjeLxPFxdsGXpEiYZdDA2xszBVtjm4oqjfv44GhCIY4FBOB4QyEiAiCAlOBQpIWFMujkbGYUfo0UyubhmDS6vWYMfY2PxY0wMzsWQRBLNSIckqFPh4UgJDcXxoCAcDgjEIf9A7PXxwZ7lK7DTwxOJy9yxZakrNi5egrXzFyB4+nSM690Hg806olurVjBpZIQ2DRqiZ/v2GGLRB2OGDsH0yXZYOG8BvFd4MytVshnavn0HDh8+jF27dmPbtkRmDUoWod8SduzcwaQqvtkVkZ9IGOEJCMoB6uRbssMitiIwYgsDdVDWSelBLATIJJxBSi+aiLfHxIl2OP/j+SzC4B5FwmD+DNoajotzbF9o3PnjD5SvUAG24x2xwj+ODU2yy0Ll3sLCaMgiIgGB4QliOcLE82L9yL9VIZzqRG3xvrrlTvvljgOpDrzNPsENCNuCgNAtCArbguU+q2Davhss2/6ApcMGwtt2GLzHDhVhOxzetjbwsR0KH9thDHR+6XBruIy0xvKxNvAePxze40fCd8II+I0fDr8JIxkozYqxQ7F87FB4jh4Kj9FD4TLCBotGjkbAzJnY6u+HLf5+2OrnjwQ/P4atvn5goI8l+/kiwd8XCeT6+qKPeSfMGDEc4c6zsXLuHEQ4zULYTCeEzZiJ8JkiIhwdsXLWbKyZOxe7PDxxjMgkKEhEcDBOhIQwnIkIY0Oi8ytX4uKqVbgctxo/x8Xhp1VrcDF2tUgoMTQ84mQSjhMhYTgaFILD/gE4SGSywgs7l69AoocHElyXMZLcsHgx/KZMhsPAARjRtSv6tG0LU+MmaFK7DupWroI2TZrBslt31K9VG5XKlUdLI6NvDoZ1ayMiPIxtW8j7JfVTwT9kMxQRELoJhKyVj2Gb4E8I3Qy/0E0M/qFbUBj4hWyGiC1S2s2wGWGH0WMm4MCBg5wn3nF5AdleklnKDiKMDPzz8CHs7CajdesOWOwSgoCQzaxTiHWQyi6tKqXOIiJBKi+VfyMD1Yn7yaWVqqzehVqRWtgVpx8fj9+HT3HZCt3gjfAP2sj2xGjb3hytqheDlZEGRjXRxChjDYxsrI4RjdUxvIkGRkhhLNxYC0b6KmhRURUDGmjCtoUOJrYqDru2JTHVtDSmd9CHvak+xrfUZemtDFXQr44cPWvK0ay8HLUrlsP0qZPYprm0kIk2DRZ39Ra35GPDTTbqFO+r+ILIxOEjh9lisWn2U9GvnyXatmkDw/qGbFm4gYEBypfXZztlVTMwQMOa1eFkbY2NS5ZiyxJRQtnEpCQ3JLq74ai/P44HBuJ4YBBOkBtEUkoITgaH4mRIME6Hh7OhzLnYGFxYvRo/xa3BL+vX4pd16/HTmjhcjI3BeVLKRkXgVEQEToSF4ygb6gTgoJ8fG3btWeGJnR5u2Oa2DNtcl2HTEhesW7gIEU5O6PHDDxhoasqILW7ePHxLcLIailGDh2DH9h2ifoakfSIM36CNeBcb4Bu0Pg9QeF7xc4dtyNqzgoYhvsHr4SNh2KipqFi5GttghB4S+nGC4MzBj9/nkia7XLlysHdYCm//eFZOv2CxzD6BtF+GItbBN4jXh/wcYv343hrk5l3nvNoh7zDFvPLzf+p1PiS9T+AGeAdugNuKaLRp3xnNK2uhX10ZrOvLYG0ow9CGcgxtIMcQQzmsGqiwMAq3NpSjQRkBTcvLYVFHjuGN5BhppILRjVUxxlgNE1tqwa5NSUxrXxr2pmVgZ1ISI5tpYlADOfrWkcG8uhwmNbTZOo0NG9bhyZNH7BOLiqQh3l9RMSgq1UhpJSq56YNFYJCeEWTizds3OHXmNFt4NnXqNLZwjXbUos13i2lpQ02uArlcDi0NLTSrUxtr5s3HvuUrsN/HGwd9fXDYz5dJDkf9g3DUPxDHAwJwPDAgWzoJCsSJoCCcCArGieBQnAojxW40SIdCEspPcXH4dd06/Lp+PX5eu5YNfy7ExLKZpjPhUUgJCcexgGAcCgjEpiVLMbBDB4zv0weH/Pxw0I9I5tvB8ol2mDBsONvrNOubMMiEsMIvDoXBct/VELGmUPHZJjp+8VjhtwbLfdfA04fceLgvj0Krth2w1MWFiTsfQxhpaWnsQSRT59kLvLHcn+pA5VJEdr3o+iJ4HVazOuQOy47H44tuYdqHxfFdAy+f/LGCtUPO/N933U8N9/RZDcJy3zgsXhaB1u07w8hAE6W0BOipCyiuLkBPQ4CuugAd8hPUROioCdAvJkODMjI0KC2gXWUZhjZSwcjGKhhjrIJxTUWMb66Kya11YU/E0aEsJrUpieGNNdGjphwNS8tRo7Q6qpQriQnjx+HqVdpbQVHSkPRT7N1FxCDacnMiyU0YNM3++s0btsP348dP2CbG9+7fw19//Yk///yTLR1PTU1FVHQM4tbEIzggAAucnTF6xHCYd+4Ew7r1UFG/AmpVrozW9eujb7s22O7mgWQvIhQiE9KZBLAhztGAYBwNCsZJQnCQiJAQpgMh/cnJkDCkhIezWSMilB9jV+PS6tW4HL8GP6+Nxx4fH4zu2R3Ow2xwielW4nB5zbeDMCcnTB41SiQMbrNChLFseTQ4XD2jQODH2e7KPMKy02XHE8NcPCNBWLac8oqEq2c0wzLPaLh5RMGy/0j07TsAGzZsyCFh5JYo0rOmVXNa29Hc+IkTKWje4geMGe8IF88ouHiIEK8VBTdPEcs8Itn2fnSe14/HVQzjZSzIzV3XHMee0aA6FgiFNs+R/jOHu3pS20fAdXkU5i3xR6u2nTHb0Z4t4KIt8qfYTYad3URMnDwek6fYiYu5ptICL8I0zLC3h7e7G7w9l2Hp/FmYMWk0LLuZwrh2JZTXEdDcQMAoYxVMIWmjpQamttHBjA4icQwwLo5KOnJ0ry5D+8oydKpXGt06mmBN/Bo8fPQwS6oUh53c8jID6ZlpyMik76LQTAOfbSAqyX4GiDjoWRGHNQrhGRnsmysPHz1i16Dvsd65fRs3rt9gHxU6f+ECTpw4iR3btyM2ZiVWrHCHl8tSWJh3xg+NGqJhjVqoW6UK6lWpgoY1asLCxAR7VnjggNcKHPL2wmFfPxzx92czOEcDA3GCDXWCcDwkCCmhYQynQsNwOiyCGccNMzfHLGtrNgw6FhyMbwkrJk/ChOHDsglD7KkQaPftLCz0xZwFXpgxyxWmHXuxPShoH4oOHXvCjKEXzDr2RoeOvfJFu449YNKpO0w79oBpp+4w69RLBKUz64Fu3QbA2Lgl28qMD0MUJQ1OHOLDk/1wSC8g0Ad3Xr58gZ49eqJrD0tMtp+PuQt8MHeBP6bNcEG/gaPRf9AohgGDxqDvoNGwm74Izgt93wXbVVvaXVs6z3Ylp53J84Jie30p/0I/0BT0p8J5gTdmLfBidZ7u5IpmzdvDc/kKpJ5JZfuM0Bv/1yu/4JcrP+Pq1asirl3DVcLVa7h29Rr+uP0Hbv9xGzd+v8E2gEk5lYJdu3chLDQEI4cORIcmtdCqqjaGGKlgWhsNzDDRwVBjHTSvogMLo1IYYUxDIFX0rKGCNtXU0a6FIeY6O4PMuWnCMY2seTPTkE5jZPpORkAl2AAAGKVJREFUCCMMrucgpTf5Jd23JIS8zXyDDEjSCT+vsBv9u/mI5ELPD0mn9KkB+iDRjds3cOXKrzh8+BB27dyFpKREbNmymS2vJ2vRMSNGYsqYEbDp3Ru927dDp+bNYGJkhLaNGqGdUWN0btYcdn0tsdfHE4d8fXHE1x/H/GlGJxikmB3apTOch1gzCWaflxe+JSy1HQVbG2tGGMx4jROGhaUVsjEYfS0HsT00GxkZg8PIyBgfgoZGjUFoRGjcGEaNjUUYNWFhbdq0R53a9dg3GmjTV/7jRMFd/qEdOqabzQmDvW2Qib1792KW8xxMm+6I2c6LMNt5MaY7OGPkKFuMGs0xDsNHjcW06U6Y5bwQs5wX5YDT7EUQsRBOsyU4L4TTR8Bx9gI4zvoMcJoPx8+AGY7z4OA4FzOd5sPewRnW1sNx4mQK+3AQa0/21hY/bswIW2xisaklMZQO6D6kS291ansyXqINY06mpDBDJ9uRNujUtCY6VFdHr7oa6FRTE+2qa8HerBwczPRh+0NxDG6ghl615WhpIKBj4yqYamuDrQlbmV6CpAz21TWuv+D3O0uqEAlDfC5op9d08bNLLD5/NrikwXVi4gbD/NkSK8XPSeTE8hF1JFKl2bqlJ0+eMNKkTxTs3L2LScI0XUqbC4WEhjCzc9pwmDbiGWRhgenDh2FMHwtYde4Cy/amsDQxwcAOHdGuUWO0MWyIXq3boFfr1p8Hbdqg11dAi/r14LHMlX3ykfdHcgW+r+HXdmlvBBqS3LlzR0E85TdddLNudj6ec+fOMeIg8vgU7NmzB5+K3bt3s8/lfQ2X9kf9EPAy0Ve++AOQT7O+c+p9aejLYCdPnmQLwnqbm6Jrq/poV0MT41vrwblTaTh1KgenzvqY1LYkhhuRtKEC8xoydKijhwFd28PX14dJNmL+omQhShQKzwIbkEjDEqRJtPZOET97AK9zbpckFPoqGq1v2rplK6Ijo+Dr7cP26VywcCHmz5uHOU6zMGH0WPTu0RMm7dqh3QeC9gbNCx+az6fEp/5AP8X6/8++3s4LkbtAiuGf6wngeRbkfq7rFaV8eJ0Vy5RXmOL5vPz5paFzR44cQnhEGBYvcMYUmx6Y0r0eBhnpYGwLXczqWAazu1RgitHRzbQx0FAFPWvK0NpAQKPq5eDsNANHDh9hCk0+/GBWklyHxRYhUqlIGuD6jrxK+XnDcteZH+fnUglIhL995w7OnEllL6Gi9IHlDykLfUOW/3id/2eEQQXhhchdKAr/nD9+nYLcz3nNopIXr/Onlofnw13F/KiDEK5cvYJjJ45jTVwcevfqhZ6dTDDQpA4GNNSCbcsScOqkj5kdy2FcKz0MaaSOvnXlMK0iQ52yGhjSpyuSEhPYbIe4AEySKLKGKRJfSENTxet/Lb9i3bk/L5d4LYv4Pu+j/LWqmnWd3PUrsoTBC5pVcqXno1rgc7Yjz0vRpUIxpRh9sBmZbEbCa4UX21eTRFraUr9lM2N0M66Eoc1KwMGsHJy6VISdSWkMN9ZEv3oq6FZLgGklGWpUKAHvFZ746afLbPdsyjv7WtmdkAkaH9UaH54o+/rZQyTFXDh/5RWPwr5mWRXL9Tn8inXi+f3PCCOvwvBCkcvPK4b9V/y87gW5hWkPnkfuuO8Lzx2PjnncvNzs8zRrISoaySYiKiqCfWyIFKY05vfx8UMzI0N0r6eFqe1KYLa5AWZ2qYDRLXQwyFAFvWvL0bmaHPrFBNhYDcThQwcZaXAyIqWoqBjlXTSvkn7+sPfVmV8pd2lyx/8eCIPXlVwlYSi2RhHx537o3ndcmOLytLnjvi88dzw65nHzcrPPi3uXMMrIzMCFC+cZYXDLTprODI8IR6NGDWFYVhXDmxSDI+k2ulXGRJNSsGogR796cnSvIYdJZVW0a1IXISHBjDT4LAqfSfmar+331Zm303+aMPJqnK8Rxhtf6YotUNg2/5D2UsyT0vHjwuTB4yq6iunE8HRk0noRaS+IN29e4WzqWfaVdJpRSHubhoBAf2bj4OQwHR2Nq2NgYy3MMC2OWeYVMbNTeYxqoo2B9WXoWUtAp+qqaFytFKysBrNZmJzXpm765X+K18ztp6vnDsvruLClzJ22sOm+ZjwqYw4JI3ehv8YxrzBdiyvPRDH06zwU/Prfo5vf/fuQ+vL78r78KK90MsFiFprc6CoTz/59hvXr16NPn174/bcb+OPubfz1110cOXoEsxwd0L21IQY11sHM9rpw7FQOc7pWxbg2urBqpAqLunJ0qCpDi2rF0aOzGUJDQ7IsP7+WmP+++lI4/chVHCopxmdl5OJHIR5lxbQ8f36PFM/xsC/tKt5zfi0qRw7C4Ce+hssbgV+LHyu6/JzS/bgWUGzL3P4PyZGnpTTcr+hSuLhNDLejEHsIPXSPHj3CsGE2uHXrpmgAlp7ONptJSkzETPupzG5jYONimGVWErPMymBWZ322GnZEM230q6+CztVlMKmuhV5tG4I+RrR7zx5m5Ssa74mDE8WysA4smnWx/xRDPE8lFEvJ+3FBbcDSkcQkbgWRNRIS01MJRJ2NYlmy8uQX4W7WiQ/3KNbvw1N/XIocRMhr+r8kjI+rhjLVt9YCZBVKBk7z5s3DLz//wjrdqxcvmZ++jzppgi1MjWvA2lgbszvowbljaczqXB7TzfQx5gc9DGqohj515GhfVRVVyuqiT9eOWLhgAe7cuc3MuRQ7E/nFfWBzKkjFOJIpudTJiToK/FFn52TBXHG+lHEAs4SVCJKI9HuDNDVMbcQIkU1vp//vJIwCb5YywnfRArxD06cLz5w+TSIK+xTAgwf/4Oix46CPLg8dYoVmNctgVAsdzOlQAnM6lsKszuUwo6M+JrYpiaGNNWFWXQUGOjI0LitD9Qpl4GA/jX2jlb5gxq+RTQziZcTNl6ROLtlziGtTSDYgi9GCflKv4UYVkn4mmzAk6eV7IwuqTw4GpHoSOWYoCaOgR0Z5/tNagHfmo0ePIjExAbdu0dqhTLx+/Qa//fY7aG/M5f//yYNWrVqjUUUt9G2oi+kmephtVhyzO5XB7M76GNmiJIwrqLENfSzqqKCxvgyV9QTUqqyPaVMmY+3aeGzfnoQfz/2Ix48eK7zuSSzgDzu5vGeTJ3sz3/fXkOJxEYPIQ+pJfLk3ue9P/I2fYZVVIGOx+v8zHcY33prK4n9gCxBxODvPYvYZ9+79xcTcx0+e4PChw1i0aDEsLHpDT08PJYrrYmBLA0xtXxoO7XTh0L4E+jYqgXrlNNkitpFNtdgwpW89OYz1ZaigI8CghDqMDWtguM1QREetxIGDB3H08FFcunQJV65cwbVr13H9xg0GWurOcOMG+84vfev3vbh+g60ZoVkeBsrn2jVcv04Qw67xc9+dew1P/32SJVmIQtb/UOn5gc+bMnoRbwEuSeR2ebEp/Pz583BycsK6dWvx4uULtt5ix46d7ANETZo1Rb369dG8eVN23K1tY4xsVQ7Dm+qhZUV1DGlSAgt7V8fsrpVg164MM/gaaqSB/vVVmY6jlYGAkpriRkA6mqqoVLYULHuYY+SwoZg03hbTp0zAjCnj4TBpHKZOGgeHKePgMHl8FqbbjUOemGSLiePHYuI4W0ydMBbTJtpi2iTy22LSOFuW97RJY/G9YfKEsdi7ZzeePfuXbTFAohTdQ6WEwZ9opftJLcCnwnMTRo5jZMLL1xfx69fjxMmTzHy8j4UF+5AQrVz29vZFtWrVMG/+QqyMioLD8D4wq1WMYbZpcTiY6GJe90rwsGqIRRa14NTFAJPalsLIJtqwbqiKQQ1kGGgow4D6quhbj4hEBYalBQazqgL61BFgVk2O5gZy9Kmrws5TnLxgUZemdlXQo5YctcvIUKeMgK7V5ehdW4betWRsB7J6pWVoVFaGXnXk3x1aVpKhdxcT9ilKUekpDumUhPFJ3USZmLdAYQiD9rF4+foVXr1+DdprIi4ujpmNP3/+L/bt24vYmDjMn78ADRoYIjQ0GHdu3cLihQtRT18TM9towtlUF7Pa6WBaOy3M7V4BK4YawXdEc3gOboTFfWphVteKmNGxLKa0LoXRP2izjY7rlFZB60qqsGqggZHG6hhprIZRxuoYY6zJ/HTMwpqoY1QTdYxuqpGNZhqwaqyG6iVlMK2mhiFGGuKGyY1VGZEYlZOjWQUVcV9U2hv1O0L7agL6mJtg+44dCrMk/0PTcP6gKd3vowUUDX1IquA/RQkjDelsp6yjR48gKSkJtFENnafVqbdu/saWgodHR2LGTEf07t2bWYXSzljbtmyCddfWmNBEFQ6ti8HeRAMz2mnDybQ4nDuVxdI+1eA3rDEiJ5ogdmonRE/sgJCJrRE5sS1a1CqDkR1qIWhMK0ROaIvIiW0QPckEURPaIWJCmyxETvi/9q41pqorC4NODVMfbXAy8Y2xNSI4rbYjPngahIYAFipcBHwRRRRxfNdBywQfWKpGa1BH8Rm16jQ6JtbHtBpBp5LxNYmv2PGHr2rUipNqK9Vp7Tf51r1Lj7eXiy3acI/7JIt1zt37nLP3Ont/rL3W2nv3hZVWju6D8tG9sWDYGwhu+zLGxAfjg8zuKHWEojilM4aHt0J4p2aI7tQMBZGBtqPkbr9FWmLUIw3DCRtmSKIN2/D6ScAKDLUBhjNs6gGqq29i48aNWLBggYSSM1bj3nffgYvxcIWr8pUrMXnyZKSnp2Px4sUCLCf+fQzH93+Cd/Oy0aVNc2S/9huM6/UCxvdugskRTVHYryWK4lvhL4ntMCspCHNTOuGD9M7o3r45Mnu1Rml6MBZlhWJRZigWZXfDoqxu+NADSTrzCIVgQUYwxsUG4b2EIBQndkRRQju8278VBr3xMsI6BCC8YwDyerewHSUFN0V6QowLMMTXJOFbZkhSv35i7v6FEjh69Chmz56N1atXP3Tdcf+S06dPSyPlcniTJk3CoEGDJOiLa4BSE+F9mzZuQsnUUciI7Y4+nVog8dXGGPPmC8gnhTVBQa8ATOjTDBPCmyHk943Rv3MA8vs0x6TIFpgU0QKTIl/yQkx/RH/q2xxxwU2R8YcXkdfzRYwOC0DuHwOQ3KUJXm/VCD3bNMJQ7utiM4rt1ATvvBXtWgRYI1pNHMYvbO7mtvpKgBsb79u3T7QM67M4TDlz5owst7hu3TrxqiQmJiInJwf79++X9UR/+PFHnDx1Eh9//DeUzi3BnwuGoyAtCml9XkF055fQs40/+rZthPD2jfBKoB/ebO2HlC6NhWKCGqFfUCPEdPCvlfoF+UOogz+i2vkhuKUferT2Q0R7f0R2cG65ENbGHyG/80OXQD/0aetvO+rZ2h9vx0VaAMOpZRgNw9pazfmvJgEOW6qrqyVs/PDhw4+9l2DC+ImKigps3rwZxcXFYtPgYjzcWZ2ret355hsJxCI/dfo0/r5tO8o+XIzphYXIyx2BnGwHsh0pGJKWCEdCJHJTY5CX/hYcSfHIGBCPjGRS/1ooDhnJThqUFIfhqXHITnVeO5L7g5T1dhyyU+LgSI5Dug1pyDtxmFcyE6dOnRY5O+MwjNHzsYZqLp69BNxtHTRq0p5x/Phx3L9/X4YnLAWHJ5cuXQLBhAZSahvvv/8+wsLCMCY/H2vXrsOhQ1W4du2aDFW0VcuK5l9/LYFVJ0+exL8OH5b/krt27ZLtOSv3V6KyohKVlQdQWUnuhZhP8jrzVFQcQEXFflRWVHi/z9szfSjt2vXrruGiM1ScoGE0jGffR8wbXBJwBwsVzO3btwUMaPS8d+/eQ5sGbRY3b96UiE3uhr5t2zZMnz4dGekOvP5adwwdPBSrVq6S9TK+vPKlcxarRnC7osAZAO7croIeGuts2keeHC3HT7grWIn3Oe99AOcWjpLg8hswdNyGh0SGW8PiTRyGDb9yw66Se6yGtbQEk2XLlkmY9vXr18FhCbUFErdG4HYU1DQCAwNRvnwFNm74CEuWLEFSYqJs2Fw8sxhVVZ/jq5tf4W5NDWTXPHZpV6dXsKL5jgDCSWh1HXrvw/kkch+fSeBxbrDFPHY8nFP2+dcFGlJnE+lpx2/dYOvkDTC00LRZJCQkiO2CYEEtg1oHAWPOnDkYP348DvyzEp8fOIBdn+zEls2bZXGdnJxh6NixAxzpafjHnk9Rc68G3//waAUwuHZGI2DIjLEn6OgEGRpYFWzINURaZ2/Ks7TwNuIP8D/n7nIuPYr1JfqaIYmNPnJDr8qTAMbdu3clVHzcuHESg8FrAgbdqT169JDhyZ1vb6P6v7fwny++QNWhQ9izezc2fbQJZWVL8N70IlkWMDyyL5b+dRmorYg24foPKfNLRd2uW1pOwOA+rwQNp0ahgKELzNgbML5XuBAZGMCou82YHE9RAtb/1PLf2sOz+TsBggZPrpVBbSMzMxPr169HXFycGDlv37ktiwPf/fauBHVdvHgRR44cwWeffiZLAi5cuBCzZs0Sz0pMTAxmzJgB7pDHhYi1DJ46uqZp2azXqlE8/pvLUOKhHr7+kw5JxJnq0rJYJ6Nh+PqXtXH5CRo7duwQt2pUVBS6du2KK1euiH2DhlLaOaiB0KPCvV6vXr0qM2IZ37F9+3aJ8Zg2bZrsjZKbm4uCggJ53q1btx6T2uMg8GgIQo2IR23pjz3Exhdaf1bRAIaNP7QvV00bKbUNxmRwM+RVq1ZhzZo1yM/PF3cr1wslaHDfE4IGwYNgwH1RGDFKzwoBh9oJtQwCxpQpU8DhDt2058+fF6OqvotcD/2N13qu6Xqtee3M3etqAMPOX9uH66YNVTmrQvDgptI0fm7ZsgVLly4VqqqqkqEJQYPEeA5qHAQOumqZzjgMzo7lvYMHD8aECRMk9HzFihU4duyYAI++S3lt4qsrvbb7fPF397oawPDFr/gcllkbLjmHCgSB0tJSTJw4UTjBYO/evbJKuQIHAYbaB4O7qKUwCIyAw60PysrKkJqaiiFDhshEt/LycnAZwRs3bri2fvyptsF366Hl0evnhRvAeF6+tI/VUzukdlLrtfWcQMD4jVGjRoH2CtovuKcrvSOcl0LwYBxHTU2NhKJzaT1GlXJeCncyX7t2LbKyshAfH49hw4bJsIfAcvbsWRne0LVrfR/F6H7tY6KtV3ENYNRLfObmZyUBb53SUxpDzAkAI0eORFJSkmgT9JwwfoO2Dmoa1Dg4XOE5PSv0nDA0nAsR0yPDSW4REREyZOFSggxZJ3hwZXJOiKMRltoKbSUkzoWxM1FeKmv9zgYwVBKGNwgJaANV7qlQntL0N2oTnArPoUpoaCi2bt0qxk12dmod9K5Q26CLlUQA4FqjRUVFomlwghun3E+dOhXBwcFo2bKlzF9hDAiNpnPnzpWhC4cvNML+msQp/0+DOPyqi2gfohwVNPQ7GMBQSRjeICTwJMFdCg7WAutv5HwGNQkCBBs+O3t4eLh4SwgYNIiq1sF8BI4BAwYIaFDjoC2EYei0ddA7w2HL8uXLhbigT3R0tMR4MDRdDa9242PHjpUhGo3FlKkeBjBUEoY3CAlYO761oVoLp3k8/aZp5LQ/ECAYu0H3Ku0csbGxAgzqkiV4cFIbO8ju3bslPw2ftGFwOELXLO0ie/bsEWJ8B4PJaPfgM0kEF3fSNOXu6c/qWt9XXz5z5kwZ3u3cufPhsIQyNYBhbXXm3LYSIHCcO3dOvCScJk8D54gRI8QuwT1b6XGhTYM2Cc6QpXbCQDCCDe0dNK7SlkEXrMPhkH1eeU4DKnlDIYbQPw2iF4nxLgYwbNslTMVqk4BV66DXhJ2f2gSHF1wmMCQkROwW3NCIRlICxIULF2TmLL0qzE+j54kTJyQEPS0tDXl5eQISDQ0wFMRYrp9D7oDH4Ra1LgUMla3RMFQShttWAgoY1grSbnH58mUJ6CosLBTXLA2adM0yCpS7pnEBHoIEOx7/azP2g6uApaSkiHZy8OBBNESiQba+NH/+fNGiaMOwHgYwrNIw57aUgCfAsFaUGgWNnTRsMoScwEFvBKNCuXo5PScc05eUlGDDhg3ifmW0KP/7skOR24lYJ9aX828MYFhbijl/biSgoEHufljTaPCkoZMh49Q8aOsgDR8+XHZq49YINHoOHDjwqbg4n4ab9Fk8g8A5b948ca1aZWY0DPfWY65tKQErKLCC1mtP55qHblcOT7hTG70lDPLiMoEkuls9EYc0DZncy+yprMxD+43KRhuFAQyVhOG2kYA2cvLaDqYxXsM97kPv5X16rlyfpde1cc3XULl7uT2V010umscAhkrCcNtIgB1C54DUVinm0U7hLQ/zeTu083nL44tpKhv3+hnA8MWvacrsVQLayL119p+Tx9vL9Dne8vhimtZLudbBAIZKwnAjASOBOiVgAKNOEZkMRgJGAioBAxgqCcONBIwE6pSAAYw6RWQyGAkYCagE/g95PNBndGT6iwAAAABJRU5ErkJggg==;rotation=0;" parent="ot_2HG85SZWJpa_cD8Q3-9" vertex="1">
          <mxGeometry x="350" width="189.53153153153153" height="88.4009009009009" as="geometry" />
        </mxCell>
        <mxCell id="ot_2HG85SZWJpa_cD8Q3-10" value="" style="pointerEvents=1;verticalLabelPosition=bottom;shadow=1;dashed=0;align=center;html=1;verticalAlign=top;shape=mxgraph.electrical.electro-mechanical.reedSwitch2;elSwitchState=off;rotation=0;labelBackgroundColor=none;fillColor=none;strokeColor=#CCCC00;fontColor=#ffffff;strokeWidth=5;perimeterSpacing=0;" parent="ot_2HG85SZWJpa_cD8Q3-20" vertex="1">
          <mxGeometry x="591" y="51" width="75" height="20" as="geometry" />
        </mxCell>
        <mxCell id="ot_2HG85SZWJpa_cD8Q3-14" value="" style="group;shadow=1;" parent="ot_2HG85SZWJpa_cD8Q3-20" vertex="1" connectable="0">
          <mxGeometry x="540" width="126" height="21" as="geometry" />
        </mxCell>
        <mxCell id="ot_2HG85SZWJpa_cD8Q3-19" style="edgeStyle=orthogonalEdgeStyle;rounded=0;orthogonalLoop=1;jettySize=auto;html=1;exitX=1;exitY=0.5;exitDx=0;exitDy=0;strokeColor=#D6D6D6;fontColor=#393C56;fillColor=#F2CC8F;endArrow=none;endFill=0;strokeWidth=5;shadow=1;" parent="ot_2HG85SZWJpa_cD8Q3-14" source="ot_2HG85SZWJpa_cD8Q3-2" edge="1">
          <mxGeometry relative="1" as="geometry">
            <mxPoint x="140" y="61" as="targetPoint" />
            <Array as="points">
              <mxPoint x="150" y="10" />
            </Array>
          </mxGeometry>
        </mxCell>
        <mxCell id="ot_2HG85SZWJpa_cD8Q3-2" value="" style="pointerEvents=1;verticalLabelPosition=bottom;shadow=1;dashed=0;align=center;html=1;verticalAlign=top;shape=mxgraph.electrical.electro-mechanical.reedSwitch2;elSwitchState=off;rotation=0;labelBackgroundColor=none;fillColor=none;strokeColor=#45B500;fontColor=#ffffff;strokeWidth=5;perimeterSpacing=0;" parent="ot_2HG85SZWJpa_cD8Q3-14" vertex="1">
          <mxGeometry x="51" width="75" height="20" as="geometry" />
        </mxCell>
        <mxCell id="ot_2HG85SZWJpa_cD8Q3-15" style="edgeStyle=orthogonalEdgeStyle;rounded=0;orthogonalLoop=1;jettySize=auto;html=1;strokeColor=#CCCC00;fontColor=#393C56;fillColor=#e3c800;endArrow=none;endFill=0;strokeWidth=5;exitX=0;exitY=0.5;exitDx=0;exitDy=0;shadow=1;" parent="ot_2HG85SZWJpa_cD8Q3-20" source="ot_2HG85SZWJpa_cD8Q3-10" edge="1">
          <mxGeometry relative="1" as="geometry">
            <mxPoint x="610" y="79" as="sourcePoint" />
            <mxPoint x="532" y="43" as="targetPoint" />
            <Array as="points">
              <mxPoint x="570" y="61" />
              <mxPoint x="570" y="43" />
            </Array>
          </mxGeometry>
        </mxCell>
        <mxCell id="ot_2HG85SZWJpa_cD8Q3-11" style="edgeStyle=orthogonalEdgeStyle;rounded=0;orthogonalLoop=1;jettySize=auto;html=1;exitX=0;exitY=0.5;exitDx=0;exitDy=0;strokeColor=#45B500;fontColor=#393C56;fillColor=#F2CC8F;endArrow=none;endFill=0;strokeWidth=5;shadow=1;" parent="ot_2HG85SZWJpa_cD8Q3-20" edge="1">
          <mxGeometry relative="1" as="geometry">
            <mxPoint x="591" y="9.999999999999886" as="sourcePoint" />
            <mxPoint x="530" y="30" as="targetPoint" />
            <Array as="points">
              <mxPoint x="591" y="10" />
              <mxPoint x="570" y="10" />
              <mxPoint x="570" y="29" />
            </Array>
          </mxGeometry>
        </mxCell>
        <mxCell id="ot_2HG85SZWJpa_cD8Q3-18" style="edgeStyle=orthogonalEdgeStyle;rounded=0;orthogonalLoop=1;jettySize=auto;html=1;exitX=1;exitY=0.5;exitDx=0;exitDy=0;fontColor=#393C56;endArrow=none;endFill=0;strokeWidth=5;strokeColor=#D6D6D6;shadow=1;" parent="ot_2HG85SZWJpa_cD8Q3-20" source="ot_2HG85SZWJpa_cD8Q3-10" edge="1">
          <mxGeometry relative="1" as="geometry">
            <mxPoint x="532" y="101" as="targetPoint" />
            <Array as="points">
              <mxPoint x="690" y="61" />
              <mxPoint x="690" y="101" />
            </Array>
          </mxGeometry>
        </mxCell>
        <mxCell id="ot_2HG85SZWJpa_cD8Q3-28" value="&lt;span style=&quot;font-size: 15px;&quot;&gt;&lt;b&gt;&lt;font color=&quot;#d6d6d6&quot;&gt;GND&lt;/font&gt;&lt;br&gt;&lt;/b&gt;&lt;/span&gt;" style="text;html=1;strokeColor=none;fillColor=default;align=center;verticalAlign=middle;whiteSpace=wrap;rounded=0;fontSize=14;fontColor=default;" parent="ot_2HG85SZWJpa_cD8Q3-20" vertex="1">
          <mxGeometry x="541" y="112" width="55" height="6.5" as="geometry" />
        </mxCell>
        <mxCell id="ot_2HG85SZWJpa_cD8Q3-35" value="&lt;span style=&quot;font-size: 15px;&quot;&gt;&lt;b&gt;&lt;font color=&quot;#45b500&quot;&gt;NC&lt;/font&gt;&lt;br&gt;&lt;/b&gt;&lt;/span&gt;" style="text;html=1;strokeColor=none;fillColor=default;align=center;verticalAlign=middle;whiteSpace=wrap;rounded=0;fontSize=14;fontColor=default;" parent="ot_2HG85SZWJpa_cD8Q3-20" vertex="1">
          <mxGeometry x="604" y="29" width="55" height="6.5" as="geometry" />
        </mxCell>
        <mxCell id="ot_2HG85SZWJpa_cD8Q3-38" value="&lt;span style=&quot;font-size: 15px;&quot;&gt;&lt;b&gt;&lt;font color=&quot;#cccc00&quot;&gt;NC&lt;/font&gt;&lt;br&gt;&lt;/b&gt;&lt;/span&gt;" style="text;html=1;strokeColor=none;fillColor=default;align=center;verticalAlign=middle;whiteSpace=wrap;rounded=0;fontSize=14;fontColor=default;" parent="ot_2HG85SZWJpa_cD8Q3-20" vertex="1">
          <mxGeometry x="604" y="84" width="55" height="3.5" as="geometry" />
        </mxCell>
        <mxCell id="ot_2HG85SZWJpa_cD8Q3-40" value="&lt;span style=&quot;font-size: 8px;&quot;&gt;&lt;b style=&quot;font-size: 8px;&quot;&gt;&lt;font color=&quot;#3b690e&quot; style=&quot;font-size: 13px;&quot;&gt;NC: Normally Closed&lt;/font&gt;&lt;/b&gt;&lt;/span&gt;" style="text;html=1;strokeColor=none;fillColor=none;align=center;verticalAlign=middle;whiteSpace=wrap;rounded=0;fontSize=8;fontColor=default;" parent="ot_2HG85SZWJpa_cD8Q3-20" vertex="1">
          <mxGeometry x="528" y="137" width="136" height="17" as="geometry" />
        </mxCell>
        <mxCell id="ot_2HG85SZWJpa_cD8Q3-21" value="&lt;span style=&quot;font-size: 15px;&quot;&gt;&lt;b&gt;&lt;font color=&quot;#3b690e&quot;&gt;Adeunis Dry Contacts V1&lt;/font&gt;&lt;/b&gt;&lt;/span&gt;" style="text;html=1;strokeColor=none;fillColor=none;align=center;verticalAlign=middle;whiteSpace=wrap;rounded=0;fontSize=14;fontColor=default;" parent="1" vertex="1">
          <mxGeometry x="121" y="490" width="221" height="20" as="geometry" />
        </mxCell>
        <mxCell id="ot_2HG85SZWJpa_cD8Q3-23" value="&lt;span style=&quot;font-size: 15px;&quot;&gt;&lt;b&gt;&lt;font color=&quot;#45b500&quot;&gt;TOR 1&lt;/font&gt;&lt;br&gt;&lt;/b&gt;&lt;/span&gt;" style="text;html=1;strokeColor=none;fillColor=default;align=center;verticalAlign=middle;whiteSpace=wrap;rounded=0;fontSize=14;fontColor=default;" parent="1" vertex="1">
          <mxGeometry x="588" y="306.5" width="55" height="6.5" as="geometry" />
        </mxCell>
        <mxCell id="ot_2HG85SZWJpa_cD8Q3-30" value="&lt;span style=&quot;font-size: 20px;&quot;&gt;&lt;b style=&quot;font-size: 20px;&quot;&gt;&lt;font color=&quot;#3b690e&quot; style=&quot;font-size: 20px;&quot;&gt;LoRaWAN Mailbox Notifier&lt;br&gt;Adeunis Dry Contacts V1&lt;/font&gt;&lt;/b&gt;&lt;/span&gt;" style="text;html=1;strokeColor=none;fillColor=none;align=center;verticalAlign=middle;whiteSpace=wrap;rounded=0;fontSize=20;fontColor=default;" parent="1" vertex="1">
          <mxGeometry x="175" y="266" width="258" height="54" as="geometry" />
        </mxCell>
        <mxCell id="ot_2HG85SZWJpa_cD8Q3-31" value="&lt;span style=&quot;font-size: 8px;&quot;&gt;&lt;b style=&quot;font-size: 8px;&quot;&gt;&lt;font color=&quot;#3b690e&quot; style=&quot;font-size: 8px;&quot;&gt;vincent.huynen@gmail.com - february 2024 - version 1&lt;/font&gt;&lt;/b&gt;&lt;/span&gt;" style="text;html=1;strokeColor=none;fillColor=none;align=center;verticalAlign=middle;whiteSpace=wrap;rounded=0;fontSize=8;fontColor=default;" parent="1" vertex="1">
          <mxGeometry x="51" y="518" width="214" height="9" as="geometry" />
        </mxCell>
        <mxCell id="ot_2HG85SZWJpa_cD8Q3-34" value="&lt;b style=&quot;&quot;&gt;&lt;font style=&quot;font-size: 17px;&quot; color=&quot;#3b690e&quot;&gt;Reed Switch&lt;/font&gt;&lt;br&gt;&lt;/b&gt;" style="text;html=1;strokeColor=none;fillColor=none;align=center;verticalAlign=middle;whiteSpace=wrap;rounded=0;fontSize=14;fontColor=default;" parent="1" vertex="1">
          <mxGeometry x="613" y="275" width="119" height="16" as="geometry" />
        </mxCell>
      </root>
    </mxGraphModel>
  </diagram>
</mxfile>
